<?xml version="1.0" encoding="utf-8" standalone="no"?>
<!DOCTYPE svg PUBLIC "-//W3C//DTD SVG 1.1//EN"
  "http://www.w3.org/Graphics/SVG/1.1/DTD/svg11.dtd">
<svg xmlns:xlink="http://www.w3.org/1999/xlink" width="1282.628571pt" height="1000.8pt" viewBox="0 0 1282.628571 1000.8" xmlns="http://www.w3.org/2000/svg" version="1.1">
 <metadata>
  <rdf:RDF xmlns:dc="http://purl.org/dc/elements/1.1/" xmlns:cc="http://creativecommons.org/ns#" xmlns:rdf="http://www.w3.org/1999/02/22-rdf-syntax-ns#">
   <cc:Work>
    <dc:type rdf:resource="http://purl.org/dc/dcmitype/StillImage"/>
    <dc:date>2026-04-25T18:57:51.489828</dc:date>
    <dc:format>image/svg+xml</dc:format>
    <dc:creator>
     <cc:Agent>
      <dc:title>Matplotlib v3.10.9, https://matplotlib.org/</dc:title>
     </cc:Agent>
    </dc:creator>
   </cc:Work>
  </rdf:RDF>
 </metadata>
 <defs>
  <style type="text/css">*{stroke-linejoin: round; stroke-linecap: butt}</style>
 </defs>
 <g id="figure_1">
  <g id="patch_1">
   <path d="M 0 1000.8 
L 1282.628571 1000.8 
L 1282.628571 0 
L 0 0 
z
" style="fill: #fafafa"/>
  </g>
  <g id="axes_1">
   <g id="patch_2">
    <path d="M 431.667303 600.062005 
Q 500.402056 640.293484 567.68948 600.906793 
" style="fill: none; stroke: #b2bec3; stroke-width: 1.5; stroke-linecap: round"/>
    <path d="M 563.22706 601.201428 
L 567.68948 600.906793 
L 565.247736 604.65351 
" style="fill: none; stroke: #b2bec3; stroke-width: 1.5; stroke-linecap: round"/>
   </g>
   <g id="patch_3">
    <path d="M 157.160959 289.028571 
Q 186.867299 289.028571 214.896588 289.028571 
" style="fill: none; stroke: #333333; stroke-width: 1.5; stroke-linecap: round"/>
    <path d="M 210.896588 287.028571 
L 214.896588 289.028571 
L 210.896588 291.028571 
" style="fill: none; stroke: #333333; stroke-width: 1.5; stroke-linecap: round"/>
   </g>
   <g id="patch_4">
    <path d="M 431.945214 289.028571 
Q 473.980321 289.028571 514.338377 289.028571 
" style="fill: none; stroke: #333333; stroke-width: 1.5; stroke-linecap: round"/>
    <path d="M 510.338377 287.028571 
L 514.338377 289.028571 
L 510.338377 291.028571 
" style="fill: none; stroke: #333333; stroke-width: 1.5; stroke-linecap: round"/>
   </g>
   <g id="patch_5">
    <path d="M 766.613954 289.028571 
Q 799.841986 289.028571 831.392966 289.028571 
" style="fill: none; stroke: #333333; stroke-width: 1.5; stroke-linecap: round"/>
    <path d="M 827.392966 287.028571 
L 831.392966 289.028571 
L 827.392966 291.028571 
" style="fill: none; stroke: #333333; stroke-width: 1.5; stroke-linecap: round"/>
   </g>
   <g id="patch_6">
    <path d="M 958.371429 333.302526 
Q 958.371429 373.578117 958.371429 412.512068 
" style="fill: none; stroke: #555555; stroke-width: 1.2; stroke-linecap: round"/>
    <path d="M 960.371429 408.512068 
L 958.371429 412.512068 
L 956.371429 408.512068 
" style="fill: none; stroke: #555555; stroke-width: 1.2; stroke-linecap: round"/>
   </g>
   <g id="patch_7">
    <path d="M 886.110821 332.16852 
Q 799.841605 373.577744 714.78191 414.406398 
" style="fill: none; stroke: #555555; stroke-width: 1.2; stroke-linecap: round"/>
    <path d="M 719.253464 414.47852 
L 714.78191 414.406398 
L 717.52254 410.872427 
" style="fill: none; stroke: #555555; stroke-width: 1.2; stroke-linecap: round"/>
   </g>
   <g id="patch_8">
    <path d="M 850.729184 331.711177 
Q 650.122856 373.576845 450.829873 415.168424 
" style="fill: none; stroke: #555555; stroke-width: 1.2; stroke-linecap: round"/>
    <path d="M 455.1541 416.309066 
L 450.829873 415.168424 
L 454.336923 412.393428 
" style="fill: none; stroke: #555555; stroke-width: 1.2; stroke-linecap: round"/>
   </g>
   <g id="patch_9">
    <path d="M 641.314286 516.491097 
Q 641.314286 556.766689 641.314286 595.700639 
" style="fill: none; stroke: #555555; stroke-width: 1.2; stroke-linecap: round"/>
    <path d="M 643.314286 591.700639 
L 641.314286 595.700639 
L 639.314286 591.700639 
" style="fill: none; stroke: #555555; stroke-width: 1.2; stroke-linecap: round"/>
   </g>
   <g id="patch_10">
    <path d="M 956.840505 515.781987 
Q 873.945096 585.307896 767.927972 598.628674 
" style="fill: none; stroke: #555555; stroke-width: 1.2; stroke-linecap: round"/>
    <path d="M 772.146101 600.114402 
L 767.927972 598.628674 
L 771.647432 596.145608 
" style="fill: none; stroke: #555555; stroke-width: 1.2; stroke-linecap: round"/>
   </g>
   <g id="patch_11">
    <path d="M 639.499167 682.754231 
Q 557.380118 645.214282 468.50863 641.451417 
" style="fill: none; stroke: #555555; stroke-width: 1.2; stroke-linecap: round"/>
    <path d="M 472.420444 643.618837 
L 468.50863 641.451417 
L 472.589655 639.622417 
" style="fill: none; stroke: #555555; stroke-width: 1.2; stroke-linecap: round"/>
   </g>
   <g id="patch_12">
    <path d="M 748.815119 682.754231 
Q 830.934168 645.214282 919.805656 641.451417 
" style="fill: none; stroke: #555555; stroke-width: 1.2; stroke-linecap: round"/>
    <path d="M 915.724631 639.622417 
L 919.805656 641.451417 
L 915.893842 643.618837 
" style="fill: none; stroke: #555555; stroke-width: 1.2; stroke-linecap: round"/>
   </g>
   <g id="patch_13">
    <path d="M 466.904837 684.579652 
Q 526.917958 719.107494 568.798263 772.546929 
" style="fill: none; stroke: #555555; stroke-width: 1.2; stroke-linecap: round"/>
    <path d="M 567.905085 768.164894 
L 568.798263 772.546929 
L 564.756728 770.632251 
" style="fill: none; stroke: #555555; stroke-width: 1.2; stroke-linecap: round"/>
   </g>
   <g id="patch_14">
    <path d="M 921.409449 684.579652 
Q 861.396328 719.107494 819.516023 772.546929 
" style="fill: none; stroke: #555555; stroke-width: 1.2; stroke-linecap: round"/>
    <path d="M 823.557558 770.632251 
L 819.516023 772.546929 
L 820.409201 768.164894 
" style="fill: none; stroke: #555555; stroke-width: 1.2; stroke-linecap: round"/>
   </g>
   <g id="patch_15">
    <path d="M 516.011929 817.457143 
Q 473.976822 817.457143 433.618766 817.457143 
" style="fill: none; stroke: #333333; stroke-width: 1.5; stroke-linecap: round"/>
    <path d="M 437.618766 819.457143 
L 433.618766 817.457143 
L 437.618766 815.457143 
" style="fill: none; stroke: #333333; stroke-width: 1.5; stroke-linecap: round"/>
   </g>
   <g id="patch_16">
    <path d="M 216.57047 817.457143 
Q 186.86413 817.457143 158.83484 817.457143 
" style="fill: none; stroke: #333333; stroke-width: 1.5; stroke-linecap: round"/>
    <path d="M 162.83484 819.457143 
L 158.83484 817.457143 
L 162.83484 815.457143 
" style="fill: none; stroke: #333333; stroke-width: 1.5; stroke-linecap: round"/>
   </g>
   <g id="text_1">
    <!-- Data Flow Diagram -->
    <g style="fill: #1a1a2e" transform="translate(522.904442 48.413259) scale(0.22 -0.22)">
     <defs>
      <path id="DejaVuSans-Bold-44" d="M 1791 3756 
L 1791 909 
L 2222 909 
Q 2959 909 3348 1275 
Q 3738 1641 3738 2338 
Q 3738 3031 3350 3393 
Q 2963 3756 2222 3756 
L 1791 3756 
z
M 588 4666 
L 1856 4666 
Q 2919 4666 3439 4514 
Q 3959 4363 4331 4000 
Q 4659 3684 4818 3271 
Q 4978 2859 4978 2338 
Q 4978 1809 4818 1395 
Q 4659 981 4331 666 
Q 3956 303 3431 151 
Q 2906 0 1856 0 
L 588 0 
L 588 4666 
z
" transform="scale(0.015625)"/>
      <path id="DejaVuSans-Bold-61" d="M 2106 1575 
Q 1756 1575 1579 1456 
Q 1403 1338 1403 1106 
Q 1403 894 1545 773 
Q 1688 653 1941 653 
Q 2256 653 2472 879 
Q 2688 1106 2688 1447 
L 2688 1575 
L 2106 1575 
z
M 3816 1997 
L 3816 0 
L 2688 0 
L 2688 519 
Q 2463 200 2181 54 
Q 1900 -91 1497 -91 
Q 953 -91 614 226 
Q 275 544 275 1050 
Q 275 1666 698 1953 
Q 1122 2241 2028 2241 
L 2688 2241 
L 2688 2328 
Q 2688 2594 2478 2717 
Q 2269 2841 1825 2841 
Q 1466 2841 1156 2769 
Q 847 2697 581 2553 
L 581 3406 
Q 941 3494 1303 3539 
Q 1666 3584 2028 3584 
Q 2975 3584 3395 3211 
Q 3816 2838 3816 1997 
z
" transform="scale(0.015625)"/>
      <path id="DejaVuSans-Bold-74" d="M 1759 4494 
L 1759 3500 
L 2913 3500 
L 2913 2700 
L 1759 2700 
L 1759 1216 
Q 1759 972 1856 886 
Q 1953 800 2241 800 
L 2816 800 
L 2816 0 
L 1856 0 
Q 1194 0 917 276 
Q 641 553 641 1216 
L 641 2700 
L 84 2700 
L 84 3500 
L 641 3500 
L 641 4494 
L 1759 4494 
z
" transform="scale(0.015625)"/>
      <path id="DejaVuSans-Bold-20" transform="scale(0.015625)"/>
      <path id="DejaVuSans-Bold-46" d="M 588 4666 
L 3834 4666 
L 3834 3756 
L 1791 3756 
L 1791 2888 
L 3713 2888 
L 3713 1978 
L 1791 1978 
L 1791 0 
L 588 0 
L 588 4666 
z
" transform="scale(0.015625)"/>
      <path id="DejaVuSans-Bold-6c" d="M 538 4863 
L 1656 4863 
L 1656 0 
L 538 0 
L 538 4863 
z
" transform="scale(0.015625)"/>
      <path id="DejaVuSans-Bold-6f" d="M 2203 2784 
Q 1831 2784 1636 2517 
Q 1441 2250 1441 1747 
Q 1441 1244 1636 976 
Q 1831 709 2203 709 
Q 2569 709 2762 976 
Q 2956 1244 2956 1747 
Q 2956 2250 2762 2517 
Q 2569 2784 2203 2784 
z
M 2203 3584 
Q 3106 3584 3614 3096 
Q 4122 2609 4122 1747 
Q 4122 884 3614 396 
Q 3106 -91 2203 -91 
Q 1297 -91 786 396 
Q 275 884 275 1747 
Q 275 2609 786 3096 
Q 1297 3584 2203 3584 
z
" transform="scale(0.015625)"/>
      <path id="DejaVuSans-Bold-77" d="M 225 3500 
L 1313 3500 
L 1900 1088 
L 2491 3500 
L 3425 3500 
L 4013 1113 
L 4603 3500 
L 5691 3500 
L 4769 0 
L 3547 0 
L 2956 2406 
L 2369 0 
L 1147 0 
L 225 3500 
z
" transform="scale(0.015625)"/>
      <path id="DejaVuSans-Bold-69" d="M 538 3500 
L 1656 3500 
L 1656 0 
L 538 0 
L 538 3500 
z
M 538 4863 
L 1656 4863 
L 1656 3950 
L 538 3950 
L 538 4863 
z
" transform="scale(0.015625)"/>
      <path id="DejaVuSans-Bold-67" d="M 2919 594 
Q 2688 288 2409 144 
Q 2131 0 1766 0 
Q 1125 0 706 504 
Q 288 1009 288 1791 
Q 288 2575 706 3076 
Q 1125 3578 1766 3578 
Q 2131 3578 2409 3434 
Q 2688 3291 2919 2981 
L 2919 3500 
L 4044 3500 
L 4044 353 
Q 4044 -491 3511 -936 
Q 2978 -1381 1966 -1381 
Q 1638 -1381 1331 -1331 
Q 1025 -1281 716 -1178 
L 716 -306 
Q 1009 -475 1290 -558 
Q 1572 -641 1856 -641 
Q 2406 -641 2662 -400 
Q 2919 -159 2919 353 
L 2919 594 
z
M 2181 2772 
Q 1834 2772 1640 2515 
Q 1447 2259 1447 1791 
Q 1447 1309 1634 1061 
Q 1822 813 2181 813 
Q 2531 813 2725 1069 
Q 2919 1325 2919 1791 
Q 2919 2259 2725 2515 
Q 2531 2772 2181 2772 
z
" transform="scale(0.015625)"/>
      <path id="DejaVuSans-Bold-72" d="M 3138 2547 
Q 2991 2616 2845 2648 
Q 2700 2681 2553 2681 
Q 2122 2681 1889 2404 
Q 1656 2128 1656 1613 
L 1656 0 
L 538 0 
L 538 3500 
L 1656 3500 
L 1656 2925 
Q 1872 3269 2151 3426 
Q 2431 3584 2822 3584 
Q 2878 3584 2943 3579 
Q 3009 3575 3134 3559 
L 3138 2547 
z
" transform="scale(0.015625)"/>
      <path id="DejaVuSans-Bold-6d" d="M 3781 2919 
Q 3994 3244 4286 3414 
Q 4578 3584 4928 3584 
Q 5531 3584 5847 3212 
Q 6163 2841 6163 2131 
L 6163 0 
L 5038 0 
L 5038 1825 
Q 5041 1866 5042 1909 
Q 5044 1953 5044 2034 
Q 5044 2406 4934 2573 
Q 4825 2741 4581 2741 
Q 4263 2741 4089 2478 
Q 3916 2216 3909 1719 
L 3909 0 
L 2784 0 
L 2784 1825 
Q 2784 2406 2684 2573 
Q 2584 2741 2328 2741 
Q 2006 2741 1831 2477 
Q 1656 2213 1656 1722 
L 1656 0 
L 531 0 
L 531 3500 
L 1656 3500 
L 1656 2988 
Q 1863 3284 2130 3434 
Q 2397 3584 2719 3584 
Q 3081 3584 3359 3409 
Q 3638 3234 3781 2919 
z
" transform="scale(0.015625)"/>
     </defs>
     <use xlink:href="#DejaVuSans-Bold-44"/>
     <use xlink:href="#DejaVuSans-Bold-61" transform="translate(83.007812 0)"/>
     <use xlink:href="#DejaVuSans-Bold-74" transform="translate(150.488281 0)"/>
     <use xlink:href="#DejaVuSans-Bold-61" transform="translate(198.291016 0)"/>
     <use xlink:href="#DejaVuSans-Bold-20" transform="translate(265.771484 0)"/>
     <use xlink:href="#DejaVuSans-Bold-46" transform="translate(300.585938 0)"/>
     <use xlink:href="#DejaVuSans-Bold-6c" transform="translate(368.896484 0)"/>
     <use xlink:href="#DejaVuSans-Bold-6f" transform="translate(403.173828 0)"/>
     <use xlink:href="#DejaVuSans-Bold-77" transform="translate(471.875 0)"/>
     <use xlink:href="#DejaVuSans-Bold-20" transform="translate(564.257812 0)"/>
     <use xlink:href="#DejaVuSans-Bold-44" transform="translate(599.072266 0)"/>
     <use xlink:href="#DejaVuSans-Bold-69" transform="translate(682.080078 0)"/>
     <use xlink:href="#DejaVuSans-Bold-61" transform="translate(716.357422 0)"/>
     <use xlink:href="#DejaVuSans-Bold-67" transform="translate(783.837891 0)"/>
     <use xlink:href="#DejaVuSans-Bold-72" transform="translate(855.419922 0)"/>
     <use xlink:href="#DejaVuSans-Bold-61" transform="translate(904.736328 0)"/>
     <use xlink:href="#DejaVuSans-Bold-6d" transform="translate(972.216797 0)"/>
    </g>
   </g>
   <g id="text_2">
    <!-- Message Flow from User Input to Agent Response -->
    <g style="fill: #555555" transform="translate(492.201161 73.922679) scale(0.12 -0.12)">
     <defs>
      <path id="DejaVuSans-4d" d="M 628 4666 
L 1569 4666 
L 2759 1491 
L 3956 4666 
L 4897 4666 
L 4897 0 
L 4281 0 
L 4281 4097 
L 3078 897 
L 2444 897 
L 1241 4097 
L 1241 0 
L 628 0 
L 628 4666 
z
" transform="scale(0.015625)"/>
      <path id="DejaVuSans-65" d="M 3597 1894 
L 3597 1613 
L 953 1613 
Q 991 1019 1311 708 
Q 1631 397 2203 397 
Q 2534 397 2845 478 
Q 3156 559 3463 722 
L 3463 178 
Q 3153 47 2828 -22 
Q 2503 -91 2169 -91 
Q 1331 -91 842 396 
Q 353 884 353 1716 
Q 353 2575 817 3079 
Q 1281 3584 2069 3584 
Q 2775 3584 3186 3129 
Q 3597 2675 3597 1894 
z
M 3022 2063 
Q 3016 2534 2758 2815 
Q 2500 3097 2075 3097 
Q 1594 3097 1305 2825 
Q 1016 2553 972 2059 
L 3022 2063 
z
" transform="scale(0.015625)"/>
      <path id="DejaVuSans-73" d="M 2834 3397 
L 2834 2853 
Q 2591 2978 2328 3040 
Q 2066 3103 1784 3103 
Q 1356 3103 1142 2972 
Q 928 2841 928 2578 
Q 928 2378 1081 2264 
Q 1234 2150 1697 2047 
L 1894 2003 
Q 2506 1872 2764 1633 
Q 3022 1394 3022 966 
Q 3022 478 2636 193 
Q 2250 -91 1575 -91 
Q 1294 -91 989 -36 
Q 684 19 347 128 
L 347 722 
Q 666 556 975 473 
Q 1284 391 1588 391 
Q 1994 391 2212 530 
Q 2431 669 2431 922 
Q 2431 1156 2273 1281 
Q 2116 1406 1581 1522 
L 1381 1569 
Q 847 1681 609 1914 
Q 372 2147 372 2553 
Q 372 3047 722 3315 
Q 1072 3584 1716 3584 
Q 2034 3584 2315 3537 
Q 2597 3491 2834 3397 
z
" transform="scale(0.015625)"/>
      <path id="DejaVuSans-61" d="M 2194 1759 
Q 1497 1759 1228 1600 
Q 959 1441 959 1056 
Q 959 750 1161 570 
Q 1363 391 1709 391 
Q 2188 391 2477 730 
Q 2766 1069 2766 1631 
L 2766 1759 
L 2194 1759 
z
M 3341 1997 
L 3341 0 
L 2766 0 
L 2766 531 
Q 2569 213 2275 61 
Q 1981 -91 1556 -91 
Q 1019 -91 701 211 
Q 384 513 384 1019 
Q 384 1609 779 1909 
Q 1175 2209 1959 2209 
L 2766 2209 
L 2766 2266 
Q 2766 2663 2505 2880 
Q 2244 3097 1772 3097 
Q 1472 3097 1187 3025 
Q 903 2953 641 2809 
L 641 3341 
Q 956 3463 1253 3523 
Q 1550 3584 1831 3584 
Q 2591 3584 2966 3190 
Q 3341 2797 3341 1997 
z
" transform="scale(0.015625)"/>
      <path id="DejaVuSans-67" d="M 2906 1791 
Q 2906 2416 2648 2759 
Q 2391 3103 1925 3103 
Q 1463 3103 1205 2759 
Q 947 2416 947 1791 
Q 947 1169 1205 825 
Q 1463 481 1925 481 
Q 2391 481 2648 825 
Q 2906 1169 2906 1791 
z
M 3481 434 
Q 3481 -459 3084 -895 
Q 2688 -1331 1869 -1331 
Q 1566 -1331 1297 -1286 
Q 1028 -1241 775 -1147 
L 775 -588 
Q 1028 -725 1275 -790 
Q 1522 -856 1778 -856 
Q 2344 -856 2625 -561 
Q 2906 -266 2906 331 
L 2906 616 
Q 2728 306 2450 153 
Q 2172 0 1784 0 
Q 1141 0 747 490 
Q 353 981 353 1791 
Q 353 2603 747 3093 
Q 1141 3584 1784 3584 
Q 2172 3584 2450 3431 
Q 2728 3278 2906 2969 
L 2906 3500 
L 3481 3500 
L 3481 434 
z
" transform="scale(0.015625)"/>
      <path id="DejaVuSans-20" transform="scale(0.015625)"/>
      <path id="DejaVuSans-46" d="M 628 4666 
L 3309 4666 
L 3309 4134 
L 1259 4134 
L 1259 2759 
L 3109 2759 
L 3109 2228 
L 1259 2228 
L 1259 0 
L 628 0 
L 628 4666 
z
" transform="scale(0.015625)"/>
      <path id="DejaVuSans-6c" d="M 603 4863 
L 1178 4863 
L 1178 0 
L 603 0 
L 603 4863 
z
" transform="scale(0.015625)"/>
      <path id="DejaVuSans-6f" d="M 1959 3097 
Q 1497 3097 1228 2736 
Q 959 2375 959 1747 
Q 959 1119 1226 758 
Q 1494 397 1959 397 
Q 2419 397 2687 759 
Q 2956 1122 2956 1747 
Q 2956 2369 2687 2733 
Q 2419 3097 1959 3097 
z
M 1959 3584 
Q 2709 3584 3137 3096 
Q 3566 2609 3566 1747 
Q 3566 888 3137 398 
Q 2709 -91 1959 -91 
Q 1206 -91 779 398 
Q 353 888 353 1747 
Q 353 2609 779 3096 
Q 1206 3584 1959 3584 
z
" transform="scale(0.015625)"/>
      <path id="DejaVuSans-77" d="M 269 3500 
L 844 3500 
L 1563 769 
L 2278 3500 
L 2956 3500 
L 3675 769 
L 4391 3500 
L 4966 3500 
L 4050 0 
L 3372 0 
L 2619 2869 
L 1863 0 
L 1184 0 
L 269 3500 
z
" transform="scale(0.015625)"/>
      <path id="DejaVuSans-66" d="M 2375 4863 
L 2375 4384 
L 1825 4384 
Q 1516 4384 1395 4259 
Q 1275 4134 1275 3809 
L 1275 3500 
L 2222 3500 
L 2222 3053 
L 1275 3053 
L 1275 0 
L 697 0 
L 697 3053 
L 147 3053 
L 147 3500 
L 697 3500 
L 697 3744 
Q 697 4328 969 4595 
Q 1241 4863 1831 4863 
L 2375 4863 
z
" transform="scale(0.015625)"/>
      <path id="DejaVuSans-72" d="M 2631 2963 
Q 2534 3019 2420 3045 
Q 2306 3072 2169 3072 
Q 1681 3072 1420 2755 
Q 1159 2438 1159 1844 
L 1159 0 
L 581 0 
L 581 3500 
L 1159 3500 
L 1159 2956 
Q 1341 3275 1631 3429 
Q 1922 3584 2338 3584 
Q 2397 3584 2469 3576 
Q 2541 3569 2628 3553 
L 2631 2963 
z
" transform="scale(0.015625)"/>
      <path id="DejaVuSans-6d" d="M 3328 2828 
Q 3544 3216 3844 3400 
Q 4144 3584 4550 3584 
Q 5097 3584 5394 3201 
Q 5691 2819 5691 2113 
L 5691 0 
L 5113 0 
L 5113 2094 
Q 5113 2597 4934 2840 
Q 4756 3084 4391 3084 
Q 3944 3084 3684 2787 
Q 3425 2491 3425 1978 
L 3425 0 
L 2847 0 
L 2847 2094 
Q 2847 2600 2669 2842 
Q 2491 3084 2119 3084 
Q 1678 3084 1418 2786 
Q 1159 2488 1159 1978 
L 1159 0 
L 581 0 
L 581 3500 
L 1159 3500 
L 1159 2956 
Q 1356 3278 1631 3431 
Q 1906 3584 2284 3584 
Q 2666 3584 2933 3390 
Q 3200 3197 3328 2828 
z
" transform="scale(0.015625)"/>
      <path id="DejaVuSans-55" d="M 556 4666 
L 1191 4666 
L 1191 1831 
Q 1191 1081 1462 751 
Q 1734 422 2344 422 
Q 2950 422 3222 751 
Q 3494 1081 3494 1831 
L 3494 4666 
L 4128 4666 
L 4128 1753 
Q 4128 841 3676 375 
Q 3225 -91 2344 -91 
Q 1459 -91 1007 375 
Q 556 841 556 1753 
L 556 4666 
z
" transform="scale(0.015625)"/>
      <path id="DejaVuSans-49" d="M 628 4666 
L 1259 4666 
L 1259 0 
L 628 0 
L 628 4666 
z
" transform="scale(0.015625)"/>
      <path id="DejaVuSans-6e" d="M 3513 2113 
L 3513 0 
L 2938 0 
L 2938 2094 
Q 2938 2591 2744 2837 
Q 2550 3084 2163 3084 
Q 1697 3084 1428 2787 
Q 1159 2491 1159 1978 
L 1159 0 
L 581 0 
L 581 3500 
L 1159 3500 
L 1159 2956 
Q 1366 3272 1645 3428 
Q 1925 3584 2291 3584 
Q 2894 3584 3203 3211 
Q 3513 2838 3513 2113 
z
" transform="scale(0.015625)"/>
      <path id="DejaVuSans-70" d="M 1159 525 
L 1159 -1331 
L 581 -1331 
L 581 3500 
L 1159 3500 
L 1159 2969 
Q 1341 3281 1617 3432 
Q 1894 3584 2278 3584 
Q 2916 3584 3314 3078 
Q 3713 2572 3713 1747 
Q 3713 922 3314 415 
Q 2916 -91 2278 -91 
Q 1894 -91 1617 61 
Q 1341 213 1159 525 
z
M 3116 1747 
Q 3116 2381 2855 2742 
Q 2594 3103 2138 3103 
Q 1681 3103 1420 2742 
Q 1159 2381 1159 1747 
Q 1159 1113 1420 752 
Q 1681 391 2138 391 
Q 2594 391 2855 752 
Q 3116 1113 3116 1747 
z
" transform="scale(0.015625)"/>
      <path id="DejaVuSans-75" d="M 544 1381 
L 544 3500 
L 1119 3500 
L 1119 1403 
Q 1119 906 1312 657 
Q 1506 409 1894 409 
Q 2359 409 2629 706 
Q 2900 1003 2900 1516 
L 2900 3500 
L 3475 3500 
L 3475 0 
L 2900 0 
L 2900 538 
Q 2691 219 2414 64 
Q 2138 -91 1772 -91 
Q 1169 -91 856 284 
Q 544 659 544 1381 
z
M 1991 3584 
L 1991 3584 
z
" transform="scale(0.015625)"/>
      <path id="DejaVuSans-74" d="M 1172 4494 
L 1172 3500 
L 2356 3500 
L 2356 3053 
L 1172 3053 
L 1172 1153 
Q 1172 725 1289 603 
Q 1406 481 1766 481 
L 2356 481 
L 2356 0 
L 1766 0 
Q 1100 0 847 248 
Q 594 497 594 1153 
L 594 3053 
L 172 3053 
L 172 3500 
L 594 3500 
L 594 4494 
L 1172 4494 
z
" transform="scale(0.015625)"/>
      <path id="DejaVuSans-41" d="M 2188 4044 
L 1331 1722 
L 3047 1722 
L 2188 4044 
z
M 1831 4666 
L 2547 4666 
L 4325 0 
L 3669 0 
L 3244 1197 
L 1141 1197 
L 716 0 
L 50 0 
L 1831 4666 
z
" transform="scale(0.015625)"/>
      <path id="DejaVuSans-52" d="M 2841 2188 
Q 3044 2119 3236 1894 
Q 3428 1669 3622 1275 
L 4263 0 
L 3584 0 
L 2988 1197 
Q 2756 1666 2539 1819 
Q 2322 1972 1947 1972 
L 1259 1972 
L 1259 0 
L 628 0 
L 628 4666 
L 2053 4666 
Q 2853 4666 3247 4331 
Q 3641 3997 3641 3322 
Q 3641 2881 3436 2590 
Q 3231 2300 2841 2188 
z
M 1259 4147 
L 1259 2491 
L 2053 2491 
Q 2509 2491 2742 2702 
Q 2975 2913 2975 3322 
Q 2975 3731 2742 3939 
Q 2509 4147 2053 4147 
L 1259 4147 
z
" transform="scale(0.015625)"/>
     </defs>
     <use xlink:href="#DejaVuSans-4d"/>
     <use xlink:href="#DejaVuSans-65" transform="translate(86.279297 0)"/>
     <use xlink:href="#DejaVuSans-73" transform="translate(147.802734 0)"/>
     <use xlink:href="#DejaVuSans-73" transform="translate(199.902344 0)"/>
     <use xlink:href="#DejaVuSans-61" transform="translate(252.001953 0)"/>
     <use xlink:href="#DejaVuSans-67" transform="translate(313.28125 0)"/>
     <use xlink:href="#DejaVuSans-65" transform="translate(376.757812 0)"/>
     <use xlink:href="#DejaVuSans-20" transform="translate(438.28125 0)"/>
     <use xlink:href="#DejaVuSans-46" transform="translate(470.068359 0)"/>
     <use xlink:href="#DejaVuSans-6c" transform="translate(527.587891 0)"/>
     <use xlink:href="#DejaVuSans-6f" transform="translate(555.371094 0)"/>
     <use xlink:href="#DejaVuSans-77" transform="translate(616.552734 0)"/>
     <use xlink:href="#DejaVuSans-20" transform="translate(698.339844 0)"/>
     <use xlink:href="#DejaVuSans-66" transform="translate(730.126953 0)"/>
     <use xlink:href="#DejaVuSans-72" transform="translate(765.332031 0)"/>
     <use xlink:href="#DejaVuSans-6f" transform="translate(804.195312 0)"/>
     <use xlink:href="#DejaVuSans-6d" transform="translate(865.376953 0)"/>
     <use xlink:href="#DejaVuSans-20" transform="translate(962.789062 0)"/>
     <use xlink:href="#DejaVuSans-55" transform="translate(994.576172 0)"/>
     <use xlink:href="#DejaVuSans-73" transform="translate(1067.769531 0)"/>
     <use xlink:href="#DejaVuSans-65" transform="translate(1119.869141 0)"/>
     <use xlink:href="#DejaVuSans-72" transform="translate(1181.392578 0)"/>
     <use xlink:href="#DejaVuSans-20" transform="translate(1222.505859 0)"/>
     <use xlink:href="#DejaVuSans-49" transform="translate(1254.292969 0)"/>
     <use xlink:href="#DejaVuSans-6e" transform="translate(1283.785156 0)"/>
     <use xlink:href="#DejaVuSans-70" transform="translate(1347.164062 0)"/>
     <use xlink:href="#DejaVuSans-75" transform="translate(1410.640625 0)"/>
     <use xlink:href="#DejaVuSans-74" transform="translate(1474.019531 0)"/>
     <use xlink:href="#DejaVuSans-20" transform="translate(1513.228516 0)"/>
     <use xlink:href="#DejaVuSans-74" transform="translate(1545.015625 0)"/>
     <use xlink:href="#DejaVuSans-6f" transform="translate(1584.224609 0)"/>
     <use xlink:href="#DejaVuSans-20" transform="translate(1645.40625 0)"/>
     <use xlink:href="#DejaVuSans-41" transform="translate(1677.193359 0)"/>
     <use xlink:href="#DejaVuSans-67" transform="translate(1745.601562 0)"/>
     <use xlink:href="#DejaVuSans-65" transform="translate(1809.078125 0)"/>
     <use xlink:href="#DejaVuSans-6e" transform="translate(1870.601562 0)"/>
     <use xlink:href="#DejaVuSans-74" transform="translate(1933.980469 0)"/>
     <use xlink:href="#DejaVuSans-20" transform="translate(1973.189453 0)"/>
     <use xlink:href="#DejaVuSans-52" transform="translate(2004.976562 0)"/>
     <use xlink:href="#DejaVuSans-65" transform="translate(2069.958984 0)"/>
     <use xlink:href="#DejaVuSans-73" transform="translate(2131.482422 0)"/>
     <use xlink:href="#DejaVuSans-70" transform="translate(2183.582031 0)"/>
     <use xlink:href="#DejaVuSans-6f" transform="translate(2247.058594 0)"/>
     <use xlink:href="#DejaVuSans-6e" transform="translate(2308.240234 0)"/>
     <use xlink:href="#DejaVuSans-73" transform="translate(2371.619141 0)"/>
     <use xlink:href="#DejaVuSans-65" transform="translate(2423.71875 0)"/>
    </g>
   </g>
   <g id="patch_17">
    <path d="M 112.885714 331.302857 
C 124.096986 331.302857 134.850582 326.848572 142.778148 318.921006 
C 150.705715 310.993439 155.16 300.239843 155.16 289.028571 
C 155.16 277.8173 150.705715 267.063704 142.778148 259.136137 
C 134.850582 251.208571 124.096986 246.754286 112.885714 246.754286 
C 101.674443 246.754286 90.920846 251.208571 82.99328 259.136137 
C 75.065714 267.063704 70.611429 277.8173 70.611429 289.028571 
C 70.611429 300.239843 75.065714 310.993439 82.99328 318.921006 
C 90.920846 326.848572 101.674443 331.302857 112.885714 331.302857 
z
" clip-path="url(#p5bd4b57f17)" style="fill: #636e72; stroke: #333333; stroke-width: 1.5; stroke-linejoin: miter"/>
   </g>
   <g id="patch_18">
    <path d="M 219.276 332.712 
L 429.238286 332.712 
Q 431.352 332.712 431.352 330.598286 
L 431.352 247.458857 
Q 431.352 245.345143 429.238286 245.345143 
L 219.276 245.345143 
Q 217.162286 245.345143 217.162286 247.458857 
L 217.162286 330.598286 
Q 217.162286 332.712 219.276 332.712 
z
" clip-path="url(#p5bd4b57f17)" style="fill: #6c5ce7; opacity: 0.95; stroke: #333333; stroke-width: 1.2; stroke-linejoin: miter"/>
   </g>
   <g id="patch_19">
    <path d="M 518.718857 332.712 
L 763.909714 332.712 
Q 766.023429 332.712 766.023429 330.598286 
L 766.023429 247.458857 
Q 766.023429 245.345143 763.909714 245.345143 
L 518.718857 245.345143 
Q 516.605143 245.345143 516.605143 247.458857 
L 516.605143 330.598286 
Q 516.605143 332.712 518.718857 332.712 
z
" clip-path="url(#p5bd4b57f17)" style="fill: #00b894; opacity: 0.95; stroke: #333333; stroke-width: 1.2; stroke-linejoin: miter"/>
   </g>
   <g id="patch_20">
    <path d="M 835.776 332.712 
L 1080.966857 332.712 
Q 1083.080571 332.712 1083.080571 330.598286 
L 1083.080571 247.458857 
Q 1083.080571 245.345143 1080.966857 245.345143 
L 835.776 245.345143 
Q 833.662286 245.345143 833.662286 247.458857 
L 833.662286 330.598286 
Q 833.662286 332.712 835.776 332.712 
z
" clip-path="url(#p5bd4b57f17)" style="fill: #0984e3; opacity: 0.95; stroke: #333333; stroke-width: 1.2; stroke-linejoin: miter"/>
   </g>
   <g id="patch_21">
    <path d="M 519.423429 515.900571 
L 763.205143 515.900571 
Q 766.023429 515.900571 766.023429 513.082286 
L 766.023429 417.260571 
Q 766.023429 414.442286 763.205143 414.442286 
L 519.423429 414.442286 
Q 516.605143 414.442286 516.605143 417.260571 
L 516.605143 513.082286 
Q 516.605143 515.900571 519.423429 515.900571 
z
" clip-path="url(#p5bd4b57f17)" style="fill: #74b9ff; opacity: 0.95; stroke: #333333; stroke-width: 1.2; stroke-linejoin: miter"/>
   </g>
   <g id="patch_22">
    <path d="M 836.480571 515.900571 
L 1080.262286 515.900571 
Q 1083.080571 515.900571 1083.080571 513.082286 
L 1083.080571 417.260571 
Q 1083.080571 414.442286 1080.262286 414.442286 
L 836.480571 414.442286 
Q 833.662286 414.442286 833.662286 417.260571 
L 833.662286 513.082286 
Q 833.662286 515.900571 836.480571 515.900571 
z
" clip-path="url(#p5bd4b57f17)" style="fill: #74b9ff; opacity: 0.95; stroke: #333333; stroke-width: 1.2; stroke-linejoin: miter"/>
   </g>
   <g id="patch_23">
    <path d="M 202.366286 515.900571 
L 446.148 515.900571 
Q 448.966286 515.900571 448.966286 513.082286 
L 448.966286 417.260571 
Q 448.966286 414.442286 446.148 414.442286 
L 202.366286 414.442286 
Q 199.548 414.442286 199.548 417.260571 
L 199.548 513.082286 
Q 199.548 515.900571 202.366286 515.900571 
z
" clip-path="url(#p5bd4b57f17)" style="fill: #74b9ff; opacity: 0.95; stroke: #333333; stroke-width: 1.2; stroke-linejoin: miter"/>
   </g>
   <g id="patch_24">
    <path d="M 518.718857 684.997714 
L 763.909714 684.997714 
Q 766.023429 684.997714 766.023429 682.884 
L 766.023429 599.744571 
Q 766.023429 597.630857 763.909714 597.630857 
L 518.718857 597.630857 
Q 516.605143 597.630857 516.605143 599.744571 
L 516.605143 682.884 
Q 516.605143 684.997714 518.718857 684.997714 
z
" clip-path="url(#p5bd4b57f17)" style="fill: #fdcb6e; opacity: 0.95; stroke: #333333; stroke-width: 1.2; stroke-linejoin: miter"/>
   </g>
   <g id="patch_25">
    <path d="M 254.504571 684.997714 
L 464.466857 684.997714 
Q 466.580571 684.997714 466.580571 682.884 
L 466.580571 599.744571 
Q 466.580571 597.630857 464.466857 597.630857 
L 254.504571 597.630857 
Q 252.390857 597.630857 252.390857 599.744571 
L 252.390857 682.884 
Q 252.390857 684.997714 254.504571 684.997714 
z
" clip-path="url(#p5bd4b57f17)" style="fill: #ff7675; opacity: 0.95; stroke: #333333; stroke-width: 1.2; stroke-linejoin: miter"/>
   </g>
   <g id="patch_26">
    <path d="M 818.161714 684.997714 
L 1028.124 684.997714 
Q 1030.237714 684.997714 1030.237714 682.884 
L 1030.237714 599.744571 
Q 1030.237714 597.630857 1028.124 597.630857 
L 818.161714 597.630857 
Q 816.048 597.630857 816.048 599.744571 
L 816.048 682.884 
Q 816.048 684.997714 818.161714 684.997714 
z
" clip-path="url(#p5bd4b57f17)" style="fill: #ff7675; opacity: 0.95; stroke: #333333; stroke-width: 1.2; stroke-linejoin: miter"/>
   </g>
   <g id="text_3">
    <!-- Tool Result -->
    <g style="fill: #b2bec3" transform="translate(475.636875 558.973214) scale(0.08 -0.08)">
     <defs>
      <path id="DejaVuSans-Bold-54" d="M 31 4666 
L 4331 4666 
L 4331 3756 
L 2784 3756 
L 2784 0 
L 1581 0 
L 1581 3756 
L 31 3756 
L 31 4666 
z
" transform="scale(0.015625)"/>
      <path id="DejaVuSans-Bold-52" d="M 2297 2597 
Q 2675 2597 2839 2737 
Q 3003 2878 3003 3200 
Q 3003 3519 2839 3656 
Q 2675 3794 2297 3794 
L 1791 3794 
L 1791 2597 
L 2297 2597 
z
M 1791 1766 
L 1791 0 
L 588 0 
L 588 4666 
L 2425 4666 
Q 3347 4666 3776 4356 
Q 4206 4047 4206 3378 
Q 4206 2916 3982 2619 
Q 3759 2322 3309 2181 
Q 3556 2125 3751 1926 
Q 3947 1728 4147 1325 
L 4800 0 
L 3519 0 
L 2950 1159 
Q 2778 1509 2601 1637 
Q 2425 1766 2131 1766 
L 1791 1766 
z
" transform="scale(0.015625)"/>
      <path id="DejaVuSans-Bold-65" d="M 4031 1759 
L 4031 1441 
L 1416 1441 
Q 1456 1047 1700 850 
Q 1944 653 2381 653 
Q 2734 653 3104 758 
Q 3475 863 3866 1075 
L 3866 213 
Q 3469 63 3072 -14 
Q 2675 -91 2278 -91 
Q 1328 -91 801 392 
Q 275 875 275 1747 
Q 275 2603 792 3093 
Q 1309 3584 2216 3584 
Q 3041 3584 3536 3087 
Q 4031 2591 4031 1759 
z
M 2881 2131 
Q 2881 2450 2695 2645 
Q 2509 2841 2209 2841 
Q 1884 2841 1681 2658 
Q 1478 2475 1428 2131 
L 2881 2131 
z
" transform="scale(0.015625)"/>
      <path id="DejaVuSans-Bold-73" d="M 3272 3391 
L 3272 2541 
Q 2913 2691 2578 2766 
Q 2244 2841 1947 2841 
Q 1628 2841 1473 2761 
Q 1319 2681 1319 2516 
Q 1319 2381 1436 2309 
Q 1553 2238 1856 2203 
L 2053 2175 
Q 2913 2066 3209 1816 
Q 3506 1566 3506 1031 
Q 3506 472 3093 190 
Q 2681 -91 1863 -91 
Q 1516 -91 1145 -36 
Q 775 19 384 128 
L 384 978 
Q 719 816 1070 734 
Q 1422 653 1784 653 
Q 2113 653 2278 743 
Q 2444 834 2444 1013 
Q 2444 1163 2330 1236 
Q 2216 1309 1875 1350 
L 1678 1375 
Q 931 1469 631 1722 
Q 331 1975 331 2491 
Q 331 3047 712 3315 
Q 1094 3584 1881 3584 
Q 2191 3584 2531 3537 
Q 2872 3491 3272 3391 
z
" transform="scale(0.015625)"/>
      <path id="DejaVuSans-Bold-75" d="M 500 1363 
L 500 3500 
L 1625 3500 
L 1625 3150 
Q 1625 2866 1622 2436 
Q 1619 2006 1619 1863 
Q 1619 1441 1641 1255 
Q 1663 1069 1716 984 
Q 1784 875 1895 815 
Q 2006 756 2150 756 
Q 2500 756 2700 1025 
Q 2900 1294 2900 1772 
L 2900 3500 
L 4019 3500 
L 4019 0 
L 2900 0 
L 2900 506 
Q 2647 200 2364 54 
Q 2081 -91 1741 -91 
Q 1134 -91 817 281 
Q 500 653 500 1363 
z
" transform="scale(0.015625)"/>
     </defs>
     <use xlink:href="#DejaVuSans-Bold-54"/>
     <use xlink:href="#DejaVuSans-Bold-6f" transform="translate(54.962891 0)"/>
     <use xlink:href="#DejaVuSans-Bold-6f" transform="translate(123.664062 0)"/>
     <use xlink:href="#DejaVuSans-Bold-6c" transform="translate(192.365234 0)"/>
     <use xlink:href="#DejaVuSans-Bold-20" transform="translate(226.642578 0)"/>
     <use xlink:href="#DejaVuSans-Bold-52" transform="translate(261.457031 0)"/>
     <use xlink:href="#DejaVuSans-Bold-65" transform="translate(338.458984 0)"/>
     <use xlink:href="#DejaVuSans-Bold-73" transform="translate(406.28125 0)"/>
     <use xlink:href="#DejaVuSans-Bold-75" transform="translate(465.802734 0)"/>
     <use xlink:href="#DejaVuSans-Bold-6c" transform="translate(536.994141 0)"/>
     <use xlink:href="#DejaVuSans-Bold-74" transform="translate(571.271484 0)"/>
    </g>
   </g>
   <g id="patch_27">
    <path d="M 518.718857 861.140571 
L 763.909714 861.140571 
Q 766.023429 861.140571 766.023429 859.026857 
L 766.023429 775.887429 
Q 766.023429 773.773714 763.909714 773.773714 
L 518.718857 773.773714 
Q 516.605143 773.773714 516.605143 775.887429 
L 516.605143 859.026857 
Q 516.605143 861.140571 518.718857 861.140571 
z
" clip-path="url(#p5bd4b57f17)" style="fill: #00b894; opacity: 0.95; stroke: #333333; stroke-width: 1.2; stroke-linejoin: miter"/>
   </g>
   <g id="patch_28">
    <path d="M 219.276 861.140571 
L 429.238286 861.140571 
Q 431.352 861.140571 431.352 859.026857 
L 431.352 775.887429 
Q 431.352 773.773714 429.238286 773.773714 
L 219.276 773.773714 
Q 217.162286 773.773714 217.162286 775.887429 
L 217.162286 859.026857 
Q 217.162286 861.140571 219.276 861.140571 
z
" clip-path="url(#p5bd4b57f17)" style="fill: #6c5ce7; opacity: 0.95; stroke: #333333; stroke-width: 1.2; stroke-linejoin: miter"/>
   </g>
   <g id="patch_29">
    <path d="M 112.885714 859.731429 
C 124.096986 859.731429 134.850582 855.277143 142.778148 847.349577 
C 150.705715 839.422011 155.16 828.668414 155.16 817.457143 
C 155.16 806.245871 150.705715 795.492275 142.778148 787.564709 
C 134.850582 779.637143 124.096986 775.182857 112.885714 775.182857 
C 101.674443 775.182857 90.920846 779.637143 82.99328 787.564709 
C 75.065714 795.492275 70.611429 806.245871 70.611429 817.457143 
C 70.611429 828.668414 75.065714 839.422011 82.99328 847.349577 
C 90.920846 855.277143 101.674443 859.731429 112.885714 859.731429 
z
" clip-path="url(#p5bd4b57f17)" style="fill: #636e72; stroke: #333333; stroke-width: 1.5; stroke-linejoin: miter"/>
   </g>
   <g id="text_4">
    <g id="patch_30">
     <path d="M 1146.315357 651.295911 
L 1193.170357 651.295911 
Q 1194.770357 651.295911 1194.770357 649.695911 
L 1194.770357 632.870161 
Q 1194.770357 631.270161 1193.170357 631.270161 
L 1146.315357 631.270161 
Q 1144.715357 631.270161 1144.715357 632.870161 
L 1144.715357 649.695911 
Q 1144.715357 651.295911 1146.315357 651.295911 
z
" style="fill: #ffebee; stroke: #d63031; stroke-linejoin: miter"/>
    </g>
    <!-- Streaming -->
    <g style="fill: #d63031" transform="translate(1146.315357 639.011411) scale(0.08 -0.08)">
     <defs>
      <path id="DejaVuSans-Bold-53" d="M 3834 4519 
L 3834 3531 
Q 3450 3703 3084 3790 
Q 2719 3878 2394 3878 
Q 1963 3878 1756 3759 
Q 1550 3641 1550 3391 
Q 1550 3203 1689 3098 
Q 1828 2994 2194 2919 
L 2706 2816 
Q 3484 2659 3812 2340 
Q 4141 2022 4141 1434 
Q 4141 663 3683 286 
Q 3225 -91 2284 -91 
Q 1841 -91 1394 -6 
Q 947 78 500 244 
L 500 1259 
Q 947 1022 1364 901 
Q 1781 781 2169 781 
Q 2563 781 2772 912 
Q 2981 1044 2981 1288 
Q 2981 1506 2839 1625 
Q 2697 1744 2272 1838 
L 1806 1941 
Q 1106 2091 782 2419 
Q 459 2747 459 3303 
Q 459 4000 909 4375 
Q 1359 4750 2203 4750 
Q 2588 4750 2994 4692 
Q 3400 4634 3834 4519 
z
" transform="scale(0.015625)"/>
      <path id="DejaVuSans-Bold-6e" d="M 4056 2131 
L 4056 0 
L 2931 0 
L 2931 347 
L 2931 1631 
Q 2931 2084 2911 2256 
Q 2891 2428 2841 2509 
Q 2775 2619 2662 2680 
Q 2550 2741 2406 2741 
Q 2056 2741 1856 2470 
Q 1656 2200 1656 1722 
L 1656 0 
L 538 0 
L 538 3500 
L 1656 3500 
L 1656 2988 
Q 1909 3294 2193 3439 
Q 2478 3584 2822 3584 
Q 3428 3584 3742 3212 
Q 4056 2841 4056 2131 
z
" transform="scale(0.015625)"/>
     </defs>
     <use xlink:href="#DejaVuSans-Bold-53"/>
     <use xlink:href="#DejaVuSans-Bold-74" transform="translate(72.021484 0)"/>
     <use xlink:href="#DejaVuSans-Bold-72" transform="translate(119.824219 0)"/>
     <use xlink:href="#DejaVuSans-Bold-65" transform="translate(169.140625 0)"/>
     <use xlink:href="#DejaVuSans-Bold-61" transform="translate(236.962891 0)"/>
     <use xlink:href="#DejaVuSans-Bold-6d" transform="translate(304.443359 0)"/>
     <use xlink:href="#DejaVuSans-Bold-69" transform="translate(408.642578 0)"/>
     <use xlink:href="#DejaVuSans-Bold-6e" transform="translate(442.919922 0)"/>
     <use xlink:href="#DejaVuSans-Bold-67" transform="translate(514.111328 0)"/>
    </g>
    <!-- (deltas) -->
    <g style="fill: #d63031" transform="translate(1152.147232 648.032161) scale(0.08 -0.08)">
     <defs>
      <path id="DejaVuSans-Bold-28" d="M 2413 -844 
L 1484 -844 
Q 1006 -72 778 623 
Q 550 1319 550 2003 
Q 550 2688 779 3389 
Q 1009 4091 1484 4856 
L 2413 4856 
Q 2013 4116 1813 3408 
Q 1613 2700 1613 2009 
Q 1613 1319 1811 609 
Q 2009 -100 2413 -844 
z
" transform="scale(0.015625)"/>
      <path id="DejaVuSans-Bold-64" d="M 2919 2988 
L 2919 4863 
L 4044 4863 
L 4044 0 
L 2919 0 
L 2919 506 
Q 2688 197 2409 53 
Q 2131 -91 1766 -91 
Q 1119 -91 703 423 
Q 288 938 288 1747 
Q 288 2556 703 3070 
Q 1119 3584 1766 3584 
Q 2128 3584 2408 3439 
Q 2688 3294 2919 2988 
z
M 2181 722 
Q 2541 722 2730 984 
Q 2919 1247 2919 1747 
Q 2919 2247 2730 2509 
Q 2541 2772 2181 2772 
Q 1825 2772 1636 2509 
Q 1447 2247 1447 1747 
Q 1447 1247 1636 984 
Q 1825 722 2181 722 
z
" transform="scale(0.015625)"/>
      <path id="DejaVuSans-Bold-29" d="M 513 -844 
Q 913 -100 1113 609 
Q 1313 1319 1313 2009 
Q 1313 2700 1113 3408 
Q 913 4116 513 4856 
L 1441 4856 
Q 1916 4091 2145 3389 
Q 2375 2688 2375 2003 
Q 2375 1319 2147 623 
Q 1919 -72 1441 -844 
L 513 -844 
z
" transform="scale(0.015625)"/>
     </defs>
     <use xlink:href="#DejaVuSans-Bold-28"/>
     <use xlink:href="#DejaVuSans-Bold-64" transform="translate(45.703125 0)"/>
     <use xlink:href="#DejaVuSans-Bold-65" transform="translate(117.285156 0)"/>
     <use xlink:href="#DejaVuSans-Bold-6c" transform="translate(185.107422 0)"/>
     <use xlink:href="#DejaVuSans-Bold-74" transform="translate(219.384766 0)"/>
     <use xlink:href="#DejaVuSans-Bold-61" transform="translate(267.1875 0)"/>
     <use xlink:href="#DejaVuSans-Bold-73" transform="translate(334.667969 0)"/>
     <use xlink:href="#DejaVuSans-Bold-29" transform="translate(394.189453 0)"/>
    </g>
   </g>
   <g id="text_5">
    <g id="patch_31">
     <path d="M 232.662857 253.727254 
C 234.51211 253.727254 236.285871 252.992538 237.593491 251.684919 
C 238.90111 250.3773 239.635826 248.603539 239.635826 246.754286 
C 239.635826 244.905033 238.90111 243.131272 237.593491 241.823652 
C 236.285871 240.516033 234.51211 239.781317 232.662857 239.781317 
C 230.813604 239.781317 229.039843 240.516033 227.732224 241.823652 
C 226.424604 243.131272 225.689888 244.905033 225.689888 246.754286 
C 225.689888 248.603539 226.424604 250.3773 227.732224 251.684919 
C 229.039843 252.992538 230.813604 253.727254 232.662857 253.727254 
z
" style="fill: #e17055"/>
    </g>
    <!-- ① -->
    <g style="fill: #ffffff" transform="translate(228.005904 249.789598) scale(0.11 -0.11)">
     <defs>
      <path id="DejaVuSans-Bold-2460" d="M 5044 2241 
Q 5044 1269 4361 587 
Q 3678 -94 2706 -94 
Q 1741 -94 1058 587 
Q 375 1269 375 2241 
Q 375 2847 689 3409 
Q 1003 3972 1564 4273 
Q 2125 4575 2706 4575 
Q 3297 4575 3858 4273 
Q 4419 3972 4731 3412 
Q 5044 2853 5044 2241 
z
M 2706 4325 
Q 2188 4325 1686 4056 
Q 1184 3788 904 3284 
Q 625 2781 625 2241 
Q 625 1375 1236 765 
Q 1847 156 2706 156 
Q 3572 156 4183 765 
Q 4794 1375 4794 2241 
Q 4794 2788 4516 3288 
Q 4238 3788 3736 4056 
Q 3234 4325 2706 4325 
z
M 1572 1603 
L 2275 1603 
L 2275 3272 
L 1553 3138 
L 1553 3756 
L 2341 3903 
L 3181 3903 
L 3181 1603 
L 3881 1603 
L 3881 978 
L 1572 978 
L 1572 1603 
z
" transform="scale(0.015625)"/>
     </defs>
     <use xlink:href="#DejaVuSans-Bold-2460"/>
    </g>
   </g>
   <g id="text_6">
    <g id="patch_32">
     <path d="M 535.628571 253.727254 
C 537.477824 253.727254 539.251586 252.992538 540.559205 251.684919 
C 541.866824 250.3773 542.60154 248.603539 542.60154 246.754286 
C 542.60154 244.905033 541.866824 243.131272 540.559205 241.823652 
C 539.251586 240.516033 537.477824 239.781317 535.628571 239.781317 
C 533.779318 239.781317 532.005557 240.516033 530.697938 241.823652 
C 529.390319 243.131272 528.655603 244.905033 528.655603 246.754286 
C 528.655603 248.603539 529.390319 250.3773 530.697938 251.684919 
C 532.005557 252.992538 533.779318 253.727254 535.628571 253.727254 
z
" style="fill: #e17055"/>
    </g>
    <!-- ② -->
    <g style="fill: #ffffff" transform="translate(530.971618 249.789598) scale(0.11 -0.11)">
     <defs>
      <path id="DejaVuSans-Bold-2461" d="M 5044 2241 
Q 5044 1269 4361 587 
Q 3678 -94 2706 -94 
Q 1741 -94 1058 587 
Q 375 1269 375 2241 
Q 375 2847 689 3409 
Q 1003 3972 1564 4273 
Q 2125 4575 2706 4575 
Q 3297 4575 3858 4273 
Q 4419 3972 4731 3412 
Q 5044 2853 5044 2241 
z
M 2706 4325 
Q 2188 4325 1686 4056 
Q 1184 3788 904 3284 
Q 625 2781 625 2241 
Q 625 1375 1236 765 
Q 1847 156 2706 156 
Q 3572 156 4183 765 
Q 4794 1375 4794 2241 
Q 4794 2788 4516 3288 
Q 4238 3788 3736 4056 
Q 3234 4325 2706 4325 
z
M 2747 1578 
L 3994 1578 
L 3994 922 
L 1597 922 
L 1597 1541 
L 2744 2463 
Q 2888 2578 2953 2684 
Q 3019 2791 3019 2906 
Q 3019 3078 2895 3179 
Q 2772 3281 2563 3281 
Q 2394 3281 2183 3212 
Q 1972 3144 1606 2934 
L 1606 3713 
Q 1931 3813 2200 3855 
Q 2469 3897 2728 3897 
Q 3309 3897 3640 3658 
Q 3972 3419 3972 2997 
Q 3972 2753 3834 2543 
Q 3697 2334 3272 1997 
L 2747 1578 
z
" transform="scale(0.015625)"/>
     </defs>
     <use xlink:href="#DejaVuSans-Bold-2461"/>
    </g>
   </g>
   <g id="text_7">
    <g id="patch_33">
     <path d="M 796.32 253.727254 
C 798.169253 253.727254 799.943014 252.992538 801.250633 251.684919 
C 802.558253 250.3773 803.292969 248.603539 803.292969 246.754286 
C 803.292969 244.905033 802.558253 243.131272 801.250633 241.823652 
C 799.943014 240.516033 798.169253 239.781317 796.32 239.781317 
C 794.470747 239.781317 792.696986 240.516033 791.389367 241.823652 
C 790.081747 243.131272 789.347031 244.905033 789.347031 246.754286 
C 789.347031 248.603539 790.081747 250.3773 791.389367 251.684919 
C 792.696986 252.992538 794.470747 253.727254 796.32 253.727254 
z
" style="fill: #e17055"/>
    </g>
    <!-- ③ -->
    <g style="fill: #ffffff" transform="translate(791.663047 249.789598) scale(0.11 -0.11)">
     <defs>
      <path id="DejaVuSans-Bold-2462" d="M 5044 2241 
Q 5044 1269 4361 587 
Q 3678 -94 2706 -94 
Q 1741 -94 1058 587 
Q 375 1269 375 2241 
Q 375 2847 689 3409 
Q 1003 3972 1564 4273 
Q 2125 4575 2706 4575 
Q 3297 4575 3858 4273 
Q 4419 3972 4731 3412 
Q 5044 2853 5044 2241 
z
M 2706 4325 
Q 2188 4325 1686 4056 
Q 1184 3788 904 3284 
Q 625 2781 625 2241 
Q 625 1375 1236 765 
Q 1847 156 2706 156 
Q 3572 156 4183 765 
Q 4794 1375 4794 2241 
Q 4794 2788 4516 3288 
Q 4238 3788 3736 4056 
Q 3234 4325 2706 4325 
z
M 3622 2494 
Q 3700 2475 3878 2276 
Q 4056 2078 4056 1781 
Q 4056 1334 3679 1101 
Q 3303 869 2603 869 
Q 2359 869 2115 905 
Q 1872 941 1578 1025 
L 1578 1734 
Q 1909 1584 2120 1534 
Q 2331 1484 2531 1484 
Q 2822 1484 2964 1568 
Q 3106 1653 3106 1806 
Q 3106 1966 2961 2048 
Q 2816 2131 2503 2131 
L 2106 2131 
L 2106 2722 
L 2519 2722 
Q 2794 2722 2914 2792 
Q 3034 2863 3034 3006 
Q 3034 3134 2917 3207 
Q 2800 3281 2569 3281 
Q 2384 3281 2196 3242 
Q 2009 3203 1713 3088 
L 1713 3759 
Q 2006 3838 2243 3867 
Q 2481 3897 2709 3897 
Q 3334 3897 3659 3703 
Q 3984 3509 3984 3119 
Q 3984 2853 3826 2678 
Q 3669 2503 3622 2494 
z
" transform="scale(0.015625)"/>
     </defs>
     <use xlink:href="#DejaVuSans-Bold-2462"/>
    </g>
   </g>
   <g id="text_8">
    <g id="patch_34">
     <path d="M 725.862857 606.012969 
C 727.71211 606.012969 729.485871 605.278253 730.793491 603.970633 
C 732.10111 602.663014 732.835826 600.889253 732.835826 599.04 
C 732.835826 597.190747 732.10111 595.416986 730.793491 594.109367 
C 729.485871 592.801747 727.71211 592.067031 725.862857 592.067031 
C 724.013604 592.067031 722.239843 592.801747 720.932224 594.109367 
C 719.624604 595.416986 718.889888 597.190747 718.889888 599.04 
C 718.889888 600.889253 719.624604 602.663014 720.932224 603.970633 
C 722.239843 605.278253 724.013604 606.012969 725.862857 606.012969 
z
" style="fill: #e17055"/>
    </g>
    <!-- ④ -->
    <g style="fill: #ffffff" transform="translate(721.205904 602.075313) scale(0.11 -0.11)">
     <defs>
      <path id="DejaVuSans-Bold-2463" d="M 5044 2241 
Q 5044 1269 4361 587 
Q 3678 -94 2706 -94 
Q 1741 -94 1058 587 
Q 375 1269 375 2241 
Q 375 2847 689 3409 
Q 1003 3972 1564 4273 
Q 2125 4575 2706 4575 
Q 3297 4575 3858 4273 
Q 4419 3972 4731 3412 
Q 5044 2853 5044 2241 
z
M 2706 4325 
Q 2188 4325 1686 4056 
Q 1184 3788 904 3284 
Q 625 2781 625 2241 
Q 625 1375 1236 765 
Q 1847 156 2706 156 
Q 3572 156 4183 765 
Q 4794 1375 4794 2241 
Q 4794 2788 4516 3288 
Q 4238 3788 3736 4056 
Q 3234 4325 2706 4325 
z
M 2634 3003 
L 1978 2122 
L 2634 2122 
L 2634 3003 
z
M 2534 3888 
L 3541 3888 
L 3541 2122 
L 3978 2122 
L 3978 1472 
L 3541 1472 
L 3541 963 
L 2634 963 
L 2634 1472 
L 1269 1472 
L 1269 2169 
L 2534 3888 
z
" transform="scale(0.015625)"/>
     </defs>
     <use xlink:href="#DejaVuSans-Bold-2463"/>
    </g>
   </g>
   <g id="text_9">
    <g id="patch_35">
     <path d="M 444.034286 606.012969 
C 445.883539 606.012969 447.6573 605.278253 448.964919 603.970633 
C 450.272538 602.663014 451.007254 600.889253 451.007254 599.04 
C 451.007254 597.190747 450.272538 595.416986 448.964919 594.109367 
C 447.6573 592.801747 445.883539 592.067031 444.034286 592.067031 
C 442.185033 592.067031 440.411272 592.801747 439.103652 594.109367 
C 437.796033 595.416986 437.061317 597.190747 437.061317 599.04 
C 437.061317 600.889253 437.796033 602.663014 439.103652 603.970633 
C 440.411272 605.278253 442.185033 606.012969 444.034286 606.012969 
z
" style="fill: #e17055"/>
    </g>
    <!-- ⑤ -->
    <g style="fill: #ffffff" transform="translate(439.377333 602.075313) scale(0.11 -0.11)">
     <defs>
      <path id="DejaVuSans-Bold-2464" d="M 5044 2241 
Q 5044 1269 4361 587 
Q 3678 -94 2706 -94 
Q 1741 -94 1058 587 
Q 375 1269 375 2241 
Q 375 2847 689 3409 
Q 1003 3972 1564 4273 
Q 2125 4575 2706 4575 
Q 3297 4575 3858 4273 
Q 4419 3972 4731 3412 
Q 5044 2853 5044 2241 
z
M 2706 4325 
Q 2188 4325 1686 4056 
Q 1184 3788 904 3284 
Q 625 2781 625 2241 
Q 625 1375 1236 765 
Q 1847 156 2706 156 
Q 3572 156 4183 765 
Q 4794 1375 4794 2241 
Q 4794 2788 4516 3288 
Q 4238 3788 3736 4056 
Q 3234 4325 2706 4325 
z
M 1650 3763 
L 3781 3763 
L 3781 3106 
L 2441 3106 
L 2441 2819 
Q 2434 2819 2532 2831 
Q 2631 2844 2734 2844 
Q 3331 2844 3667 2570 
Q 4003 2297 4003 1813 
Q 4003 1334 3637 1059 
Q 3272 784 2638 784 
Q 2366 784 2102 831 
Q 1838 878 1528 991 
L 1528 1716 
Q 1894 1525 2109 1462 
Q 2325 1400 2509 1400 
Q 2769 1400 2911 1509 
Q 3053 1619 3053 1813 
Q 3053 2009 2911 2118 
Q 2769 2228 2509 2228 
Q 2350 2228 2164 2189 
Q 1978 2150 1650 2025 
L 1650 3763 
z
" transform="scale(0.015625)"/>
     </defs>
     <use xlink:href="#DejaVuSans-Bold-2464"/>
    </g>
   </g>
   <g id="text_10">
    <g id="patch_36">
     <path d="M 556.765714 824.430112 
C 558.614967 824.430112 560.388728 823.695396 561.696348 822.387776 
C 563.003967 821.080157 563.738683 819.306396 563.738683 817.457143 
C 563.738683 815.60789 563.003967 813.834129 561.696348 812.526509 
C 560.388728 811.21889 558.614967 810.484174 556.765714 810.484174 
C 554.916461 810.484174 553.1427 811.21889 551.835081 812.526509 
C 550.527462 813.834129 549.792746 815.60789 549.792746 817.457143 
C 549.792746 819.306396 550.527462 821.080157 551.835081 822.387776 
C 553.1427 823.695396 554.916461 824.430112 556.765714 824.430112 
z
" style="fill: #e17055"/>
    </g>
    <!-- ⑥ -->
    <g style="fill: #ffffff" transform="translate(552.108761 820.492455) scale(0.11 -0.11)">
     <defs>
      <path id="DejaVuSans-Bold-2465" d="M 5044 2241 
Q 5044 1269 4361 587 
Q 3678 -94 2706 -94 
Q 1741 -94 1058 587 
Q 375 1269 375 2241 
Q 375 2847 689 3409 
Q 1003 3972 1564 4273 
Q 2125 4575 2706 4575 
Q 3297 4575 3858 4273 
Q 4419 3972 4731 3412 
Q 5044 2853 5044 2241 
z
M 2706 4325 
Q 2188 4325 1686 4056 
Q 1184 3788 904 3284 
Q 625 2781 625 2241 
Q 625 1375 1236 765 
Q 1847 156 2706 156 
Q 3572 156 4183 765 
Q 4794 1375 4794 2241 
Q 4794 2788 4516 3288 
Q 4238 3788 3736 4056 
Q 3234 4325 2706 4325 
z
M 2747 2291 
Q 2578 2291 2493 2191 
Q 2409 2091 2409 1863 
Q 2409 1634 2493 1534 
Q 2578 1434 2747 1434 
Q 2916 1434 3002 1534 
Q 3088 1634 3088 1863 
Q 3088 2091 3002 2191 
Q 2916 2291 2747 2291 
z
M 3806 3741 
L 3806 3075 
Q 3503 3206 3339 3245 
Q 3175 3284 3022 3284 
Q 2700 3284 2523 3123 
Q 2347 2963 2328 2778 
Q 2334 2781 2506 2831 
Q 2678 2881 2878 2881 
Q 3384 2881 3696 2611 
Q 4009 2341 4009 1909 
Q 4009 1434 3662 1145 
Q 3316 856 2738 856 
Q 2100 856 1751 1245 
Q 1403 1634 1403 2331 
Q 1403 3047 1808 3464 
Q 2213 3881 2919 3881 
Q 3141 3881 3347 3850 
Q 3553 3819 3806 3741 
z
" transform="scale(0.015625)"/>
     </defs>
     <use xlink:href="#DejaVuSans-Bold-2465"/>
    </g>
   </g>
   <g id="text_11">
    <!-- User -->
    <g style="fill: #ffffff" transform="translate(101.282042 291.512009) scale(0.09 -0.09)">
     <defs>
      <path id="DejaVuSans-Bold-55" d="M 588 4666 
L 1791 4666 
L 1791 1869 
Q 1791 1291 1980 1042 
Q 2169 794 2597 794 
Q 3028 794 3217 1042 
Q 3406 1291 3406 1869 
L 3406 4666 
L 4609 4666 
L 4609 1869 
Q 4609 878 4112 393 
Q 3616 -91 2597 -91 
Q 1581 -91 1084 393 
Q 588 878 588 1869 
L 588 4666 
z
" transform="scale(0.015625)"/>
     </defs>
     <use xlink:href="#DejaVuSans-Bold-55"/>
     <use xlink:href="#DejaVuSans-Bold-73" transform="translate(81.201172 0)"/>
     <use xlink:href="#DejaVuSans-Bold-65" transform="translate(140.722656 0)"/>
     <use xlink:href="#DejaVuSans-Bold-72" transform="translate(208.544922 0)"/>
    </g>
   </g>
   <g id="text_12">
    <!-- Channel Adapter -->
    <g style="fill: #ffffff" transform="translate(281.762377 286.437837) scale(0.09 -0.09)">
     <defs>
      <path id="DejaVuSans-Bold-43" d="M 4288 256 
Q 3956 84 3597 -3 
Q 3238 -91 2847 -91 
Q 1681 -91 1000 561 
Q 319 1213 319 2328 
Q 319 3447 1000 4098 
Q 1681 4750 2847 4750 
Q 3238 4750 3597 4662 
Q 3956 4575 4288 4403 
L 4288 3438 
Q 3953 3666 3628 3772 
Q 3303 3878 2944 3878 
Q 2300 3878 1931 3465 
Q 1563 3053 1563 2328 
Q 1563 1606 1931 1193 
Q 2300 781 2944 781 
Q 3303 781 3628 887 
Q 3953 994 4288 1222 
L 4288 256 
z
" transform="scale(0.015625)"/>
      <path id="DejaVuSans-Bold-68" d="M 4056 2131 
L 4056 0 
L 2931 0 
L 2931 347 
L 2931 1625 
Q 2931 2084 2911 2256 
Q 2891 2428 2841 2509 
Q 2775 2619 2662 2680 
Q 2550 2741 2406 2741 
Q 2056 2741 1856 2470 
Q 1656 2200 1656 1722 
L 1656 0 
L 538 0 
L 538 4863 
L 1656 4863 
L 1656 2988 
Q 1909 3294 2193 3439 
Q 2478 3584 2822 3584 
Q 3428 3584 3742 3212 
Q 4056 2841 4056 2131 
z
" transform="scale(0.015625)"/>
      <path id="DejaVuSans-Bold-41" d="M 3419 850 
L 1538 850 
L 1241 0 
L 31 0 
L 1759 4666 
L 3194 4666 
L 4922 0 
L 3713 0 
L 3419 850 
z
M 1838 1716 
L 3116 1716 
L 2478 3572 
L 1838 1716 
z
" transform="scale(0.015625)"/>
      <path id="DejaVuSans-Bold-70" d="M 1656 506 
L 1656 -1331 
L 538 -1331 
L 538 3500 
L 1656 3500 
L 1656 2988 
Q 1888 3294 2169 3439 
Q 2450 3584 2816 3584 
Q 3463 3584 3878 3070 
Q 4294 2556 4294 1747 
Q 4294 938 3878 423 
Q 3463 -91 2816 -91 
Q 2450 -91 2169 54 
Q 1888 200 1656 506 
z
M 2400 2772 
Q 2041 2772 1848 2508 
Q 1656 2244 1656 1747 
Q 1656 1250 1848 986 
Q 2041 722 2400 722 
Q 2759 722 2948 984 
Q 3138 1247 3138 1747 
Q 3138 2247 2948 2509 
Q 2759 2772 2400 2772 
z
" transform="scale(0.015625)"/>
     </defs>
     <use xlink:href="#DejaVuSans-Bold-43"/>
     <use xlink:href="#DejaVuSans-Bold-68" transform="translate(73.388672 0)"/>
     <use xlink:href="#DejaVuSans-Bold-61" transform="translate(144.580078 0)"/>
     <use xlink:href="#DejaVuSans-Bold-6e" transform="translate(212.060547 0)"/>
     <use xlink:href="#DejaVuSans-Bold-6e" transform="translate(283.251953 0)"/>
     <use xlink:href="#DejaVuSans-Bold-65" transform="translate(354.443359 0)"/>
     <use xlink:href="#DejaVuSans-Bold-6c" transform="translate(422.265625 0)"/>
     <use xlink:href="#DejaVuSans-Bold-20" transform="translate(456.542969 0)"/>
     <use xlink:href="#DejaVuSans-Bold-41" transform="translate(491.357422 0)"/>
     <use xlink:href="#DejaVuSans-Bold-64" transform="translate(568.75 0)"/>
     <use xlink:href="#DejaVuSans-Bold-61" transform="translate(640.332031 0)"/>
     <use xlink:href="#DejaVuSans-Bold-70" transform="translate(707.8125 0)"/>
     <use xlink:href="#DejaVuSans-Bold-74" transform="translate(779.394531 0)"/>
     <use xlink:href="#DejaVuSans-Bold-65" transform="translate(827.197266 0)"/>
     <use xlink:href="#DejaVuSans-Bold-72" transform="translate(895.019531 0)"/>
    </g>
    <!-- (Telegram/Discord/...) -->
    <g style="fill: #ffffff" transform="translate(269.285424 296.515868) scale(0.09 -0.09)">
     <defs>
      <path id="DejaVuSans-Bold-2f" d="M 1644 4666 
L 2338 4666 
L 691 -594 
L 0 -594 
L 1644 4666 
z
" transform="scale(0.015625)"/>
      <path id="DejaVuSans-Bold-63" d="M 3366 3391 
L 3366 2478 
Q 3138 2634 2908 2709 
Q 2678 2784 2431 2784 
Q 1963 2784 1702 2511 
Q 1441 2238 1441 1747 
Q 1441 1256 1702 982 
Q 1963 709 2431 709 
Q 2694 709 2930 787 
Q 3166 866 3366 1019 
L 3366 103 
Q 3103 6 2833 -42 
Q 2563 -91 2291 -91 
Q 1344 -91 809 395 
Q 275 881 275 1747 
Q 275 2613 809 3098 
Q 1344 3584 2291 3584 
Q 2566 3584 2833 3536 
Q 3100 3488 3366 3391 
z
" transform="scale(0.015625)"/>
      <path id="DejaVuSans-Bold-2e" d="M 653 1209 
L 1778 1209 
L 1778 0 
L 653 0 
L 653 1209 
z
" transform="scale(0.015625)"/>
     </defs>
     <use xlink:href="#DejaVuSans-Bold-28"/>
     <use xlink:href="#DejaVuSans-Bold-54" transform="translate(45.703125 0)"/>
     <use xlink:href="#DejaVuSans-Bold-65" transform="translate(100.666016 0)"/>
     <use xlink:href="#DejaVuSans-Bold-6c" transform="translate(168.488281 0)"/>
     <use xlink:href="#DejaVuSans-Bold-65" transform="translate(202.765625 0)"/>
     <use xlink:href="#DejaVuSans-Bold-67" transform="translate(270.587891 0)"/>
     <use xlink:href="#DejaVuSans-Bold-72" transform="translate(342.169922 0)"/>
     <use xlink:href="#DejaVuSans-Bold-61" transform="translate(391.486328 0)"/>
     <use xlink:href="#DejaVuSans-Bold-6d" transform="translate(458.966797 0)"/>
     <use xlink:href="#DejaVuSans-Bold-2f" transform="translate(563.166016 0)"/>
     <use xlink:href="#DejaVuSans-Bold-44" transform="translate(599.689453 0)"/>
     <use xlink:href="#DejaVuSans-Bold-69" transform="translate(682.697266 0)"/>
     <use xlink:href="#DejaVuSans-Bold-73" transform="translate(716.974609 0)"/>
     <use xlink:href="#DejaVuSans-Bold-63" transform="translate(776.496094 0)"/>
     <use xlink:href="#DejaVuSans-Bold-6f" transform="translate(835.773438 0)"/>
     <use xlink:href="#DejaVuSans-Bold-72" transform="translate(904.474609 0)"/>
     <use xlink:href="#DejaVuSans-Bold-64" transform="translate(953.791016 0)"/>
     <use xlink:href="#DejaVuSans-Bold-2f" transform="translate(1025.373047 0)"/>
     <use xlink:href="#DejaVuSans-Bold-2e" transform="translate(1061.896484 0)"/>
     <use xlink:href="#DejaVuSans-Bold-2e" transform="translate(1099.884766 0)"/>
     <use xlink:href="#DejaVuSans-Bold-2e" transform="translate(1137.873047 0)"/>
     <use xlink:href="#DejaVuSans-Bold-29" transform="translate(1175.861328 0)"/>
    </g>
   </g>
   <g id="text_13">
    <!-- MessageBus.inbound -->
    <g style="fill: #ffffff" transform="translate(587.409911 286.402681) scale(0.09 -0.09)">
     <defs>
      <path id="DejaVuSans-Bold-4d" d="M 588 4666 
L 2119 4666 
L 3181 2169 
L 4250 4666 
L 5778 4666 
L 5778 0 
L 4641 0 
L 4641 3413 
L 3566 897 
L 2803 897 
L 1728 3413 
L 1728 0 
L 588 0 
L 588 4666 
z
" transform="scale(0.015625)"/>
      <path id="DejaVuSans-Bold-42" d="M 2456 2859 
Q 2741 2859 2887 2984 
Q 3034 3109 3034 3353 
Q 3034 3594 2887 3720 
Q 2741 3847 2456 3847 
L 1791 3847 
L 1791 2859 
L 2456 2859 
z
M 2497 819 
Q 2859 819 3042 972 
Q 3225 1125 3225 1434 
Q 3225 1738 3044 1889 
Q 2863 2041 2497 2041 
L 1791 2041 
L 1791 819 
L 2497 819 
z
M 3616 2497 
Q 4003 2384 4215 2081 
Q 4428 1778 4428 1338 
Q 4428 663 3972 331 
Q 3516 0 2584 0 
L 588 0 
L 588 4666 
L 2394 4666 
Q 3366 4666 3802 4372 
Q 4238 4078 4238 3431 
Q 4238 3091 4078 2852 
Q 3919 2613 3616 2497 
z
" transform="scale(0.015625)"/>
      <path id="DejaVuSans-Bold-62" d="M 2400 722 
Q 2759 722 2948 984 
Q 3138 1247 3138 1747 
Q 3138 2247 2948 2509 
Q 2759 2772 2400 2772 
Q 2041 2772 1848 2508 
Q 1656 2244 1656 1747 
Q 1656 1250 1848 986 
Q 2041 722 2400 722 
z
M 1656 2988 
Q 1888 3294 2169 3439 
Q 2450 3584 2816 3584 
Q 3463 3584 3878 3070 
Q 4294 2556 4294 1747 
Q 4294 938 3878 423 
Q 3463 -91 2816 -91 
Q 2450 -91 2169 54 
Q 1888 200 1656 506 
L 1656 0 
L 538 0 
L 538 4863 
L 1656 4863 
L 1656 2988 
z
" transform="scale(0.015625)"/>
     </defs>
     <use xlink:href="#DejaVuSans-Bold-4d"/>
     <use xlink:href="#DejaVuSans-Bold-65" transform="translate(99.511719 0)"/>
     <use xlink:href="#DejaVuSans-Bold-73" transform="translate(167.333984 0)"/>
     <use xlink:href="#DejaVuSans-Bold-73" transform="translate(226.855469 0)"/>
     <use xlink:href="#DejaVuSans-Bold-61" transform="translate(286.376953 0)"/>
     <use xlink:href="#DejaVuSans-Bold-67" transform="translate(353.857422 0)"/>
     <use xlink:href="#DejaVuSans-Bold-65" transform="translate(425.439453 0)"/>
     <use xlink:href="#DejaVuSans-Bold-42" transform="translate(493.261719 0)"/>
     <use xlink:href="#DejaVuSans-Bold-75" transform="translate(569.482422 0)"/>
     <use xlink:href="#DejaVuSans-Bold-73" transform="translate(640.673828 0)"/>
     <use xlink:href="#DejaVuSans-Bold-2e" transform="translate(700.195312 0)"/>
     <use xlink:href="#DejaVuSans-Bold-69" transform="translate(738.183594 0)"/>
     <use xlink:href="#DejaVuSans-Bold-6e" transform="translate(772.460938 0)"/>
     <use xlink:href="#DejaVuSans-Bold-62" transform="translate(843.652344 0)"/>
     <use xlink:href="#DejaVuSans-Bold-6f" transform="translate(915.234375 0)"/>
     <use xlink:href="#DejaVuSans-Bold-75" transform="translate(983.935547 0)"/>
     <use xlink:href="#DejaVuSans-Bold-6e" transform="translate(1055.126953 0)"/>
     <use xlink:href="#DejaVuSans-Bold-64" transform="translate(1126.318359 0)"/>
    </g>
    <!-- (asyncio.Queue) -->
    <g style="fill: #ffffff" transform="translate(600.00077 296.551025) scale(0.09 -0.09)">
     <defs>
      <path id="DejaVuSans-Bold-79" d="M 78 3500 
L 1197 3500 
L 2138 1125 
L 2938 3500 
L 4056 3500 
L 2584 -331 
Q 2363 -916 2067 -1148 
Q 1772 -1381 1288 -1381 
L 641 -1381 
L 641 -647 
L 991 -647 
Q 1275 -647 1404 -556 
Q 1534 -466 1606 -231 
L 1638 -134 
L 78 3500 
z
" transform="scale(0.015625)"/>
      <path id="DejaVuSans-Bold-51" d="M 2847 -84 
L 2753 -84 
Q 1600 -84 959 553 
Q 319 1191 319 2328 
Q 319 3463 958 4106 
Q 1597 4750 2719 4750 
Q 3853 4750 4486 4112 
Q 5119 3475 5119 2328 
Q 5119 1541 4783 972 
Q 4447 403 3816 116 
L 4756 -934 
L 3609 -934 
L 2847 -84 
z
M 2719 3878 
Q 2169 3878 1866 3472 
Q 1563 3066 1563 2328 
Q 1563 1578 1859 1179 
Q 2156 781 2719 781 
Q 3272 781 3575 1187 
Q 3878 1594 3878 2328 
Q 3878 3066 3575 3472 
Q 3272 3878 2719 3878 
z
" transform="scale(0.015625)"/>
     </defs>
     <use xlink:href="#DejaVuSans-Bold-28"/>
     <use xlink:href="#DejaVuSans-Bold-61" transform="translate(45.703125 0)"/>
     <use xlink:href="#DejaVuSans-Bold-73" transform="translate(113.183594 0)"/>
     <use xlink:href="#DejaVuSans-Bold-79" transform="translate(172.705078 0)"/>
     <use xlink:href="#DejaVuSans-Bold-6e" transform="translate(237.890625 0)"/>
     <use xlink:href="#DejaVuSans-Bold-63" transform="translate(309.082031 0)"/>
     <use xlink:href="#DejaVuSans-Bold-69" transform="translate(368.359375 0)"/>
     <use xlink:href="#DejaVuSans-Bold-6f" transform="translate(402.636719 0)"/>
     <use xlink:href="#DejaVuSans-Bold-2e" transform="translate(471.337891 0)"/>
     <use xlink:href="#DejaVuSans-Bold-51" transform="translate(509.326172 0)"/>
     <use xlink:href="#DejaVuSans-Bold-75" transform="translate(594.335938 0)"/>
     <use xlink:href="#DejaVuSans-Bold-65" transform="translate(665.527344 0)"/>
     <use xlink:href="#DejaVuSans-Bold-75" transform="translate(733.349609 0)"/>
     <use xlink:href="#DejaVuSans-Bold-65" transform="translate(804.541016 0)"/>
     <use xlink:href="#DejaVuSans-Bold-29" transform="translate(872.363281 0)"/>
    </g>
   </g>
   <g id="text_14">
    <!-- AgentLoop.process -->
    <g style="fill: #ffffff" transform="translate(909.672288 286.367525) scale(0.09 -0.09)">
     <defs>
      <path id="DejaVuSans-Bold-4c" d="M 588 4666 
L 1791 4666 
L 1791 909 
L 3903 909 
L 3903 0 
L 588 0 
L 588 4666 
z
" transform="scale(0.015625)"/>
     </defs>
     <use xlink:href="#DejaVuSans-Bold-41"/>
     <use xlink:href="#DejaVuSans-Bold-67" transform="translate(77.392578 0)"/>
     <use xlink:href="#DejaVuSans-Bold-65" transform="translate(148.974609 0)"/>
     <use xlink:href="#DejaVuSans-Bold-6e" transform="translate(216.796875 0)"/>
     <use xlink:href="#DejaVuSans-Bold-74" transform="translate(287.988281 0)"/>
     <use xlink:href="#DejaVuSans-Bold-4c" transform="translate(335.791016 0)"/>
     <use xlink:href="#DejaVuSans-Bold-6f" transform="translate(399.511719 0)"/>
     <use xlink:href="#DejaVuSans-Bold-6f" transform="translate(468.212891 0)"/>
     <use xlink:href="#DejaVuSans-Bold-70" transform="translate(536.914062 0)"/>
     <use xlink:href="#DejaVuSans-Bold-2e" transform="translate(608.496094 0)"/>
     <use xlink:href="#DejaVuSans-Bold-70" transform="translate(646.484375 0)"/>
     <use xlink:href="#DejaVuSans-Bold-72" transform="translate(718.066406 0)"/>
     <use xlink:href="#DejaVuSans-Bold-6f" transform="translate(767.382812 0)"/>
     <use xlink:href="#DejaVuSans-Bold-63" transform="translate(836.083984 0)"/>
     <use xlink:href="#DejaVuSans-Bold-65" transform="translate(895.361328 0)"/>
     <use xlink:href="#DejaVuSans-Bold-73" transform="translate(963.183594 0)"/>
     <use xlink:href="#DejaVuSans-Bold-73" transform="translate(1022.705078 0)"/>
    </g>
    <!-- (Direct Message) -->
    <g style="fill: #ffffff" transform="translate(915.126429 296.515868) scale(0.09 -0.09)">
     <use xlink:href="#DejaVuSans-Bold-28"/>
     <use xlink:href="#DejaVuSans-Bold-44" transform="translate(45.703125 0)"/>
     <use xlink:href="#DejaVuSans-Bold-69" transform="translate(128.710938 0)"/>
     <use xlink:href="#DejaVuSans-Bold-72" transform="translate(162.988281 0)"/>
     <use xlink:href="#DejaVuSans-Bold-65" transform="translate(212.304688 0)"/>
     <use xlink:href="#DejaVuSans-Bold-63" transform="translate(280.126953 0)"/>
     <use xlink:href="#DejaVuSans-Bold-74" transform="translate(339.404297 0)"/>
     <use xlink:href="#DejaVuSans-Bold-20" transform="translate(387.207031 0)"/>
     <use xlink:href="#DejaVuSans-Bold-4d" transform="translate(422.021484 0)"/>
     <use xlink:href="#DejaVuSans-Bold-65" transform="translate(521.533203 0)"/>
     <use xlink:href="#DejaVuSans-Bold-73" transform="translate(589.355469 0)"/>
     <use xlink:href="#DejaVuSans-Bold-73" transform="translate(648.876953 0)"/>
     <use xlink:href="#DejaVuSans-Bold-61" transform="translate(708.398438 0)"/>
     <use xlink:href="#DejaVuSans-Bold-67" transform="translate(775.878906 0)"/>
     <use xlink:href="#DejaVuSans-Bold-65" transform="translate(847.460938 0)"/>
     <use xlink:href="#DejaVuSans-Bold-29" transform="translate(915.283203 0)"/>
    </g>
   </g>
   <g id="text_15">
    <!-- ContextBuilder -->
    <g style="fill: #2d3436" transform="translate(603.249208 457.506522) scale(0.09 -0.09)">
     <defs>
      <path id="DejaVuSans-Bold-78" d="M 1422 1791 
L 159 3500 
L 1344 3500 
L 2059 2463 
L 2784 3500 
L 3969 3500 
L 2706 1797 
L 4031 0 
L 2847 0 
L 2059 1106 
L 1281 0 
L 97 0 
L 1422 1791 
z
" transform="scale(0.015625)"/>
     </defs>
     <use xlink:href="#DejaVuSans-Bold-43"/>
     <use xlink:href="#DejaVuSans-Bold-6f" transform="translate(73.388672 0)"/>
     <use xlink:href="#DejaVuSans-Bold-6e" transform="translate(142.089844 0)"/>
     <use xlink:href="#DejaVuSans-Bold-74" transform="translate(213.28125 0)"/>
     <use xlink:href="#DejaVuSans-Bold-65" transform="translate(261.083984 0)"/>
     <use xlink:href="#DejaVuSans-Bold-78" transform="translate(328.90625 0)"/>
     <use xlink:href="#DejaVuSans-Bold-74" transform="translate(393.408203 0)"/>
     <use xlink:href="#DejaVuSans-Bold-42" transform="translate(441.210938 0)"/>
     <use xlink:href="#DejaVuSans-Bold-75" transform="translate(517.431641 0)"/>
     <use xlink:href="#DejaVuSans-Bold-69" transform="translate(588.623047 0)"/>
     <use xlink:href="#DejaVuSans-Bold-6c" transform="translate(622.900391 0)"/>
     <use xlink:href="#DejaVuSans-Bold-64" transform="translate(657.177734 0)"/>
     <use xlink:href="#DejaVuSans-Bold-65" transform="translate(728.759766 0)"/>
     <use xlink:href="#DejaVuSans-Bold-72" transform="translate(796.582031 0)"/>
    </g>
    <!-- System Prompt + -->
    <g style="fill: #2d3436" transform="translate(596.995614 467.584554) scale(0.09 -0.09)">
     <defs>
      <path id="DejaVuSans-Bold-50" d="M 588 4666 
L 2584 4666 
Q 3475 4666 3951 4270 
Q 4428 3875 4428 3144 
Q 4428 2409 3951 2014 
Q 3475 1619 2584 1619 
L 1791 1619 
L 1791 0 
L 588 0 
L 588 4666 
z
M 1791 3794 
L 1791 2491 
L 2456 2491 
Q 2806 2491 2997 2661 
Q 3188 2831 3188 3144 
Q 3188 3456 2997 3625 
Q 2806 3794 2456 3794 
L 1791 3794 
z
" transform="scale(0.015625)"/>
      <path id="DejaVuSans-Bold-2b" d="M 3053 4013 
L 3053 2375 
L 4684 2375 
L 4684 1638 
L 3053 1638 
L 3053 0 
L 2309 0 
L 2309 1638 
L 678 1638 
L 678 2375 
L 2309 2375 
L 2309 4013 
L 3053 4013 
z
" transform="scale(0.015625)"/>
     </defs>
     <use xlink:href="#DejaVuSans-Bold-53"/>
     <use xlink:href="#DejaVuSans-Bold-79" transform="translate(72.021484 0)"/>
     <use xlink:href="#DejaVuSans-Bold-73" transform="translate(137.207031 0)"/>
     <use xlink:href="#DejaVuSans-Bold-74" transform="translate(196.728516 0)"/>
     <use xlink:href="#DejaVuSans-Bold-65" transform="translate(244.53125 0)"/>
     <use xlink:href="#DejaVuSans-Bold-6d" transform="translate(312.353516 0)"/>
     <use xlink:href="#DejaVuSans-Bold-20" transform="translate(416.552734 0)"/>
     <use xlink:href="#DejaVuSans-Bold-50" transform="translate(451.367188 0)"/>
     <use xlink:href="#DejaVuSans-Bold-72" transform="translate(524.658203 0)"/>
     <use xlink:href="#DejaVuSans-Bold-6f" transform="translate(573.974609 0)"/>
     <use xlink:href="#DejaVuSans-Bold-6d" transform="translate(642.675781 0)"/>
     <use xlink:href="#DejaVuSans-Bold-70" transform="translate(746.875 0)"/>
     <use xlink:href="#DejaVuSans-Bold-74" transform="translate(818.457031 0)"/>
     <use xlink:href="#DejaVuSans-Bold-20" transform="translate(866.259766 0)"/>
     <use xlink:href="#DejaVuSans-Bold-2b" transform="translate(901.074219 0)"/>
    </g>
    <!-- Memory + Skills -->
    <g style="fill: #2d3436" transform="translate(600.407176 477.732897) scale(0.09 -0.09)">
     <defs>
      <path id="DejaVuSans-Bold-6b" d="M 538 4863 
L 1656 4863 
L 1656 2216 
L 2944 3500 
L 4244 3500 
L 2534 1894 
L 4378 0 
L 3022 0 
L 1656 1459 
L 1656 0 
L 538 0 
L 538 4863 
z
" transform="scale(0.015625)"/>
     </defs>
     <use xlink:href="#DejaVuSans-Bold-4d"/>
     <use xlink:href="#DejaVuSans-Bold-65" transform="translate(99.511719 0)"/>
     <use xlink:href="#DejaVuSans-Bold-6d" transform="translate(167.333984 0)"/>
     <use xlink:href="#DejaVuSans-Bold-6f" transform="translate(271.533203 0)"/>
     <use xlink:href="#DejaVuSans-Bold-72" transform="translate(340.234375 0)"/>
     <use xlink:href="#DejaVuSans-Bold-79" transform="translate(389.550781 0)"/>
     <use xlink:href="#DejaVuSans-Bold-20" transform="translate(454.736328 0)"/>
     <use xlink:href="#DejaVuSans-Bold-2b" transform="translate(489.550781 0)"/>
     <use xlink:href="#DejaVuSans-Bold-20" transform="translate(573.339844 0)"/>
     <use xlink:href="#DejaVuSans-Bold-53" transform="translate(608.154297 0)"/>
     <use xlink:href="#DejaVuSans-Bold-6b" transform="translate(680.175781 0)"/>
     <use xlink:href="#DejaVuSans-Bold-69" transform="translate(746.679688 0)"/>
     <use xlink:href="#DejaVuSans-Bold-6c" transform="translate(780.957031 0)"/>
     <use xlink:href="#DejaVuSans-Bold-6c" transform="translate(815.234375 0)"/>
     <use xlink:href="#DejaVuSans-Bold-73" transform="translate(849.511719 0)"/>
    </g>
   </g>
   <g id="text_16">
    <!-- ToolRegistry -->
    <g style="fill: #2d3436" transform="translate(926.909397 457.506522) scale(0.09 -0.09)">
     <use xlink:href="#DejaVuSans-Bold-54"/>
     <use xlink:href="#DejaVuSans-Bold-6f" transform="translate(54.962891 0)"/>
     <use xlink:href="#DejaVuSans-Bold-6f" transform="translate(123.664062 0)"/>
     <use xlink:href="#DejaVuSans-Bold-6c" transform="translate(192.365234 0)"/>
     <use xlink:href="#DejaVuSans-Bold-52" transform="translate(226.642578 0)"/>
     <use xlink:href="#DejaVuSans-Bold-65" transform="translate(303.644531 0)"/>
     <use xlink:href="#DejaVuSans-Bold-67" transform="translate(371.466797 0)"/>
     <use xlink:href="#DejaVuSans-Bold-69" transform="translate(443.048828 0)"/>
     <use xlink:href="#DejaVuSans-Bold-73" transform="translate(477.326172 0)"/>
     <use xlink:href="#DejaVuSans-Bold-74" transform="translate(536.847656 0)"/>
     <use xlink:href="#DejaVuSans-Bold-72" transform="translate(584.650391 0)"/>
     <use xlink:href="#DejaVuSans-Bold-79" transform="translate(633.966797 0)"/>
    </g>
    <!-- Available Tools -->
    <g style="fill: #2d3436" transform="translate(920.699397 467.654866) scale(0.09 -0.09)">
     <defs>
      <path id="DejaVuSans-Bold-76" d="M 97 3500 
L 1216 3500 
L 2088 1081 
L 2956 3500 
L 4078 3500 
L 2700 0 
L 1472 0 
L 97 3500 
z
" transform="scale(0.015625)"/>
     </defs>
     <use xlink:href="#DejaVuSans-Bold-41"/>
     <use xlink:href="#DejaVuSans-Bold-76" transform="translate(73.767578 0)"/>
     <use xlink:href="#DejaVuSans-Bold-61" transform="translate(138.953125 0)"/>
     <use xlink:href="#DejaVuSans-Bold-69" transform="translate(206.433594 0)"/>
     <use xlink:href="#DejaVuSans-Bold-6c" transform="translate(240.710938 0)"/>
     <use xlink:href="#DejaVuSans-Bold-61" transform="translate(274.988281 0)"/>
     <use xlink:href="#DejaVuSans-Bold-62" transform="translate(342.46875 0)"/>
     <use xlink:href="#DejaVuSans-Bold-6c" transform="translate(414.050781 0)"/>
     <use xlink:href="#DejaVuSans-Bold-65" transform="translate(448.328125 0)"/>
     <use xlink:href="#DejaVuSans-Bold-20" transform="translate(516.150391 0)"/>
     <use xlink:href="#DejaVuSans-Bold-54" transform="translate(550.964844 0)"/>
     <use xlink:href="#DejaVuSans-Bold-6f" transform="translate(605.927734 0)"/>
     <use xlink:href="#DejaVuSans-Bold-6f" transform="translate(674.628906 0)"/>
     <use xlink:href="#DejaVuSans-Bold-6c" transform="translate(743.330078 0)"/>
     <use xlink:href="#DejaVuSans-Bold-73" transform="translate(777.607422 0)"/>
    </g>
    <!-- (Function Calling) -->
    <g style="fill: #2d3436" transform="translate(913.3876 477.732897) scale(0.09 -0.09)">
     <use xlink:href="#DejaVuSans-Bold-28"/>
     <use xlink:href="#DejaVuSans-Bold-46" transform="translate(45.703125 0)"/>
     <use xlink:href="#DejaVuSans-Bold-75" transform="translate(109.013672 0)"/>
     <use xlink:href="#DejaVuSans-Bold-6e" transform="translate(180.205078 0)"/>
     <use xlink:href="#DejaVuSans-Bold-63" transform="translate(251.396484 0)"/>
     <use xlink:href="#DejaVuSans-Bold-74" transform="translate(310.673828 0)"/>
     <use xlink:href="#DejaVuSans-Bold-69" transform="translate(358.476562 0)"/>
     <use xlink:href="#DejaVuSans-Bold-6f" transform="translate(392.753906 0)"/>
     <use xlink:href="#DejaVuSans-Bold-6e" transform="translate(461.455078 0)"/>
     <use xlink:href="#DejaVuSans-Bold-20" transform="translate(532.646484 0)"/>
     <use xlink:href="#DejaVuSans-Bold-43" transform="translate(567.460938 0)"/>
     <use xlink:href="#DejaVuSans-Bold-61" transform="translate(640.849609 0)"/>
     <use xlink:href="#DejaVuSans-Bold-6c" transform="translate(708.330078 0)"/>
     <use xlink:href="#DejaVuSans-Bold-6c" transform="translate(742.607422 0)"/>
     <use xlink:href="#DejaVuSans-Bold-69" transform="translate(776.884766 0)"/>
     <use xlink:href="#DejaVuSans-Bold-6e" transform="translate(811.162109 0)"/>
     <use xlink:href="#DejaVuSans-Bold-67" transform="translate(882.353516 0)"/>
     <use xlink:href="#DejaVuSans-Bold-29" transform="translate(953.935547 0)"/>
    </g>
   </g>
   <g id="text_17">
    <!-- SessionManager -->
    <g style="fill: #2d3436" transform="translate(282.522455 457.506522) scale(0.09 -0.09)">
     <use xlink:href="#DejaVuSans-Bold-53"/>
     <use xlink:href="#DejaVuSans-Bold-65" transform="translate(72.021484 0)"/>
     <use xlink:href="#DejaVuSans-Bold-73" transform="translate(139.84375 0)"/>
     <use xlink:href="#DejaVuSans-Bold-73" transform="translate(199.365234 0)"/>
     <use xlink:href="#DejaVuSans-Bold-69" transform="translate(258.886719 0)"/>
     <use xlink:href="#DejaVuSans-Bold-6f" transform="translate(293.164062 0)"/>
     <use xlink:href="#DejaVuSans-Bold-6e" transform="translate(361.865234 0)"/>
     <use xlink:href="#DejaVuSans-Bold-4d" transform="translate(433.056641 0)"/>
     <use xlink:href="#DejaVuSans-Bold-61" transform="translate(532.568359 0)"/>
     <use xlink:href="#DejaVuSans-Bold-6e" transform="translate(600.048828 0)"/>
     <use xlink:href="#DejaVuSans-Bold-61" transform="translate(671.240234 0)"/>
     <use xlink:href="#DejaVuSans-Bold-67" transform="translate(738.720703 0)"/>
     <use xlink:href="#DejaVuSans-Bold-65" transform="translate(810.302734 0)"/>
     <use xlink:href="#DejaVuSans-Bold-72" transform="translate(878.125 0)"/>
    </g>
    <!-- Message History -->
    <g style="fill: #2d3436" transform="translate(282.11183 467.654866) scale(0.09 -0.09)">
     <defs>
      <path id="DejaVuSans-Bold-48" d="M 588 4666 
L 1791 4666 
L 1791 2888 
L 3566 2888 
L 3566 4666 
L 4769 4666 
L 4769 0 
L 3566 0 
L 3566 1978 
L 1791 1978 
L 1791 0 
L 588 0 
L 588 4666 
z
" transform="scale(0.015625)"/>
     </defs>
     <use xlink:href="#DejaVuSans-Bold-4d"/>
     <use xlink:href="#DejaVuSans-Bold-65" transform="translate(99.511719 0)"/>
     <use xlink:href="#DejaVuSans-Bold-73" transform="translate(167.333984 0)"/>
     <use xlink:href="#DejaVuSans-Bold-73" transform="translate(226.855469 0)"/>
     <use xlink:href="#DejaVuSans-Bold-61" transform="translate(286.376953 0)"/>
     <use xlink:href="#DejaVuSans-Bold-67" transform="translate(353.857422 0)"/>
     <use xlink:href="#DejaVuSans-Bold-65" transform="translate(425.439453 0)"/>
     <use xlink:href="#DejaVuSans-Bold-20" transform="translate(493.261719 0)"/>
     <use xlink:href="#DejaVuSans-Bold-48" transform="translate(528.076172 0)"/>
     <use xlink:href="#DejaVuSans-Bold-69" transform="translate(611.767578 0)"/>
     <use xlink:href="#DejaVuSans-Bold-73" transform="translate(646.044922 0)"/>
     <use xlink:href="#DejaVuSans-Bold-74" transform="translate(705.566406 0)"/>
     <use xlink:href="#DejaVuSans-Bold-6f" transform="translate(753.369141 0)"/>
     <use xlink:href="#DejaVuSans-Bold-72" transform="translate(822.070312 0)"/>
     <use xlink:href="#DejaVuSans-Bold-79" transform="translate(871.386719 0)"/>
    </g>
    <!-- (JSONL) -->
    <g style="fill: #2d3436" transform="translate(304.770033 477.80321) scale(0.09 -0.09)">
     <defs>
      <path id="DejaVuSans-Bold-4a" d="M 588 4666 
L 1791 4666 
L 1791 453 
Q 1791 -419 1317 -850 
Q 844 -1281 -116 -1281 
L -359 -1281 
L -359 -372 
L -172 -372 
Q 203 -372 395 -162 
Q 588 47 588 453 
L 588 4666 
z
" transform="scale(0.015625)"/>
      <path id="DejaVuSans-Bold-4f" d="M 2719 3878 
Q 2169 3878 1866 3472 
Q 1563 3066 1563 2328 
Q 1563 1594 1866 1187 
Q 2169 781 2719 781 
Q 3272 781 3575 1187 
Q 3878 1594 3878 2328 
Q 3878 3066 3575 3472 
Q 3272 3878 2719 3878 
z
M 2719 4750 
Q 3844 4750 4481 4106 
Q 5119 3463 5119 2328 
Q 5119 1197 4481 553 
Q 3844 -91 2719 -91 
Q 1597 -91 958 553 
Q 319 1197 319 2328 
Q 319 3463 958 4106 
Q 1597 4750 2719 4750 
z
" transform="scale(0.015625)"/>
      <path id="DejaVuSans-Bold-4e" d="M 588 4666 
L 1931 4666 
L 3628 1466 
L 3628 4666 
L 4769 4666 
L 4769 0 
L 3425 0 
L 1728 3200 
L 1728 0 
L 588 0 
L 588 4666 
z
" transform="scale(0.015625)"/>
     </defs>
     <use xlink:href="#DejaVuSans-Bold-28"/>
     <use xlink:href="#DejaVuSans-Bold-4a" transform="translate(45.703125 0)"/>
     <use xlink:href="#DejaVuSans-Bold-53" transform="translate(82.910156 0)"/>
     <use xlink:href="#DejaVuSans-Bold-4f" transform="translate(154.931641 0)"/>
     <use xlink:href="#DejaVuSans-Bold-4e" transform="translate(239.941406 0)"/>
     <use xlink:href="#DejaVuSans-Bold-4c" transform="translate(323.632812 0)"/>
     <use xlink:href="#DejaVuSans-Bold-29" transform="translate(387.353516 0)"/>
    </g>
   </g>
   <g id="text_18">
    <!-- LLMProvider.chat() -->
    <g style="fill: #2d3436" transform="translate(593.283817 638.758708) scale(0.09 -0.09)">
     <use xlink:href="#DejaVuSans-Bold-4c"/>
     <use xlink:href="#DejaVuSans-Bold-4c" transform="translate(63.720703 0)"/>
     <use xlink:href="#DejaVuSans-Bold-4d" transform="translate(127.441406 0)"/>
     <use xlink:href="#DejaVuSans-Bold-50" transform="translate(226.953125 0)"/>
     <use xlink:href="#DejaVuSans-Bold-72" transform="translate(300.244141 0)"/>
     <use xlink:href="#DejaVuSans-Bold-6f" transform="translate(349.560547 0)"/>
     <use xlink:href="#DejaVuSans-Bold-76" transform="translate(418.261719 0)"/>
     <use xlink:href="#DejaVuSans-Bold-69" transform="translate(483.447266 0)"/>
     <use xlink:href="#DejaVuSans-Bold-64" transform="translate(517.724609 0)"/>
     <use xlink:href="#DejaVuSans-Bold-65" transform="translate(589.306641 0)"/>
     <use xlink:href="#DejaVuSans-Bold-72" transform="translate(657.128906 0)"/>
     <use xlink:href="#DejaVuSans-Bold-2e" transform="translate(692.195312 0)"/>
     <use xlink:href="#DejaVuSans-Bold-63" transform="translate(730.183594 0)"/>
     <use xlink:href="#DejaVuSans-Bold-68" transform="translate(789.460938 0)"/>
     <use xlink:href="#DejaVuSans-Bold-61" transform="translate(860.652344 0)"/>
     <use xlink:href="#DejaVuSans-Bold-74" transform="translate(928.132812 0)"/>
     <use xlink:href="#DejaVuSans-Bold-28" transform="translate(975.935547 0)"/>
     <use xlink:href="#DejaVuSans-Bold-29" transform="translate(1021.638672 0)"/>
    </g>
    <!-- (OpenAI/Anthropic/...) -->
    <g style="fill: #2d3436" transform="translate(585.543817 648.836739) scale(0.09 -0.09)">
     <defs>
      <path id="DejaVuSans-Bold-49" d="M 588 4666 
L 1791 4666 
L 1791 0 
L 588 0 
L 588 4666 
z
" transform="scale(0.015625)"/>
     </defs>
     <use xlink:href="#DejaVuSans-Bold-28"/>
     <use xlink:href="#DejaVuSans-Bold-4f" transform="translate(45.703125 0)"/>
     <use xlink:href="#DejaVuSans-Bold-70" transform="translate(130.712891 0)"/>
     <use xlink:href="#DejaVuSans-Bold-65" transform="translate(202.294922 0)"/>
     <use xlink:href="#DejaVuSans-Bold-6e" transform="translate(270.117188 0)"/>
     <use xlink:href="#DejaVuSans-Bold-41" transform="translate(341.308594 0)"/>
     <use xlink:href="#DejaVuSans-Bold-49" transform="translate(418.701172 0)"/>
     <use xlink:href="#DejaVuSans-Bold-2f" transform="translate(455.908203 0)"/>
     <use xlink:href="#DejaVuSans-Bold-41" transform="translate(492.431641 0)"/>
     <use xlink:href="#DejaVuSans-Bold-6e" transform="translate(569.824219 0)"/>
     <use xlink:href="#DejaVuSans-Bold-74" transform="translate(641.015625 0)"/>
     <use xlink:href="#DejaVuSans-Bold-68" transform="translate(688.818359 0)"/>
     <use xlink:href="#DejaVuSans-Bold-72" transform="translate(760.009766 0)"/>
     <use xlink:href="#DejaVuSans-Bold-6f" transform="translate(809.326172 0)"/>
     <use xlink:href="#DejaVuSans-Bold-70" transform="translate(878.027344 0)"/>
     <use xlink:href="#DejaVuSans-Bold-69" transform="translate(949.609375 0)"/>
     <use xlink:href="#DejaVuSans-Bold-63" transform="translate(983.886719 0)"/>
     <use xlink:href="#DejaVuSans-Bold-2f" transform="translate(1043.164062 0)"/>
     <use xlink:href="#DejaVuSans-Bold-2e" transform="translate(1079.6875 0)"/>
     <use xlink:href="#DejaVuSans-Bold-2e" transform="translate(1117.675781 0)"/>
     <use xlink:href="#DejaVuSans-Bold-2e" transform="translate(1155.664062 0)"/>
     <use xlink:href="#DejaVuSans-Bold-29" transform="translate(1193.652344 0)"/>
    </g>
   </g>
   <g id="text_19">
    <!-- Tool Execution -->
    <g style="fill: #ffffff" transform="translate(322.831105 638.758708) scale(0.09 -0.09)">
     <defs>
      <path id="DejaVuSans-Bold-45" d="M 588 4666 
L 3834 4666 
L 3834 3756 
L 1791 3756 
L 1791 2888 
L 3713 2888 
L 3713 1978 
L 1791 1978 
L 1791 909 
L 3903 909 
L 3903 0 
L 588 0 
L 588 4666 
z
" transform="scale(0.015625)"/>
     </defs>
     <use xlink:href="#DejaVuSans-Bold-54"/>
     <use xlink:href="#DejaVuSans-Bold-6f" transform="translate(54.962891 0)"/>
     <use xlink:href="#DejaVuSans-Bold-6f" transform="translate(123.664062 0)"/>
     <use xlink:href="#DejaVuSans-Bold-6c" transform="translate(192.365234 0)"/>
     <use xlink:href="#DejaVuSans-Bold-20" transform="translate(226.642578 0)"/>
     <use xlink:href="#DejaVuSans-Bold-45" transform="translate(261.457031 0)"/>
     <use xlink:href="#DejaVuSans-Bold-78" transform="translate(329.767578 0)"/>
     <use xlink:href="#DejaVuSans-Bold-65" transform="translate(394.269531 0)"/>
     <use xlink:href="#DejaVuSans-Bold-63" transform="translate(462.091797 0)"/>
     <use xlink:href="#DejaVuSans-Bold-75" transform="translate(521.369141 0)"/>
     <use xlink:href="#DejaVuSans-Bold-74" transform="translate(592.560547 0)"/>
     <use xlink:href="#DejaVuSans-Bold-69" transform="translate(640.363281 0)"/>
     <use xlink:href="#DejaVuSans-Bold-6f" transform="translate(674.640625 0)"/>
     <use xlink:href="#DejaVuSans-Bold-6e" transform="translate(743.341797 0)"/>
    </g>
    <!-- (Shell/File/Web) -->
    <g style="fill: #ffffff" transform="translate(319.217746 648.836739) scale(0.09 -0.09)">
     <defs>
      <path id="DejaVuSans-Bold-57" d="M 191 4666 
L 1344 4666 
L 2150 1275 
L 2950 4666 
L 4109 4666 
L 4909 1275 
L 5716 4666 
L 6859 4666 
L 5759 0 
L 4372 0 
L 3525 3547 
L 2688 0 
L 1300 0 
L 191 4666 
z
" transform="scale(0.015625)"/>
     </defs>
     <use xlink:href="#DejaVuSans-Bold-28"/>
     <use xlink:href="#DejaVuSans-Bold-53" transform="translate(45.703125 0)"/>
     <use xlink:href="#DejaVuSans-Bold-68" transform="translate(117.724609 0)"/>
     <use xlink:href="#DejaVuSans-Bold-65" transform="translate(188.916016 0)"/>
     <use xlink:href="#DejaVuSans-Bold-6c" transform="translate(256.738281 0)"/>
     <use xlink:href="#DejaVuSans-Bold-6c" transform="translate(291.015625 0)"/>
     <use xlink:href="#DejaVuSans-Bold-2f" transform="translate(325.292969 0)"/>
     <use xlink:href="#DejaVuSans-Bold-46" transform="translate(361.816406 0)"/>
     <use xlink:href="#DejaVuSans-Bold-69" transform="translate(430.126953 0)"/>
     <use xlink:href="#DejaVuSans-Bold-6c" transform="translate(464.404297 0)"/>
     <use xlink:href="#DejaVuSans-Bold-65" transform="translate(498.681641 0)"/>
     <use xlink:href="#DejaVuSans-Bold-2f" transform="translate(566.503906 0)"/>
     <use xlink:href="#DejaVuSans-Bold-57" transform="translate(603.027344 0)"/>
     <use xlink:href="#DejaVuSans-Bold-65" transform="translate(709.705078 0)"/>
     <use xlink:href="#DejaVuSans-Bold-62" transform="translate(777.527344 0)"/>
     <use xlink:href="#DejaVuSans-Bold-29" transform="translate(849.109375 0)"/>
    </g>
   </g>
   <g id="text_20">
    <!-- Stream Output -->
    <g style="fill: #ffffff" transform="translate(885.432154 638.723551) scale(0.09 -0.09)">
     <use xlink:href="#DejaVuSans-Bold-53"/>
     <use xlink:href="#DejaVuSans-Bold-74" transform="translate(72.021484 0)"/>
     <use xlink:href="#DejaVuSans-Bold-72" transform="translate(119.824219 0)"/>
     <use xlink:href="#DejaVuSans-Bold-65" transform="translate(169.140625 0)"/>
     <use xlink:href="#DejaVuSans-Bold-61" transform="translate(236.962891 0)"/>
     <use xlink:href="#DejaVuSans-Bold-6d" transform="translate(304.443359 0)"/>
     <use xlink:href="#DejaVuSans-Bold-20" transform="translate(408.642578 0)"/>
     <use xlink:href="#DejaVuSans-Bold-4f" transform="translate(443.457031 0)"/>
     <use xlink:href="#DejaVuSans-Bold-75" transform="translate(528.466797 0)"/>
     <use xlink:href="#DejaVuSans-Bold-74" transform="translate(599.658203 0)"/>
     <use xlink:href="#DejaVuSans-Bold-70" transform="translate(647.460938 0)"/>
     <use xlink:href="#DejaVuSans-Bold-75" transform="translate(719.042969 0)"/>
     <use xlink:href="#DejaVuSans-Bold-74" transform="translate(790.234375 0)"/>
    </g>
    <!-- (AgentHook) -->
    <g style="fill: #ffffff" transform="translate(890.977701 648.801583) scale(0.09 -0.09)">
     <use xlink:href="#DejaVuSans-Bold-28"/>
     <use xlink:href="#DejaVuSans-Bold-41" transform="translate(45.703125 0)"/>
     <use xlink:href="#DejaVuSans-Bold-67" transform="translate(123.095703 0)"/>
     <use xlink:href="#DejaVuSans-Bold-65" transform="translate(194.677734 0)"/>
     <use xlink:href="#DejaVuSans-Bold-6e" transform="translate(262.5 0)"/>
     <use xlink:href="#DejaVuSans-Bold-74" transform="translate(333.691406 0)"/>
     <use xlink:href="#DejaVuSans-Bold-48" transform="translate(381.494141 0)"/>
     <use xlink:href="#DejaVuSans-Bold-6f" transform="translate(465.185547 0)"/>
     <use xlink:href="#DejaVuSans-Bold-6f" transform="translate(533.886719 0)"/>
     <use xlink:href="#DejaVuSans-Bold-6b" transform="translate(602.587891 0)"/>
     <use xlink:href="#DejaVuSans-Bold-29" transform="translate(669.091797 0)"/>
    </g>
   </g>
   <g id="text_21">
    <!-- MessageBus.outbound -->
    <g style="fill: #ffffff" transform="translate(583.710067 814.831252) scale(0.09 -0.09)">
     <use xlink:href="#DejaVuSans-Bold-4d"/>
     <use xlink:href="#DejaVuSans-Bold-65" transform="translate(99.511719 0)"/>
     <use xlink:href="#DejaVuSans-Bold-73" transform="translate(167.333984 0)"/>
     <use xlink:href="#DejaVuSans-Bold-73" transform="translate(226.855469 0)"/>
     <use xlink:href="#DejaVuSans-Bold-61" transform="translate(286.376953 0)"/>
     <use xlink:href="#DejaVuSans-Bold-67" transform="translate(353.857422 0)"/>
     <use xlink:href="#DejaVuSans-Bold-65" transform="translate(425.439453 0)"/>
     <use xlink:href="#DejaVuSans-Bold-42" transform="translate(493.261719 0)"/>
     <use xlink:href="#DejaVuSans-Bold-75" transform="translate(569.482422 0)"/>
     <use xlink:href="#DejaVuSans-Bold-73" transform="translate(640.673828 0)"/>
     <use xlink:href="#DejaVuSans-Bold-2e" transform="translate(700.195312 0)"/>
     <use xlink:href="#DejaVuSans-Bold-6f" transform="translate(738.183594 0)"/>
     <use xlink:href="#DejaVuSans-Bold-75" transform="translate(806.884766 0)"/>
     <use xlink:href="#DejaVuSans-Bold-74" transform="translate(878.076172 0)"/>
     <use xlink:href="#DejaVuSans-Bold-62" transform="translate(925.878906 0)"/>
     <use xlink:href="#DejaVuSans-Bold-6f" transform="translate(997.460938 0)"/>
     <use xlink:href="#DejaVuSans-Bold-75" transform="translate(1066.162109 0)"/>
     <use xlink:href="#DejaVuSans-Bold-6e" transform="translate(1137.353516 0)"/>
     <use xlink:href="#DejaVuSans-Bold-64" transform="translate(1208.544922 0)"/>
    </g>
    <!-- (asyncio.Queue) -->
    <g style="fill: #ffffff" transform="translate(600.00077 824.979596) scale(0.09 -0.09)">
     <use xlink:href="#DejaVuSans-Bold-28"/>
     <use xlink:href="#DejaVuSans-Bold-61" transform="translate(45.703125 0)"/>
     <use xlink:href="#DejaVuSans-Bold-73" transform="translate(113.183594 0)"/>
     <use xlink:href="#DejaVuSans-Bold-79" transform="translate(172.705078 0)"/>
     <use xlink:href="#DejaVuSans-Bold-6e" transform="translate(237.890625 0)"/>
     <use xlink:href="#DejaVuSans-Bold-63" transform="translate(309.082031 0)"/>
     <use xlink:href="#DejaVuSans-Bold-69" transform="translate(368.359375 0)"/>
     <use xlink:href="#DejaVuSans-Bold-6f" transform="translate(402.636719 0)"/>
     <use xlink:href="#DejaVuSans-Bold-2e" transform="translate(471.337891 0)"/>
     <use xlink:href="#DejaVuSans-Bold-51" transform="translate(509.326172 0)"/>
     <use xlink:href="#DejaVuSans-Bold-75" transform="translate(594.335938 0)"/>
     <use xlink:href="#DejaVuSans-Bold-65" transform="translate(665.527344 0)"/>
     <use xlink:href="#DejaVuSans-Bold-75" transform="translate(733.349609 0)"/>
     <use xlink:href="#DejaVuSans-Bold-65" transform="translate(804.541016 0)"/>
     <use xlink:href="#DejaVuSans-Bold-29" transform="translate(872.363281 0)"/>
    </g>
   </g>
   <g id="text_22">
    <!-- ChannelManager -->
    <g style="fill: #ffffff" transform="translate(281.464955 814.866408) scale(0.09 -0.09)">
     <use xlink:href="#DejaVuSans-Bold-43"/>
     <use xlink:href="#DejaVuSans-Bold-68" transform="translate(73.388672 0)"/>
     <use xlink:href="#DejaVuSans-Bold-61" transform="translate(144.580078 0)"/>
     <use xlink:href="#DejaVuSans-Bold-6e" transform="translate(212.060547 0)"/>
     <use xlink:href="#DejaVuSans-Bold-6e" transform="translate(283.251953 0)"/>
     <use xlink:href="#DejaVuSans-Bold-65" transform="translate(354.443359 0)"/>
     <use xlink:href="#DejaVuSans-Bold-6c" transform="translate(422.265625 0)"/>
     <use xlink:href="#DejaVuSans-Bold-4d" transform="translate(456.542969 0)"/>
     <use xlink:href="#DejaVuSans-Bold-61" transform="translate(556.054688 0)"/>
     <use xlink:href="#DejaVuSans-Bold-6e" transform="translate(623.535156 0)"/>
     <use xlink:href="#DejaVuSans-Bold-61" transform="translate(694.726562 0)"/>
     <use xlink:href="#DejaVuSans-Bold-67" transform="translate(762.207031 0)"/>
     <use xlink:href="#DejaVuSans-Bold-65" transform="translate(833.789062 0)"/>
     <use xlink:href="#DejaVuSans-Bold-72" transform="translate(901.611328 0)"/>
    </g>
    <!-- .dispatch() -->
    <g style="fill: #ffffff" transform="translate(296.712924 825.014752) scale(0.09 -0.09)">
     <use xlink:href="#DejaVuSans-Bold-2e"/>
     <use xlink:href="#DejaVuSans-Bold-64" transform="translate(37.988281 0)"/>
     <use xlink:href="#DejaVuSans-Bold-69" transform="translate(109.570312 0)"/>
     <use xlink:href="#DejaVuSans-Bold-73" transform="translate(143.847656 0)"/>
     <use xlink:href="#DejaVuSans-Bold-70" transform="translate(203.369141 0)"/>
     <use xlink:href="#DejaVuSans-Bold-61" transform="translate(274.951172 0)"/>
     <use xlink:href="#DejaVuSans-Bold-74" transform="translate(342.431641 0)"/>
     <use xlink:href="#DejaVuSans-Bold-63" transform="translate(390.234375 0)"/>
     <use xlink:href="#DejaVuSans-Bold-68" transform="translate(449.511719 0)"/>
     <use xlink:href="#DejaVuSans-Bold-28" transform="translate(520.703125 0)"/>
     <use xlink:href="#DejaVuSans-Bold-29" transform="translate(566.40625 0)"/>
    </g>
   </g>
   <g id="text_23">
    <!-- User -->
    <g style="fill: #ffffff" transform="translate(101.282042 819.94058) scale(0.09 -0.09)">
     <use xlink:href="#DejaVuSans-Bold-55"/>
     <use xlink:href="#DejaVuSans-Bold-73" transform="translate(81.201172 0)"/>
     <use xlink:href="#DejaVuSans-Bold-65" transform="translate(140.722656 0)"/>
     <use xlink:href="#DejaVuSans-Bold-72" transform="translate(208.544922 0)"/>
    </g>
   </g>
  </g>
 </g>
 <defs>
  <clipPath id="p5bd4b57f17">
   <rect x="7.2" y="7.2" width="1268.228571" height="986.4"/>
  </clipPath>
 </defs>
</svg>
