<?xml version="1.0" encoding="utf-8" standalone="no"?>
<!DOCTYPE svg PUBLIC "-//W3C//DTD SVG 1.1//EN"
  "http://www.w3.org/Graphics/SVG/1.1/DTD/svg11.dtd">
<svg xmlns:xlink="http://www.w3.org/1999/xlink" width="1137.6pt" height="856.8pt" viewBox="0 0 1137.6 856.8" xmlns="http://www.w3.org/2000/svg" version="1.1">
 <metadata>
  <rdf:RDF xmlns:dc="http://purl.org/dc/elements/1.1/" xmlns:cc="http://creativecommons.org/ns#" xmlns:rdf="http://www.w3.org/1999/02/22-rdf-syntax-ns#">
   <cc:Work>
    <dc:type rdf:resource="http://purl.org/dc/dcmitype/StillImage"/>
    <dc:date>2026-04-25T18:57:52.108783</dc:date>
    <dc:format>image/svg+xml</dc:format>
    <dc:creator>
     <cc:Agent>
      <dc:title>Matplotlib v3.10.9, https://matplotlib.org/</dc:title>
     </cc:Agent>
    </dc:creator>
   </cc:Work>
  </rdf:RDF>
 </metadata>
 <defs>
  <style type="text/css">*{stroke-linejoin: round; stroke-linecap: butt}</style>
 </defs>
 <g id="figure_1">
  <g id="patch_1">
   <path d="M 0 856.8 
L 1137.6 856.8 
L 1137.6 0 
L 0 0 
z
" style="fill: #fafafa"/>
  </g>
  <g id="axes_1">
   <g id="patch_2">
    <path d="M 44.406 141.984 
L 1093.194 141.984 
Q 1096.704 141.984 1096.704 138.474 
L 1096.704 16.326 
Q 1096.704 12.816 1093.194 12.816 
L 44.406 12.816 
Q 40.896 12.816 40.896 16.326 
L 40.896 138.474 
Q 40.896 141.984 44.406 141.984 
z
" clip-path="url(#p22f3c23422)" style="fill: #2d3436; opacity: 0.1"/>
   </g>
   <g id="patch_3">
    <path d="M 44.406 282.384 
L 1093.194 282.384 
Q 1096.704 282.384 1096.704 278.874 
L 1096.704 156.726 
Q 1096.704 153.216 1093.194 153.216 
L 44.406 153.216 
Q 40.896 153.216 40.896 156.726 
L 40.896 278.874 
Q 40.896 282.384 44.406 282.384 
z
" clip-path="url(#p22f3c23422)" style="fill: #6c5ce7; opacity: 0.1"/>
   </g>
   <g id="patch_4">
    <path d="M 44.406 422.784 
L 1093.194 422.784 
Q 1096.704 422.784 1096.704 419.274 
L 1096.704 297.126 
Q 1096.704 293.616 1093.194 293.616 
L 44.406 293.616 
Q 40.896 293.616 40.896 297.126 
L 40.896 419.274 
Q 40.896 422.784 44.406 422.784 
z
" clip-path="url(#p22f3c23422)" style="fill: #0984e3; opacity: 0.1"/>
   </g>
   <g id="patch_5">
    <path d="M 44.406 563.184 
L 1093.194 563.184 
Q 1096.704 563.184 1096.704 559.674 
L 1096.704 437.526 
Q 1096.704 434.016 1093.194 434.016 
L 44.406 434.016 
Q 40.896 434.016 40.896 437.526 
L 40.896 559.674 
Q 40.896 563.184 44.406 563.184 
z
" clip-path="url(#p22f3c23422)" style="fill: #e17055; opacity: 0.1"/>
   </g>
   <g id="patch_6">
    <path d="M 44.406 703.584 
L 1093.194 703.584 
Q 1096.704 703.584 1096.704 700.074 
L 1096.704 577.926 
Q 1096.704 574.416 1093.194 574.416 
L 44.406 574.416 
Q 40.896 574.416 40.896 577.926 
L 40.896 700.074 
Q 40.896 703.584 44.406 703.584 
z
" clip-path="url(#p22f3c23422)" style="fill: #fdcb6e; opacity: 0.1"/>
   </g>
   <g id="patch_7">
    <path d="M 44.406 843.984 
L 1093.194 843.984 
Q 1096.704 843.984 1096.704 840.474 
L 1096.704 718.326 
Q 1096.704 714.816 1093.194 714.816 
L 44.406 714.816 
Q 40.896 714.816 40.896 718.326 
L 40.896 840.474 
Q 40.896 843.984 44.406 843.984 
z
" clip-path="url(#p22f3c23422)" style="fill: #636e72; opacity: 0.1"/>
   </g>
   <g id="patch_8">
    <path d="M 43.002 39.492 
L 1094.598 39.492 
Q 1096.002 39.492 1096.002 38.088 
L 1096.002 14.922 
Q 1096.002 13.518 1094.598 13.518 
L 43.002 13.518 
Q 41.598 13.518 41.598 14.922 
L 41.598 38.088 
Q 41.598 39.492 43.002 39.492 
z
" clip-path="url(#p22f3c23422)" style="fill: #2d3436; opacity: 0.3"/>
   </g>
   <g id="patch_9">
    <path d="M 43.002 179.892 
L 1094.598 179.892 
Q 1096.002 179.892 1096.002 178.488 
L 1096.002 155.322 
Q 1096.002 153.918 1094.598 153.918 
L 43.002 153.918 
Q 41.598 153.918 41.598 155.322 
L 41.598 178.488 
Q 41.598 179.892 43.002 179.892 
z
" clip-path="url(#p22f3c23422)" style="fill: #6c5ce7; opacity: 0.3"/>
   </g>
   <g id="patch_10">
    <path d="M 43.002 320.292 
L 1094.598 320.292 
Q 1096.002 320.292 1096.002 318.888 
L 1096.002 295.722 
Q 1096.002 294.318 1094.598 294.318 
L 43.002 294.318 
Q 41.598 294.318 41.598 295.722 
L 41.598 318.888 
Q 41.598 320.292 43.002 320.292 
z
" clip-path="url(#p22f3c23422)" style="fill: #0984e3; opacity: 0.3"/>
   </g>
   <g id="patch_11">
    <path d="M 43.002 460.692 
L 1094.598 460.692 
Q 1096.002 460.692 1096.002 459.288 
L 1096.002 436.122 
Q 1096.002 434.718 1094.598 434.718 
L 43.002 434.718 
Q 41.598 434.718 41.598 436.122 
L 41.598 459.288 
Q 41.598 460.692 43.002 460.692 
z
" clip-path="url(#p22f3c23422)" style="fill: #e17055; opacity: 0.3"/>
   </g>
   <g id="patch_12">
    <path d="M 43.002 601.092 
L 1094.598 601.092 
Q 1096.002 601.092 1096.002 599.688 
L 1096.002 576.522 
Q 1096.002 575.118 1094.598 575.118 
L 43.002 575.118 
Q 41.598 575.118 41.598 576.522 
L 41.598 599.688 
Q 41.598 601.092 43.002 601.092 
z
" clip-path="url(#p22f3c23422)" style="fill: #fdcb6e; opacity: 0.3"/>
   </g>
   <g id="patch_13">
    <path d="M 43.002 741.492 
L 1094.598 741.492 
Q 1096.002 741.492 1096.002 740.088 
L 1096.002 716.922 
Q 1096.002 715.518 1094.598 715.518 
L 43.002 715.518 
Q 41.598 715.518 41.598 716.922 
L 41.598 740.088 
Q 41.598 741.492 43.002 741.492 
z
" clip-path="url(#p22f3c23422)" style="fill: #636e72; opacity: 0.3"/>
   </g>
   <g id="text_1">
    <!-- Technology Stack -->
    <g style="fill: #1a1a2e" transform="translate(460.912344 48.284687) scale(0.22 -0.22)">
     <defs>
      <path id="DejaVuSans-Bold-54" d="M 31 4666 
L 4331 4666 
L 4331 3756 
L 2784 3756 
L 2784 0 
L 1581 0 
L 1581 3756 
L 31 3756 
L 31 4666 
z
" transform="scale(0.015625)"/>
      <path id="DejaVuSans-Bold-65" d="M 4031 1759 
L 4031 1441 
L 1416 1441 
Q 1456 1047 1700 850 
Q 1944 653 2381 653 
Q 2734 653 3104 758 
Q 3475 863 3866 1075 
L 3866 213 
Q 3469 63 3072 -14 
Q 2675 -91 2278 -91 
Q 1328 -91 801 392 
Q 275 875 275 1747 
Q 275 2603 792 3093 
Q 1309 3584 2216 3584 
Q 3041 3584 3536 3087 
Q 4031 2591 4031 1759 
z
M 2881 2131 
Q 2881 2450 2695 2645 
Q 2509 2841 2209 2841 
Q 1884 2841 1681 2658 
Q 1478 2475 1428 2131 
L 2881 2131 
z
" transform="scale(0.015625)"/>
      <path id="DejaVuSans-Bold-63" d="M 3366 3391 
L 3366 2478 
Q 3138 2634 2908 2709 
Q 2678 2784 2431 2784 
Q 1963 2784 1702 2511 
Q 1441 2238 1441 1747 
Q 1441 1256 1702 982 
Q 1963 709 2431 709 
Q 2694 709 2930 787 
Q 3166 866 3366 1019 
L 3366 103 
Q 3103 6 2833 -42 
Q 2563 -91 2291 -91 
Q 1344 -91 809 395 
Q 275 881 275 1747 
Q 275 2613 809 3098 
Q 1344 3584 2291 3584 
Q 2566 3584 2833 3536 
Q 3100 3488 3366 3391 
z
" transform="scale(0.015625)"/>
      <path id="DejaVuSans-Bold-68" d="M 4056 2131 
L 4056 0 
L 2931 0 
L 2931 347 
L 2931 1625 
Q 2931 2084 2911 2256 
Q 2891 2428 2841 2509 
Q 2775 2619 2662 2680 
Q 2550 2741 2406 2741 
Q 2056 2741 1856 2470 
Q 1656 2200 1656 1722 
L 1656 0 
L 538 0 
L 538 4863 
L 1656 4863 
L 1656 2988 
Q 1909 3294 2193 3439 
Q 2478 3584 2822 3584 
Q 3428 3584 3742 3212 
Q 4056 2841 4056 2131 
z
" transform="scale(0.015625)"/>
      <path id="DejaVuSans-Bold-6e" d="M 4056 2131 
L 4056 0 
L 2931 0 
L 2931 347 
L 2931 1631 
Q 2931 2084 2911 2256 
Q 2891 2428 2841 2509 
Q 2775 2619 2662 2680 
Q 2550 2741 2406 2741 
Q 2056 2741 1856 2470 
Q 1656 2200 1656 1722 
L 1656 0 
L 538 0 
L 538 3500 
L 1656 3500 
L 1656 2988 
Q 1909 3294 2193 3439 
Q 2478 3584 2822 3584 
Q 3428 3584 3742 3212 
Q 4056 2841 4056 2131 
z
" transform="scale(0.015625)"/>
      <path id="DejaVuSans-Bold-6f" d="M 2203 2784 
Q 1831 2784 1636 2517 
Q 1441 2250 1441 1747 
Q 1441 1244 1636 976 
Q 1831 709 2203 709 
Q 2569 709 2762 976 
Q 2956 1244 2956 1747 
Q 2956 2250 2762 2517 
Q 2569 2784 2203 2784 
z
M 2203 3584 
Q 3106 3584 3614 3096 
Q 4122 2609 4122 1747 
Q 4122 884 3614 396 
Q 3106 -91 2203 -91 
Q 1297 -91 786 396 
Q 275 884 275 1747 
Q 275 2609 786 3096 
Q 1297 3584 2203 3584 
z
" transform="scale(0.015625)"/>
      <path id="DejaVuSans-Bold-6c" d="M 538 4863 
L 1656 4863 
L 1656 0 
L 538 0 
L 538 4863 
z
" transform="scale(0.015625)"/>
      <path id="DejaVuSans-Bold-67" d="M 2919 594 
Q 2688 288 2409 144 
Q 2131 0 1766 0 
Q 1125 0 706 504 
Q 288 1009 288 1791 
Q 288 2575 706 3076 
Q 1125 3578 1766 3578 
Q 2131 3578 2409 3434 
Q 2688 3291 2919 2981 
L 2919 3500 
L 4044 3500 
L 4044 353 
Q 4044 -491 3511 -936 
Q 2978 -1381 1966 -1381 
Q 1638 -1381 1331 -1331 
Q 1025 -1281 716 -1178 
L 716 -306 
Q 1009 -475 1290 -558 
Q 1572 -641 1856 -641 
Q 2406 -641 2662 -400 
Q 2919 -159 2919 353 
L 2919 594 
z
M 2181 2772 
Q 1834 2772 1640 2515 
Q 1447 2259 1447 1791 
Q 1447 1309 1634 1061 
Q 1822 813 2181 813 
Q 2531 813 2725 1069 
Q 2919 1325 2919 1791 
Q 2919 2259 2725 2515 
Q 2531 2772 2181 2772 
z
" transform="scale(0.015625)"/>
      <path id="DejaVuSans-Bold-79" d="M 78 3500 
L 1197 3500 
L 2138 1125 
L 2938 3500 
L 4056 3500 
L 2584 -331 
Q 2363 -916 2067 -1148 
Q 1772 -1381 1288 -1381 
L 641 -1381 
L 641 -647 
L 991 -647 
Q 1275 -647 1404 -556 
Q 1534 -466 1606 -231 
L 1638 -134 
L 78 3500 
z
" transform="scale(0.015625)"/>
      <path id="DejaVuSans-Bold-20" transform="scale(0.015625)"/>
      <path id="DejaVuSans-Bold-53" d="M 3834 4519 
L 3834 3531 
Q 3450 3703 3084 3790 
Q 2719 3878 2394 3878 
Q 1963 3878 1756 3759 
Q 1550 3641 1550 3391 
Q 1550 3203 1689 3098 
Q 1828 2994 2194 2919 
L 2706 2816 
Q 3484 2659 3812 2340 
Q 4141 2022 4141 1434 
Q 4141 663 3683 286 
Q 3225 -91 2284 -91 
Q 1841 -91 1394 -6 
Q 947 78 500 244 
L 500 1259 
Q 947 1022 1364 901 
Q 1781 781 2169 781 
Q 2563 781 2772 912 
Q 2981 1044 2981 1288 
Q 2981 1506 2839 1625 
Q 2697 1744 2272 1838 
L 1806 1941 
Q 1106 2091 782 2419 
Q 459 2747 459 3303 
Q 459 4000 909 4375 
Q 1359 4750 2203 4750 
Q 2588 4750 2994 4692 
Q 3400 4634 3834 4519 
z
" transform="scale(0.015625)"/>
      <path id="DejaVuSans-Bold-74" d="M 1759 4494 
L 1759 3500 
L 2913 3500 
L 2913 2700 
L 1759 2700 
L 1759 1216 
Q 1759 972 1856 886 
Q 1953 800 2241 800 
L 2816 800 
L 2816 0 
L 1856 0 
Q 1194 0 917 276 
Q 641 553 641 1216 
L 641 2700 
L 84 2700 
L 84 3500 
L 641 3500 
L 641 4494 
L 1759 4494 
z
" transform="scale(0.015625)"/>
      <path id="DejaVuSans-Bold-61" d="M 2106 1575 
Q 1756 1575 1579 1456 
Q 1403 1338 1403 1106 
Q 1403 894 1545 773 
Q 1688 653 1941 653 
Q 2256 653 2472 879 
Q 2688 1106 2688 1447 
L 2688 1575 
L 2106 1575 
z
M 3816 1997 
L 3816 0 
L 2688 0 
L 2688 519 
Q 2463 200 2181 54 
Q 1900 -91 1497 -91 
Q 953 -91 614 226 
Q 275 544 275 1050 
Q 275 1666 698 1953 
Q 1122 2241 2028 2241 
L 2688 2241 
L 2688 2328 
Q 2688 2594 2478 2717 
Q 2269 2841 1825 2841 
Q 1466 2841 1156 2769 
Q 847 2697 581 2553 
L 581 3406 
Q 941 3494 1303 3539 
Q 1666 3584 2028 3584 
Q 2975 3584 3395 3211 
Q 3816 2838 3816 1997 
z
" transform="scale(0.015625)"/>
      <path id="DejaVuSans-Bold-6b" d="M 538 4863 
L 1656 4863 
L 1656 2216 
L 2944 3500 
L 4244 3500 
L 2534 1894 
L 4378 0 
L 3022 0 
L 1656 1459 
L 1656 0 
L 538 0 
L 538 4863 
z
" transform="scale(0.015625)"/>
     </defs>
     <use xlink:href="#DejaVuSans-Bold-54"/>
     <use xlink:href="#DejaVuSans-Bold-65" transform="translate(54.962891 0)"/>
     <use xlink:href="#DejaVuSans-Bold-63" transform="translate(122.785156 0)"/>
     <use xlink:href="#DejaVuSans-Bold-68" transform="translate(182.0625 0)"/>
     <use xlink:href="#DejaVuSans-Bold-6e" transform="translate(253.253906 0)"/>
     <use xlink:href="#DejaVuSans-Bold-6f" transform="translate(324.445312 0)"/>
     <use xlink:href="#DejaVuSans-Bold-6c" transform="translate(393.146484 0)"/>
     <use xlink:href="#DejaVuSans-Bold-6f" transform="translate(427.423828 0)"/>
     <use xlink:href="#DejaVuSans-Bold-67" transform="translate(496.125 0)"/>
     <use xlink:href="#DejaVuSans-Bold-79" transform="translate(567.707031 0)"/>
     <use xlink:href="#DejaVuSans-Bold-20" transform="translate(632.892578 0)"/>
     <use xlink:href="#DejaVuSans-Bold-53" transform="translate(667.707031 0)"/>
     <use xlink:href="#DejaVuSans-Bold-74" transform="translate(739.728516 0)"/>
     <use xlink:href="#DejaVuSans-Bold-61" transform="translate(787.53125 0)"/>
     <use xlink:href="#DejaVuSans-Bold-63" transform="translate(855.011719 0)"/>
     <use xlink:href="#DejaVuSans-Bold-6b" transform="translate(914.289062 0)"/>
    </g>
   </g>
   <g id="text_2">
    <!-- User Interface Layer -->
    <g style="fill: #2d3436" transform="translate(91.44 29.848344) scale(0.11 -0.11)">
     <defs>
      <path id="DejaVuSans-Bold-55" d="M 588 4666 
L 1791 4666 
L 1791 1869 
Q 1791 1291 1980 1042 
Q 2169 794 2597 794 
Q 3028 794 3217 1042 
Q 3406 1291 3406 1869 
L 3406 4666 
L 4609 4666 
L 4609 1869 
Q 4609 878 4112 393 
Q 3616 -91 2597 -91 
Q 1581 -91 1084 393 
Q 588 878 588 1869 
L 588 4666 
z
" transform="scale(0.015625)"/>
      <path id="DejaVuSans-Bold-73" d="M 3272 3391 
L 3272 2541 
Q 2913 2691 2578 2766 
Q 2244 2841 1947 2841 
Q 1628 2841 1473 2761 
Q 1319 2681 1319 2516 
Q 1319 2381 1436 2309 
Q 1553 2238 1856 2203 
L 2053 2175 
Q 2913 2066 3209 1816 
Q 3506 1566 3506 1031 
Q 3506 472 3093 190 
Q 2681 -91 1863 -91 
Q 1516 -91 1145 -36 
Q 775 19 384 128 
L 384 978 
Q 719 816 1070 734 
Q 1422 653 1784 653 
Q 2113 653 2278 743 
Q 2444 834 2444 1013 
Q 2444 1163 2330 1236 
Q 2216 1309 1875 1350 
L 1678 1375 
Q 931 1469 631 1722 
Q 331 1975 331 2491 
Q 331 3047 712 3315 
Q 1094 3584 1881 3584 
Q 2191 3584 2531 3537 
Q 2872 3491 3272 3391 
z
" transform="scale(0.015625)"/>
      <path id="DejaVuSans-Bold-72" d="M 3138 2547 
Q 2991 2616 2845 2648 
Q 2700 2681 2553 2681 
Q 2122 2681 1889 2404 
Q 1656 2128 1656 1613 
L 1656 0 
L 538 0 
L 538 3500 
L 1656 3500 
L 1656 2925 
Q 1872 3269 2151 3426 
Q 2431 3584 2822 3584 
Q 2878 3584 2943 3579 
Q 3009 3575 3134 3559 
L 3138 2547 
z
" transform="scale(0.015625)"/>
      <path id="DejaVuSans-Bold-49" d="M 588 4666 
L 1791 4666 
L 1791 0 
L 588 0 
L 588 4666 
z
" transform="scale(0.015625)"/>
      <path id="DejaVuSans-Bold-66" d="M 2841 4863 
L 2841 4128 
L 2222 4128 
Q 1984 4128 1890 4042 
Q 1797 3956 1797 3744 
L 1797 3500 
L 2753 3500 
L 2753 2700 
L 1797 2700 
L 1797 0 
L 678 0 
L 678 2700 
L 122 2700 
L 122 3500 
L 678 3500 
L 678 3744 
Q 678 4316 997 4589 
Q 1316 4863 1984 4863 
L 2841 4863 
z
" transform="scale(0.015625)"/>
      <path id="DejaVuSans-Bold-4c" d="M 588 4666 
L 1791 4666 
L 1791 909 
L 3903 909 
L 3903 0 
L 588 0 
L 588 4666 
z
" transform="scale(0.015625)"/>
     </defs>
     <use xlink:href="#DejaVuSans-Bold-55"/>
     <use xlink:href="#DejaVuSans-Bold-73" transform="translate(81.201172 0)"/>
     <use xlink:href="#DejaVuSans-Bold-65" transform="translate(140.722656 0)"/>
     <use xlink:href="#DejaVuSans-Bold-72" transform="translate(208.544922 0)"/>
     <use xlink:href="#DejaVuSans-Bold-20" transform="translate(257.861328 0)"/>
     <use xlink:href="#DejaVuSans-Bold-49" transform="translate(292.675781 0)"/>
     <use xlink:href="#DejaVuSans-Bold-6e" transform="translate(329.882812 0)"/>
     <use xlink:href="#DejaVuSans-Bold-74" transform="translate(401.074219 0)"/>
     <use xlink:href="#DejaVuSans-Bold-65" transform="translate(448.876953 0)"/>
     <use xlink:href="#DejaVuSans-Bold-72" transform="translate(516.699219 0)"/>
     <use xlink:href="#DejaVuSans-Bold-66" transform="translate(566.015625 0)"/>
     <use xlink:href="#DejaVuSans-Bold-61" transform="translate(609.521484 0)"/>
     <use xlink:href="#DejaVuSans-Bold-63" transform="translate(677.001953 0)"/>
     <use xlink:href="#DejaVuSans-Bold-65" transform="translate(736.279297 0)"/>
     <use xlink:href="#DejaVuSans-Bold-20" transform="translate(804.101562 0)"/>
     <use xlink:href="#DejaVuSans-Bold-4c" transform="translate(838.916016 0)"/>
     <use xlink:href="#DejaVuSans-Bold-61" transform="translate(902.636719 0)"/>
     <use xlink:href="#DejaVuSans-Bold-79" transform="translate(966.992188 0)"/>
     <use xlink:href="#DejaVuSans-Bold-65" transform="translate(1032.177734 0)"/>
     <use xlink:href="#DejaVuSans-Bold-72" transform="translate(1100 0)"/>
    </g>
   </g>
   <g id="patch_14">
    <path d="M 342.405 113.904 
L 486.315 113.904 
Q 487.719 113.904 487.719 112.5 
L 487.719 49.32 
Q 487.719 47.916 486.315 47.916 
L 342.405 47.916 
Q 341.001 47.916 341.001 49.32 
L 341.001 112.5 
Q 341.001 113.904 342.405 113.904 
z
" clip-path="url(#p22f3c23422)" style="fill: #2d3436; opacity: 0.95; stroke: #333333; stroke-width: 1.2; stroke-linejoin: miter"/>
   </g>
   <g id="patch_15">
    <path d="M 496.845 113.904 
L 640.755 113.904 
Q 642.159 113.904 642.159 112.5 
L 642.159 49.32 
Q 642.159 47.916 640.755 47.916 
L 496.845 47.916 
Q 495.441 47.916 495.441 49.32 
L 495.441 112.5 
Q 495.441 113.904 496.845 113.904 
z
" clip-path="url(#p22f3c23422)" style="fill: #2d3436; opacity: 0.95; stroke: #333333; stroke-width: 1.2; stroke-linejoin: miter"/>
   </g>
   <g id="patch_16">
    <path d="M 651.285 113.904 
L 795.195 113.904 
Q 796.599 113.904 796.599 112.5 
L 796.599 49.32 
Q 796.599 47.916 795.195 47.916 
L 651.285 47.916 
Q 649.881 47.916 649.881 49.32 
L 649.881 112.5 
Q 649.881 113.904 651.285 113.904 
z
" clip-path="url(#p22f3c23422)" style="fill: #2d3436; opacity: 0.95; stroke: #333333; stroke-width: 1.2; stroke-linejoin: miter"/>
   </g>
   <g id="text_3">
    <!-- Communication Layer -->
    <g style="fill: #6c5ce7" transform="translate(91.44 170.248344) scale(0.11 -0.11)">
     <defs>
      <path id="DejaVuSans-Bold-43" d="M 4288 256 
Q 3956 84 3597 -3 
Q 3238 -91 2847 -91 
Q 1681 -91 1000 561 
Q 319 1213 319 2328 
Q 319 3447 1000 4098 
Q 1681 4750 2847 4750 
Q 3238 4750 3597 4662 
Q 3956 4575 4288 4403 
L 4288 3438 
Q 3953 3666 3628 3772 
Q 3303 3878 2944 3878 
Q 2300 3878 1931 3465 
Q 1563 3053 1563 2328 
Q 1563 1606 1931 1193 
Q 2300 781 2944 781 
Q 3303 781 3628 887 
Q 3953 994 4288 1222 
L 4288 256 
z
" transform="scale(0.015625)"/>
      <path id="DejaVuSans-Bold-6d" d="M 3781 2919 
Q 3994 3244 4286 3414 
Q 4578 3584 4928 3584 
Q 5531 3584 5847 3212 
Q 6163 2841 6163 2131 
L 6163 0 
L 5038 0 
L 5038 1825 
Q 5041 1866 5042 1909 
Q 5044 1953 5044 2034 
Q 5044 2406 4934 2573 
Q 4825 2741 4581 2741 
Q 4263 2741 4089 2478 
Q 3916 2216 3909 1719 
L 3909 0 
L 2784 0 
L 2784 1825 
Q 2784 2406 2684 2573 
Q 2584 2741 2328 2741 
Q 2006 2741 1831 2477 
Q 1656 2213 1656 1722 
L 1656 0 
L 531 0 
L 531 3500 
L 1656 3500 
L 1656 2988 
Q 1863 3284 2130 3434 
Q 2397 3584 2719 3584 
Q 3081 3584 3359 3409 
Q 3638 3234 3781 2919 
z
" transform="scale(0.015625)"/>
      <path id="DejaVuSans-Bold-75" d="M 500 1363 
L 500 3500 
L 1625 3500 
L 1625 3150 
Q 1625 2866 1622 2436 
Q 1619 2006 1619 1863 
Q 1619 1441 1641 1255 
Q 1663 1069 1716 984 
Q 1784 875 1895 815 
Q 2006 756 2150 756 
Q 2500 756 2700 1025 
Q 2900 1294 2900 1772 
L 2900 3500 
L 4019 3500 
L 4019 0 
L 2900 0 
L 2900 506 
Q 2647 200 2364 54 
Q 2081 -91 1741 -91 
Q 1134 -91 817 281 
Q 500 653 500 1363 
z
" transform="scale(0.015625)"/>
      <path id="DejaVuSans-Bold-69" d="M 538 3500 
L 1656 3500 
L 1656 0 
L 538 0 
L 538 3500 
z
M 538 4863 
L 1656 4863 
L 1656 3950 
L 538 3950 
L 538 4863 
z
" transform="scale(0.015625)"/>
     </defs>
     <use xlink:href="#DejaVuSans-Bold-43"/>
     <use xlink:href="#DejaVuSans-Bold-6f" transform="translate(73.388672 0)"/>
     <use xlink:href="#DejaVuSans-Bold-6d" transform="translate(142.089844 0)"/>
     <use xlink:href="#DejaVuSans-Bold-6d" transform="translate(246.289062 0)"/>
     <use xlink:href="#DejaVuSans-Bold-75" transform="translate(350.488281 0)"/>
     <use xlink:href="#DejaVuSans-Bold-6e" transform="translate(421.679688 0)"/>
     <use xlink:href="#DejaVuSans-Bold-69" transform="translate(492.871094 0)"/>
     <use xlink:href="#DejaVuSans-Bold-63" transform="translate(527.148438 0)"/>
     <use xlink:href="#DejaVuSans-Bold-61" transform="translate(586.425781 0)"/>
     <use xlink:href="#DejaVuSans-Bold-74" transform="translate(653.90625 0)"/>
     <use xlink:href="#DejaVuSans-Bold-69" transform="translate(701.708984 0)"/>
     <use xlink:href="#DejaVuSans-Bold-6f" transform="translate(735.986328 0)"/>
     <use xlink:href="#DejaVuSans-Bold-6e" transform="translate(804.6875 0)"/>
     <use xlink:href="#DejaVuSans-Bold-20" transform="translate(875.878906 0)"/>
     <use xlink:href="#DejaVuSans-Bold-4c" transform="translate(910.693359 0)"/>
     <use xlink:href="#DejaVuSans-Bold-61" transform="translate(974.414062 0)"/>
     <use xlink:href="#DejaVuSans-Bold-79" transform="translate(1038.769531 0)"/>
     <use xlink:href="#DejaVuSans-Bold-65" transform="translate(1103.955078 0)"/>
     <use xlink:href="#DejaVuSans-Bold-72" transform="translate(1171.777344 0)"/>
    </g>
   </g>
   <g id="patch_17">
    <path d="M 100.215 254.304 
L 157.377857 254.304 
Q 158.781857 254.304 158.781857 252.9 
L 158.781857 189.72 
Q 158.781857 188.316 157.377857 188.316 
L 100.215 188.316 
Q 98.811 188.316 98.811 189.72 
L 98.811 252.9 
Q 98.811 254.304 100.215 254.304 
z
" clip-path="url(#p22f3c23422)" style="fill: #6c5ce7; opacity: 0.95; stroke: #333333; stroke-width: 1.2; stroke-linejoin: miter"/>
   </g>
   <g id="patch_18">
    <path d="M 167.907857 254.304 
L 225.070714 254.304 
Q 226.474714 254.304 226.474714 252.9 
L 226.474714 189.72 
Q 226.474714 188.316 225.070714 188.316 
L 167.907857 188.316 
Q 166.503857 188.316 166.503857 189.72 
L 166.503857 252.9 
Q 166.503857 254.304 167.907857 254.304 
z
" clip-path="url(#p22f3c23422)" style="fill: #6c5ce7; opacity: 0.95; stroke: #333333; stroke-width: 1.2; stroke-linejoin: miter"/>
   </g>
   <g id="patch_19">
    <path d="M 235.600714 254.304 
L 292.763571 254.304 
Q 294.167571 254.304 294.167571 252.9 
L 294.167571 189.72 
Q 294.167571 188.316 292.763571 188.316 
L 235.600714 188.316 
Q 234.196714 188.316 234.196714 189.72 
L 234.196714 252.9 
Q 234.196714 254.304 235.600714 254.304 
z
" clip-path="url(#p22f3c23422)" style="fill: #6c5ce7; opacity: 0.95; stroke: #333333; stroke-width: 1.2; stroke-linejoin: miter"/>
   </g>
   <g id="patch_20">
    <path d="M 303.293571 254.304 
L 360.456429 254.304 
Q 361.860429 254.304 361.860429 252.9 
L 361.860429 189.72 
Q 361.860429 188.316 360.456429 188.316 
L 303.293571 188.316 
Q 301.889571 188.316 301.889571 189.72 
L 301.889571 252.9 
Q 301.889571 254.304 303.293571 254.304 
z
" clip-path="url(#p22f3c23422)" style="fill: #6c5ce7; opacity: 0.95; stroke: #333333; stroke-width: 1.2; stroke-linejoin: miter"/>
   </g>
   <g id="patch_21">
    <path d="M 370.986429 254.304 
L 428.149286 254.304 
Q 429.553286 254.304 429.553286 252.9 
L 429.553286 189.72 
Q 429.553286 188.316 428.149286 188.316 
L 370.986429 188.316 
Q 369.582429 188.316 369.582429 189.72 
L 369.582429 252.9 
Q 369.582429 254.304 370.986429 254.304 
z
" clip-path="url(#p22f3c23422)" style="fill: #6c5ce7; opacity: 0.95; stroke: #333333; stroke-width: 1.2; stroke-linejoin: miter"/>
   </g>
   <g id="patch_22">
    <path d="M 438.679286 254.304 
L 495.842143 254.304 
Q 497.246143 254.304 497.246143 252.9 
L 497.246143 189.72 
Q 497.246143 188.316 495.842143 188.316 
L 438.679286 188.316 
Q 437.275286 188.316 437.275286 189.72 
L 437.275286 252.9 
Q 437.275286 254.304 438.679286 254.304 
z
" clip-path="url(#p22f3c23422)" style="fill: #6c5ce7; opacity: 0.95; stroke: #333333; stroke-width: 1.2; stroke-linejoin: miter"/>
   </g>
   <g id="patch_23">
    <path d="M 506.372143 254.304 
L 563.535 254.304 
Q 564.939 254.304 564.939 252.9 
L 564.939 189.72 
Q 564.939 188.316 563.535 188.316 
L 506.372143 188.316 
Q 504.968143 188.316 504.968143 189.72 
L 504.968143 252.9 
Q 504.968143 254.304 506.372143 254.304 
z
" clip-path="url(#p22f3c23422)" style="fill: #6c5ce7; opacity: 0.95; stroke: #333333; stroke-width: 1.2; stroke-linejoin: miter"/>
   </g>
   <g id="patch_24">
    <path d="M 574.065 254.304 
L 631.227857 254.304 
Q 632.631857 254.304 632.631857 252.9 
L 632.631857 189.72 
Q 632.631857 188.316 631.227857 188.316 
L 574.065 188.316 
Q 572.661 188.316 572.661 189.72 
L 572.661 252.9 
Q 572.661 254.304 574.065 254.304 
z
" clip-path="url(#p22f3c23422)" style="fill: #6c5ce7; opacity: 0.95; stroke: #333333; stroke-width: 1.2; stroke-linejoin: miter"/>
   </g>
   <g id="patch_25">
    <path d="M 641.757857 254.304 
L 698.920714 254.304 
Q 700.324714 254.304 700.324714 252.9 
L 700.324714 189.72 
Q 700.324714 188.316 698.920714 188.316 
L 641.757857 188.316 
Q 640.353857 188.316 640.353857 189.72 
L 640.353857 252.9 
Q 640.353857 254.304 641.757857 254.304 
z
" clip-path="url(#p22f3c23422)" style="fill: #6c5ce7; opacity: 0.95; stroke: #333333; stroke-width: 1.2; stroke-linejoin: miter"/>
   </g>
   <g id="patch_26">
    <path d="M 709.450714 254.304 
L 766.613571 254.304 
Q 768.017571 254.304 768.017571 252.9 
L 768.017571 189.72 
Q 768.017571 188.316 766.613571 188.316 
L 709.450714 188.316 
Q 708.046714 188.316 708.046714 189.72 
L 708.046714 252.9 
Q 708.046714 254.304 709.450714 254.304 
z
" clip-path="url(#p22f3c23422)" style="fill: #6c5ce7; opacity: 0.95; stroke: #333333; stroke-width: 1.2; stroke-linejoin: miter"/>
   </g>
   <g id="patch_27">
    <path d="M 777.143571 254.304 
L 834.306429 254.304 
Q 835.710429 254.304 835.710429 252.9 
L 835.710429 189.72 
Q 835.710429 188.316 834.306429 188.316 
L 777.143571 188.316 
Q 775.739571 188.316 775.739571 189.72 
L 775.739571 252.9 
Q 775.739571 254.304 777.143571 254.304 
z
" clip-path="url(#p22f3c23422)" style="fill: #6c5ce7; opacity: 0.95; stroke: #333333; stroke-width: 1.2; stroke-linejoin: miter"/>
   </g>
   <g id="patch_28">
    <path d="M 844.836429 254.304 
L 901.999286 254.304 
Q 903.403286 254.304 903.403286 252.9 
L 903.403286 189.72 
Q 903.403286 188.316 901.999286 188.316 
L 844.836429 188.316 
Q 843.432429 188.316 843.432429 189.72 
L 843.432429 252.9 
Q 843.432429 254.304 844.836429 254.304 
z
" clip-path="url(#p22f3c23422)" style="fill: #6c5ce7; opacity: 0.95; stroke: #333333; stroke-width: 1.2; stroke-linejoin: miter"/>
   </g>
   <g id="patch_29">
    <path d="M 912.529286 254.304 
L 969.692143 254.304 
Q 971.096143 254.304 971.096143 252.9 
L 971.096143 189.72 
Q 971.096143 188.316 969.692143 188.316 
L 912.529286 188.316 
Q 911.125286 188.316 911.125286 189.72 
L 911.125286 252.9 
Q 911.125286 254.304 912.529286 254.304 
z
" clip-path="url(#p22f3c23422)" style="fill: #6c5ce7; opacity: 0.95; stroke: #333333; stroke-width: 1.2; stroke-linejoin: miter"/>
   </g>
   <g id="patch_30">
    <path d="M 980.222143 254.304 
L 1037.385 254.304 
Q 1038.789 254.304 1038.789 252.9 
L 1038.789 189.72 
Q 1038.789 188.316 1037.385 188.316 
L 980.222143 188.316 
Q 978.818143 188.316 978.818143 189.72 
L 978.818143 252.9 
Q 978.818143 254.304 980.222143 254.304 
z
" clip-path="url(#p22f3c23422)" style="fill: #6c5ce7; opacity: 0.95; stroke: #333333; stroke-width: 1.2; stroke-linejoin: miter"/>
   </g>
   <g id="text_4">
    <!-- Agent Core Layer -->
    <g style="fill: #0984e3" transform="translate(91.44 310.605375) scale(0.11 -0.11)">
     <defs>
      <path id="DejaVuSans-Bold-41" d="M 3419 850 
L 1538 850 
L 1241 0 
L 31 0 
L 1759 4666 
L 3194 4666 
L 4922 0 
L 3713 0 
L 3419 850 
z
M 1838 1716 
L 3116 1716 
L 2478 3572 
L 1838 1716 
z
" transform="scale(0.015625)"/>
     </defs>
     <use xlink:href="#DejaVuSans-Bold-41"/>
     <use xlink:href="#DejaVuSans-Bold-67" transform="translate(77.392578 0)"/>
     <use xlink:href="#DejaVuSans-Bold-65" transform="translate(148.974609 0)"/>
     <use xlink:href="#DejaVuSans-Bold-6e" transform="translate(216.796875 0)"/>
     <use xlink:href="#DejaVuSans-Bold-74" transform="translate(287.988281 0)"/>
     <use xlink:href="#DejaVuSans-Bold-20" transform="translate(335.791016 0)"/>
     <use xlink:href="#DejaVuSans-Bold-43" transform="translate(370.605469 0)"/>
     <use xlink:href="#DejaVuSans-Bold-6f" transform="translate(443.994141 0)"/>
     <use xlink:href="#DejaVuSans-Bold-72" transform="translate(512.695312 0)"/>
     <use xlink:href="#DejaVuSans-Bold-65" transform="translate(562.011719 0)"/>
     <use xlink:href="#DejaVuSans-Bold-20" transform="translate(629.833984 0)"/>
     <use xlink:href="#DejaVuSans-Bold-4c" transform="translate(664.648438 0)"/>
     <use xlink:href="#DejaVuSans-Bold-61" transform="translate(728.369141 0)"/>
     <use xlink:href="#DejaVuSans-Bold-79" transform="translate(792.724609 0)"/>
     <use xlink:href="#DejaVuSans-Bold-65" transform="translate(857.910156 0)"/>
     <use xlink:href="#DejaVuSans-Bold-72" transform="translate(925.732422 0)"/>
    </g>
   </g>
   <g id="patch_31">
    <path d="M 100.215 394.704 
L 225.070714 394.704 
Q 226.474714 394.704 226.474714 393.3 
L 226.474714 330.12 
Q 226.474714 328.716 225.070714 328.716 
L 100.215 328.716 
Q 98.811 328.716 98.811 330.12 
L 98.811 393.3 
Q 98.811 394.704 100.215 394.704 
z
" clip-path="url(#p22f3c23422)" style="fill: #0984e3; opacity: 0.95; stroke: #333333; stroke-width: 1.2; stroke-linejoin: miter"/>
   </g>
   <g id="patch_32">
    <path d="M 235.600714 394.704 
L 360.456429 394.704 
Q 361.860429 394.704 361.860429 393.3 
L 361.860429 330.12 
Q 361.860429 328.716 360.456429 328.716 
L 235.600714 328.716 
Q 234.196714 328.716 234.196714 330.12 
L 234.196714 393.3 
Q 234.196714 394.704 235.600714 394.704 
z
" clip-path="url(#p22f3c23422)" style="fill: #0984e3; opacity: 0.95; stroke: #333333; stroke-width: 1.2; stroke-linejoin: miter"/>
   </g>
   <g id="patch_33">
    <path d="M 370.986429 394.704 
L 495.842143 394.704 
Q 497.246143 394.704 497.246143 393.3 
L 497.246143 330.12 
Q 497.246143 328.716 495.842143 328.716 
L 370.986429 328.716 
Q 369.582429 328.716 369.582429 330.12 
L 369.582429 393.3 
Q 369.582429 394.704 370.986429 394.704 
z
" clip-path="url(#p22f3c23422)" style="fill: #0984e3; opacity: 0.95; stroke: #333333; stroke-width: 1.2; stroke-linejoin: miter"/>
   </g>
   <g id="patch_34">
    <path d="M 506.372143 394.704 
L 631.227857 394.704 
Q 632.631857 394.704 632.631857 393.3 
L 632.631857 330.12 
Q 632.631857 328.716 631.227857 328.716 
L 506.372143 328.716 
Q 504.968143 328.716 504.968143 330.12 
L 504.968143 393.3 
Q 504.968143 394.704 506.372143 394.704 
z
" clip-path="url(#p22f3c23422)" style="fill: #0984e3; opacity: 0.95; stroke: #333333; stroke-width: 1.2; stroke-linejoin: miter"/>
   </g>
   <g id="patch_35">
    <path d="M 641.757857 394.704 
L 766.613571 394.704 
Q 768.017571 394.704 768.017571 393.3 
L 768.017571 330.12 
Q 768.017571 328.716 766.613571 328.716 
L 641.757857 328.716 
Q 640.353857 328.716 640.353857 330.12 
L 640.353857 393.3 
Q 640.353857 394.704 641.757857 394.704 
z
" clip-path="url(#p22f3c23422)" style="fill: #0984e3; opacity: 0.95; stroke: #333333; stroke-width: 1.2; stroke-linejoin: miter"/>
   </g>
   <g id="patch_36">
    <path d="M 777.143571 394.704 
L 901.999286 394.704 
Q 903.403286 394.704 903.403286 393.3 
L 903.403286 330.12 
Q 903.403286 328.716 901.999286 328.716 
L 777.143571 328.716 
Q 775.739571 328.716 775.739571 330.12 
L 775.739571 393.3 
Q 775.739571 394.704 777.143571 394.704 
z
" clip-path="url(#p22f3c23422)" style="fill: #0984e3; opacity: 0.95; stroke: #333333; stroke-width: 1.2; stroke-linejoin: miter"/>
   </g>
   <g id="patch_37">
    <path d="M 912.529286 394.704 
L 1037.385 394.704 
Q 1038.789 394.704 1038.789 393.3 
L 1038.789 330.12 
Q 1038.789 328.716 1037.385 328.716 
L 912.529286 328.716 
Q 911.125286 328.716 911.125286 330.12 
L 911.125286 393.3 
Q 911.125286 394.704 912.529286 394.704 
z
" clip-path="url(#p22f3c23422)" style="fill: #0984e3; opacity: 0.95; stroke: #333333; stroke-width: 1.2; stroke-linejoin: miter"/>
   </g>
   <g id="text_5">
    <!-- Service Layer -->
    <g style="fill: #e17055" transform="translate(91.44 451.048344) scale(0.11 -0.11)">
     <defs>
      <path id="DejaVuSans-Bold-76" d="M 97 3500 
L 1216 3500 
L 2088 1081 
L 2956 3500 
L 4078 3500 
L 2700 0 
L 1472 0 
L 97 3500 
z
" transform="scale(0.015625)"/>
     </defs>
     <use xlink:href="#DejaVuSans-Bold-53"/>
     <use xlink:href="#DejaVuSans-Bold-65" transform="translate(72.021484 0)"/>
     <use xlink:href="#DejaVuSans-Bold-72" transform="translate(139.84375 0)"/>
     <use xlink:href="#DejaVuSans-Bold-76" transform="translate(189.160156 0)"/>
     <use xlink:href="#DejaVuSans-Bold-69" transform="translate(254.345703 0)"/>
     <use xlink:href="#DejaVuSans-Bold-63" transform="translate(288.623047 0)"/>
     <use xlink:href="#DejaVuSans-Bold-65" transform="translate(347.900391 0)"/>
     <use xlink:href="#DejaVuSans-Bold-20" transform="translate(415.722656 0)"/>
     <use xlink:href="#DejaVuSans-Bold-4c" transform="translate(450.537109 0)"/>
     <use xlink:href="#DejaVuSans-Bold-61" transform="translate(514.257812 0)"/>
     <use xlink:href="#DejaVuSans-Bold-79" transform="translate(578.613281 0)"/>
     <use xlink:href="#DejaVuSans-Bold-65" transform="translate(643.798828 0)"/>
     <use xlink:href="#DejaVuSans-Bold-72" transform="translate(711.621094 0)"/>
    </g>
   </g>
   <g id="patch_38">
    <path d="M 100.215 535.104 
L 225.070714 535.104 
Q 226.474714 535.104 226.474714 533.7 
L 226.474714 470.52 
Q 226.474714 469.116 225.070714 469.116 
L 100.215 469.116 
Q 98.811 469.116 98.811 470.52 
L 98.811 533.7 
Q 98.811 535.104 100.215 535.104 
z
" clip-path="url(#p22f3c23422)" style="fill: #e17055; opacity: 0.95; stroke: #333333; stroke-width: 1.2; stroke-linejoin: miter"/>
   </g>
   <g id="patch_39">
    <path d="M 235.600714 535.104 
L 360.456429 535.104 
Q 361.860429 535.104 361.860429 533.7 
L 361.860429 470.52 
Q 361.860429 469.116 360.456429 469.116 
L 235.600714 469.116 
Q 234.196714 469.116 234.196714 470.52 
L 234.196714 533.7 
Q 234.196714 535.104 235.600714 535.104 
z
" clip-path="url(#p22f3c23422)" style="fill: #e17055; opacity: 0.95; stroke: #333333; stroke-width: 1.2; stroke-linejoin: miter"/>
   </g>
   <g id="patch_40">
    <path d="M 370.986429 535.104 
L 495.842143 535.104 
Q 497.246143 535.104 497.246143 533.7 
L 497.246143 470.52 
Q 497.246143 469.116 495.842143 469.116 
L 370.986429 469.116 
Q 369.582429 469.116 369.582429 470.52 
L 369.582429 533.7 
Q 369.582429 535.104 370.986429 535.104 
z
" clip-path="url(#p22f3c23422)" style="fill: #e17055; opacity: 0.95; stroke: #333333; stroke-width: 1.2; stroke-linejoin: miter"/>
   </g>
   <g id="patch_41">
    <path d="M 506.372143 535.104 
L 631.227857 535.104 
Q 632.631857 535.104 632.631857 533.7 
L 632.631857 470.52 
Q 632.631857 469.116 631.227857 469.116 
L 506.372143 469.116 
Q 504.968143 469.116 504.968143 470.52 
L 504.968143 533.7 
Q 504.968143 535.104 506.372143 535.104 
z
" clip-path="url(#p22f3c23422)" style="fill: #e17055; opacity: 0.95; stroke: #333333; stroke-width: 1.2; stroke-linejoin: miter"/>
   </g>
   <g id="patch_42">
    <path d="M 641.757857 535.104 
L 766.613571 535.104 
Q 768.017571 535.104 768.017571 533.7 
L 768.017571 470.52 
Q 768.017571 469.116 766.613571 469.116 
L 641.757857 469.116 
Q 640.353857 469.116 640.353857 470.52 
L 640.353857 533.7 
Q 640.353857 535.104 641.757857 535.104 
z
" clip-path="url(#p22f3c23422)" style="fill: #e17055; opacity: 0.95; stroke: #333333; stroke-width: 1.2; stroke-linejoin: miter"/>
   </g>
   <g id="patch_43">
    <path d="M 777.143571 535.104 
L 901.999286 535.104 
Q 903.403286 535.104 903.403286 533.7 
L 903.403286 470.52 
Q 903.403286 469.116 901.999286 469.116 
L 777.143571 469.116 
Q 775.739571 469.116 775.739571 470.52 
L 775.739571 533.7 
Q 775.739571 535.104 777.143571 535.104 
z
" clip-path="url(#p22f3c23422)" style="fill: #e17055; opacity: 0.95; stroke: #333333; stroke-width: 1.2; stroke-linejoin: miter"/>
   </g>
   <g id="patch_44">
    <path d="M 912.529286 535.104 
L 1037.385 535.104 
Q 1038.789 535.104 1038.789 533.7 
L 1038.789 470.52 
Q 1038.789 469.116 1037.385 469.116 
L 912.529286 469.116 
Q 911.125286 469.116 911.125286 470.52 
L 911.125286 533.7 
Q 911.125286 535.104 912.529286 535.104 
z
" clip-path="url(#p22f3c23422)" style="fill: #e17055; opacity: 0.95; stroke: #333333; stroke-width: 1.2; stroke-linejoin: miter"/>
   </g>
   <g id="text_6">
    <!-- Integration Layer -->
    <g style="fill: #fdcb6e" transform="translate(91.44 591.448344) scale(0.11 -0.11)">
     <use xlink:href="#DejaVuSans-Bold-49"/>
     <use xlink:href="#DejaVuSans-Bold-6e" transform="translate(37.207031 0)"/>
     <use xlink:href="#DejaVuSans-Bold-74" transform="translate(108.398438 0)"/>
     <use xlink:href="#DejaVuSans-Bold-65" transform="translate(156.201172 0)"/>
     <use xlink:href="#DejaVuSans-Bold-67" transform="translate(224.023438 0)"/>
     <use xlink:href="#DejaVuSans-Bold-72" transform="translate(295.605469 0)"/>
     <use xlink:href="#DejaVuSans-Bold-61" transform="translate(344.921875 0)"/>
     <use xlink:href="#DejaVuSans-Bold-74" transform="translate(412.402344 0)"/>
     <use xlink:href="#DejaVuSans-Bold-69" transform="translate(460.205078 0)"/>
     <use xlink:href="#DejaVuSans-Bold-6f" transform="translate(494.482422 0)"/>
     <use xlink:href="#DejaVuSans-Bold-6e" transform="translate(563.183594 0)"/>
     <use xlink:href="#DejaVuSans-Bold-20" transform="translate(634.375 0)"/>
     <use xlink:href="#DejaVuSans-Bold-4c" transform="translate(669.189453 0)"/>
     <use xlink:href="#DejaVuSans-Bold-61" transform="translate(732.910156 0)"/>
     <use xlink:href="#DejaVuSans-Bold-79" transform="translate(797.265625 0)"/>
     <use xlink:href="#DejaVuSans-Bold-65" transform="translate(862.451172 0)"/>
     <use xlink:href="#DejaVuSans-Bold-72" transform="translate(930.273438 0)"/>
    </g>
   </g>
   <g id="patch_45">
    <path d="M 110.745 675.504 
L 254.655 675.504 
Q 256.059 675.504 256.059 674.1 
L 256.059 610.92 
Q 256.059 609.516 254.655 609.516 
L 110.745 609.516 
Q 109.341 609.516 109.341 610.92 
L 109.341 674.1 
Q 109.341 675.504 110.745 675.504 
z
" clip-path="url(#p22f3c23422)" style="fill: #fdcb6e; opacity: 0.95; stroke: #333333; stroke-width: 1.2; stroke-linejoin: miter"/>
   </g>
   <g id="patch_46">
    <path d="M 265.185 675.504 
L 409.095 675.504 
Q 410.499 675.504 410.499 674.1 
L 410.499 610.92 
Q 410.499 609.516 409.095 609.516 
L 265.185 609.516 
Q 263.781 609.516 263.781 610.92 
L 263.781 674.1 
Q 263.781 675.504 265.185 675.504 
z
" clip-path="url(#p22f3c23422)" style="fill: #fdcb6e; opacity: 0.95; stroke: #333333; stroke-width: 1.2; stroke-linejoin: miter"/>
   </g>
   <g id="patch_47">
    <path d="M 419.625 675.504 
L 563.535 675.504 
Q 564.939 675.504 564.939 674.1 
L 564.939 610.92 
Q 564.939 609.516 563.535 609.516 
L 419.625 609.516 
Q 418.221 609.516 418.221 610.92 
L 418.221 674.1 
Q 418.221 675.504 419.625 675.504 
z
" clip-path="url(#p22f3c23422)" style="fill: #fdcb6e; opacity: 0.95; stroke: #333333; stroke-width: 1.2; stroke-linejoin: miter"/>
   </g>
   <g id="patch_48">
    <path d="M 574.065 675.504 
L 717.975 675.504 
Q 719.379 675.504 719.379 674.1 
L 719.379 610.92 
Q 719.379 609.516 717.975 609.516 
L 574.065 609.516 
Q 572.661 609.516 572.661 610.92 
L 572.661 674.1 
Q 572.661 675.504 574.065 675.504 
z
" clip-path="url(#p22f3c23422)" style="fill: #fdcb6e; opacity: 0.95; stroke: #333333; stroke-width: 1.2; stroke-linejoin: miter"/>
   </g>
   <g id="patch_49">
    <path d="M 728.505 675.504 
L 872.415 675.504 
Q 873.819 675.504 873.819 674.1 
L 873.819 610.92 
Q 873.819 609.516 872.415 609.516 
L 728.505 609.516 
Q 727.101 609.516 727.101 610.92 
L 727.101 674.1 
Q 727.101 675.504 728.505 675.504 
z
" clip-path="url(#p22f3c23422)" style="fill: #fdcb6e; opacity: 0.95; stroke: #333333; stroke-width: 1.2; stroke-linejoin: miter"/>
   </g>
   <g id="patch_50">
    <path d="M 882.945 675.504 
L 1026.855 675.504 
Q 1028.259 675.504 1028.259 674.1 
L 1028.259 610.92 
Q 1028.259 609.516 1026.855 609.516 
L 882.945 609.516 
Q 881.541 609.516 881.541 610.92 
L 881.541 674.1 
Q 881.541 675.504 882.945 675.504 
z
" clip-path="url(#p22f3c23422)" style="fill: #fdcb6e; opacity: 0.95; stroke: #333333; stroke-width: 1.2; stroke-linejoin: miter"/>
   </g>
   <g id="text_7">
    <!-- Infrastructure Layer -->
    <g style="fill: #636e72" transform="translate(91.44 731.848344) scale(0.11 -0.11)">
     <use xlink:href="#DejaVuSans-Bold-49"/>
     <use xlink:href="#DejaVuSans-Bold-6e" transform="translate(37.207031 0)"/>
     <use xlink:href="#DejaVuSans-Bold-66" transform="translate(108.398438 0)"/>
     <use xlink:href="#DejaVuSans-Bold-72" transform="translate(151.904297 0)"/>
     <use xlink:href="#DejaVuSans-Bold-61" transform="translate(201.220703 0)"/>
     <use xlink:href="#DejaVuSans-Bold-73" transform="translate(268.701172 0)"/>
     <use xlink:href="#DejaVuSans-Bold-74" transform="translate(328.222656 0)"/>
     <use xlink:href="#DejaVuSans-Bold-72" transform="translate(376.025391 0)"/>
     <use xlink:href="#DejaVuSans-Bold-75" transform="translate(425.341797 0)"/>
     <use xlink:href="#DejaVuSans-Bold-63" transform="translate(496.533203 0)"/>
     <use xlink:href="#DejaVuSans-Bold-74" transform="translate(555.810547 0)"/>
     <use xlink:href="#DejaVuSans-Bold-75" transform="translate(603.613281 0)"/>
     <use xlink:href="#DejaVuSans-Bold-72" transform="translate(674.804688 0)"/>
     <use xlink:href="#DejaVuSans-Bold-65" transform="translate(724.121094 0)"/>
     <use xlink:href="#DejaVuSans-Bold-20" transform="translate(791.943359 0)"/>
     <use xlink:href="#DejaVuSans-Bold-4c" transform="translate(826.757812 0)"/>
     <use xlink:href="#DejaVuSans-Bold-61" transform="translate(890.478516 0)"/>
     <use xlink:href="#DejaVuSans-Bold-79" transform="translate(954.833984 0)"/>
     <use xlink:href="#DejaVuSans-Bold-65" transform="translate(1020.019531 0)"/>
     <use xlink:href="#DejaVuSans-Bold-72" transform="translate(1087.841797 0)"/>
    </g>
   </g>
   <g id="patch_51">
    <path d="M 100.215 815.904 
L 225.070714 815.904 
Q 226.474714 815.904 226.474714 814.5 
L 226.474714 751.32 
Q 226.474714 749.916 225.070714 749.916 
L 100.215 749.916 
Q 98.811 749.916 98.811 751.32 
L 98.811 814.5 
Q 98.811 815.904 100.215 815.904 
z
" clip-path="url(#p22f3c23422)" style="fill: #636e72; opacity: 0.95; stroke: #333333; stroke-width: 1.2; stroke-linejoin: miter"/>
   </g>
   <g id="patch_52">
    <path d="M 235.600714 815.904 
L 360.456429 815.904 
Q 361.860429 815.904 361.860429 814.5 
L 361.860429 751.32 
Q 361.860429 749.916 360.456429 749.916 
L 235.600714 749.916 
Q 234.196714 749.916 234.196714 751.32 
L 234.196714 814.5 
Q 234.196714 815.904 235.600714 815.904 
z
" clip-path="url(#p22f3c23422)" style="fill: #636e72; opacity: 0.95; stroke: #333333; stroke-width: 1.2; stroke-linejoin: miter"/>
   </g>
   <g id="patch_53">
    <path d="M 370.986429 815.904 
L 495.842143 815.904 
Q 497.246143 815.904 497.246143 814.5 
L 497.246143 751.32 
Q 497.246143 749.916 495.842143 749.916 
L 370.986429 749.916 
Q 369.582429 749.916 369.582429 751.32 
L 369.582429 814.5 
Q 369.582429 815.904 370.986429 815.904 
z
" clip-path="url(#p22f3c23422)" style="fill: #636e72; opacity: 0.95; stroke: #333333; stroke-width: 1.2; stroke-linejoin: miter"/>
   </g>
   <g id="patch_54">
    <path d="M 506.372143 815.904 
L 631.227857 815.904 
Q 632.631857 815.904 632.631857 814.5 
L 632.631857 751.32 
Q 632.631857 749.916 631.227857 749.916 
L 506.372143 749.916 
Q 504.968143 749.916 504.968143 751.32 
L 504.968143 814.5 
Q 504.968143 815.904 506.372143 815.904 
z
" clip-path="url(#p22f3c23422)" style="fill: #636e72; opacity: 0.95; stroke: #333333; stroke-width: 1.2; stroke-linejoin: miter"/>
   </g>
   <g id="patch_55">
    <path d="M 641.757857 815.904 
L 766.613571 815.904 
Q 768.017571 815.904 768.017571 814.5 
L 768.017571 751.32 
Q 768.017571 749.916 766.613571 749.916 
L 641.757857 749.916 
Q 640.353857 749.916 640.353857 751.32 
L 640.353857 814.5 
Q 640.353857 815.904 641.757857 815.904 
z
" clip-path="url(#p22f3c23422)" style="fill: #636e72; opacity: 0.95; stroke: #333333; stroke-width: 1.2; stroke-linejoin: miter"/>
   </g>
   <g id="patch_56">
    <path d="M 777.143571 815.904 
L 901.999286 815.904 
Q 903.403286 815.904 903.403286 814.5 
L 903.403286 751.32 
Q 903.403286 749.916 901.999286 749.916 
L 777.143571 749.916 
Q 775.739571 749.916 775.739571 751.32 
L 775.739571 814.5 
Q 775.739571 815.904 777.143571 815.904 
z
" clip-path="url(#p22f3c23422)" style="fill: #636e72; opacity: 0.95; stroke: #333333; stroke-width: 1.2; stroke-linejoin: miter"/>
   </g>
   <g id="patch_57">
    <path d="M 912.529286 815.904 
L 1037.385 815.904 
Q 1038.789 815.904 1038.789 814.5 
L 1038.789 751.32 
Q 1038.789 749.916 1037.385 749.916 
L 912.529286 749.916 
Q 911.125286 749.916 911.125286 751.32 
L 911.125286 814.5 
Q 911.125286 815.904 912.529286 815.904 
z
" clip-path="url(#p22f3c23422)" style="fill: #636e72; opacity: 0.95; stroke: #333333; stroke-width: 1.2; stroke-linejoin: miter"/>
   </g>
   <g id="text_8">
    <!-- CLI (Typer) -->
    <g style="fill: #ffffff" transform="translate(391.455703 82.946133) scale(0.075 -0.075)">
     <defs>
      <path id="DejaVuSans-Bold-28" d="M 2413 -844 
L 1484 -844 
Q 1006 -72 778 623 
Q 550 1319 550 2003 
Q 550 2688 779 3389 
Q 1009 4091 1484 4856 
L 2413 4856 
Q 2013 4116 1813 3408 
Q 1613 2700 1613 2009 
Q 1613 1319 1811 609 
Q 2009 -100 2413 -844 
z
" transform="scale(0.015625)"/>
      <path id="DejaVuSans-Bold-70" d="M 1656 506 
L 1656 -1331 
L 538 -1331 
L 538 3500 
L 1656 3500 
L 1656 2988 
Q 1888 3294 2169 3439 
Q 2450 3584 2816 3584 
Q 3463 3584 3878 3070 
Q 4294 2556 4294 1747 
Q 4294 938 3878 423 
Q 3463 -91 2816 -91 
Q 2450 -91 2169 54 
Q 1888 200 1656 506 
z
M 2400 2772 
Q 2041 2772 1848 2508 
Q 1656 2244 1656 1747 
Q 1656 1250 1848 986 
Q 2041 722 2400 722 
Q 2759 722 2948 984 
Q 3138 1247 3138 1747 
Q 3138 2247 2948 2509 
Q 2759 2772 2400 2772 
z
" transform="scale(0.015625)"/>
      <path id="DejaVuSans-Bold-29" d="M 513 -844 
Q 913 -100 1113 609 
Q 1313 1319 1313 2009 
Q 1313 2700 1113 3408 
Q 913 4116 513 4856 
L 1441 4856 
Q 1916 4091 2145 3389 
Q 2375 2688 2375 2003 
Q 2375 1319 2147 623 
Q 1919 -72 1441 -844 
L 513 -844 
z
" transform="scale(0.015625)"/>
     </defs>
     <use xlink:href="#DejaVuSans-Bold-43"/>
     <use xlink:href="#DejaVuSans-Bold-4c" transform="translate(73.388672 0)"/>
     <use xlink:href="#DejaVuSans-Bold-49" transform="translate(137.109375 0)"/>
     <use xlink:href="#DejaVuSans-Bold-20" transform="translate(174.316406 0)"/>
     <use xlink:href="#DejaVuSans-Bold-28" transform="translate(209.130859 0)"/>
     <use xlink:href="#DejaVuSans-Bold-54" transform="translate(254.833984 0)"/>
     <use xlink:href="#DejaVuSans-Bold-79" transform="translate(311.171875 0)"/>
     <use xlink:href="#DejaVuSans-Bold-70" transform="translate(376.357422 0)"/>
     <use xlink:href="#DejaVuSans-Bold-65" transform="translate(447.939453 0)"/>
     <use xlink:href="#DejaVuSans-Bold-72" transform="translate(515.761719 0)"/>
     <use xlink:href="#DejaVuSans-Bold-29" transform="translate(565.078125 0)"/>
    </g>
   </g>
   <g id="text_9">
    <!-- WebUI (React + Vite) -->
    <g style="fill: #ffffff" transform="translate(524.210156 82.979531) scale(0.075 -0.075)">
     <defs>
      <path id="DejaVuSans-Bold-57" d="M 191 4666 
L 1344 4666 
L 2150 1275 
L 2950 4666 
L 4109 4666 
L 4909 1275 
L 5716 4666 
L 6859 4666 
L 5759 0 
L 4372 0 
L 3525 3547 
L 2688 0 
L 1300 0 
L 191 4666 
z
" transform="scale(0.015625)"/>
      <path id="DejaVuSans-Bold-62" d="M 2400 722 
Q 2759 722 2948 984 
Q 3138 1247 3138 1747 
Q 3138 2247 2948 2509 
Q 2759 2772 2400 2772 
Q 2041 2772 1848 2508 
Q 1656 2244 1656 1747 
Q 1656 1250 1848 986 
Q 2041 722 2400 722 
z
M 1656 2988 
Q 1888 3294 2169 3439 
Q 2450 3584 2816 3584 
Q 3463 3584 3878 3070 
Q 4294 2556 4294 1747 
Q 4294 938 3878 423 
Q 3463 -91 2816 -91 
Q 2450 -91 2169 54 
Q 1888 200 1656 506 
L 1656 0 
L 538 0 
L 538 4863 
L 1656 4863 
L 1656 2988 
z
" transform="scale(0.015625)"/>
      <path id="DejaVuSans-Bold-52" d="M 2297 2597 
Q 2675 2597 2839 2737 
Q 3003 2878 3003 3200 
Q 3003 3519 2839 3656 
Q 2675 3794 2297 3794 
L 1791 3794 
L 1791 2597 
L 2297 2597 
z
M 1791 1766 
L 1791 0 
L 588 0 
L 588 4666 
L 2425 4666 
Q 3347 4666 3776 4356 
Q 4206 4047 4206 3378 
Q 4206 2916 3982 2619 
Q 3759 2322 3309 2181 
Q 3556 2125 3751 1926 
Q 3947 1728 4147 1325 
L 4800 0 
L 3519 0 
L 2950 1159 
Q 2778 1509 2601 1637 
Q 2425 1766 2131 1766 
L 1791 1766 
z
" transform="scale(0.015625)"/>
      <path id="DejaVuSans-Bold-2b" d="M 3053 4013 
L 3053 2375 
L 4684 2375 
L 4684 1638 
L 3053 1638 
L 3053 0 
L 2309 0 
L 2309 1638 
L 678 1638 
L 678 2375 
L 2309 2375 
L 2309 4013 
L 3053 4013 
z
" transform="scale(0.015625)"/>
      <path id="DejaVuSans-Bold-56" d="M 31 4666 
L 1241 4666 
L 2478 1222 
L 3713 4666 
L 4922 4666 
L 3194 0 
L 1759 0 
L 31 4666 
z
" transform="scale(0.015625)"/>
     </defs>
     <use xlink:href="#DejaVuSans-Bold-57"/>
     <use xlink:href="#DejaVuSans-Bold-65" transform="translate(106.677734 0)"/>
     <use xlink:href="#DejaVuSans-Bold-62" transform="translate(174.5 0)"/>
     <use xlink:href="#DejaVuSans-Bold-55" transform="translate(246.082031 0)"/>
     <use xlink:href="#DejaVuSans-Bold-49" transform="translate(327.283203 0)"/>
     <use xlink:href="#DejaVuSans-Bold-20" transform="translate(364.490234 0)"/>
     <use xlink:href="#DejaVuSans-Bold-28" transform="translate(399.304688 0)"/>
     <use xlink:href="#DejaVuSans-Bold-52" transform="translate(445.007812 0)"/>
     <use xlink:href="#DejaVuSans-Bold-65" transform="translate(522.009766 0)"/>
     <use xlink:href="#DejaVuSans-Bold-61" transform="translate(589.832031 0)"/>
     <use xlink:href="#DejaVuSans-Bold-63" transform="translate(657.3125 0)"/>
     <use xlink:href="#DejaVuSans-Bold-74" transform="translate(716.589844 0)"/>
     <use xlink:href="#DejaVuSans-Bold-20" transform="translate(764.392578 0)"/>
     <use xlink:href="#DejaVuSans-Bold-2b" transform="translate(799.207031 0)"/>
     <use xlink:href="#DejaVuSans-Bold-20" transform="translate(882.996094 0)"/>
     <use xlink:href="#DejaVuSans-Bold-56" transform="translate(917.810547 0)"/>
     <use xlink:href="#DejaVuSans-Bold-69" transform="translate(993.453125 0)"/>
     <use xlink:href="#DejaVuSans-Bold-74" transform="translate(1027.730469 0)"/>
     <use xlink:href="#DejaVuSans-Bold-65" transform="translate(1075.533203 0)"/>
     <use xlink:href="#DejaVuSans-Bold-29" transform="translate(1143.355469 0)"/>
    </g>
   </g>
   <g id="text_10">
    <!-- OpenAI Compatible API -->
    <g style="fill: #ffffff" transform="translate(674.158359 82.979531) scale(0.075 -0.075)">
     <defs>
      <path id="DejaVuSans-Bold-4f" d="M 2719 3878 
Q 2169 3878 1866 3472 
Q 1563 3066 1563 2328 
Q 1563 1594 1866 1187 
Q 2169 781 2719 781 
Q 3272 781 3575 1187 
Q 3878 1594 3878 2328 
Q 3878 3066 3575 3472 
Q 3272 3878 2719 3878 
z
M 2719 4750 
Q 3844 4750 4481 4106 
Q 5119 3463 5119 2328 
Q 5119 1197 4481 553 
Q 3844 -91 2719 -91 
Q 1597 -91 958 553 
Q 319 1197 319 2328 
Q 319 3463 958 4106 
Q 1597 4750 2719 4750 
z
" transform="scale(0.015625)"/>
      <path id="DejaVuSans-Bold-50" d="M 588 4666 
L 2584 4666 
Q 3475 4666 3951 4270 
Q 4428 3875 4428 3144 
Q 4428 2409 3951 2014 
Q 3475 1619 2584 1619 
L 1791 1619 
L 1791 0 
L 588 0 
L 588 4666 
z
M 1791 3794 
L 1791 2491 
L 2456 2491 
Q 2806 2491 2997 2661 
Q 3188 2831 3188 3144 
Q 3188 3456 2997 3625 
Q 2806 3794 2456 3794 
L 1791 3794 
z
" transform="scale(0.015625)"/>
     </defs>
     <use xlink:href="#DejaVuSans-Bold-4f"/>
     <use xlink:href="#DejaVuSans-Bold-70" transform="translate(85.009766 0)"/>
     <use xlink:href="#DejaVuSans-Bold-65" transform="translate(156.591797 0)"/>
     <use xlink:href="#DejaVuSans-Bold-6e" transform="translate(224.414062 0)"/>
     <use xlink:href="#DejaVuSans-Bold-41" transform="translate(295.605469 0)"/>
     <use xlink:href="#DejaVuSans-Bold-49" transform="translate(372.998047 0)"/>
     <use xlink:href="#DejaVuSans-Bold-20" transform="translate(410.205078 0)"/>
     <use xlink:href="#DejaVuSans-Bold-43" transform="translate(445.019531 0)"/>
     <use xlink:href="#DejaVuSans-Bold-6f" transform="translate(518.408203 0)"/>
     <use xlink:href="#DejaVuSans-Bold-6d" transform="translate(587.109375 0)"/>
     <use xlink:href="#DejaVuSans-Bold-70" transform="translate(691.308594 0)"/>
     <use xlink:href="#DejaVuSans-Bold-61" transform="translate(762.890625 0)"/>
     <use xlink:href="#DejaVuSans-Bold-74" transform="translate(830.371094 0)"/>
     <use xlink:href="#DejaVuSans-Bold-69" transform="translate(878.173828 0)"/>
     <use xlink:href="#DejaVuSans-Bold-62" transform="translate(912.451172 0)"/>
     <use xlink:href="#DejaVuSans-Bold-6c" transform="translate(984.033203 0)"/>
     <use xlink:href="#DejaVuSans-Bold-65" transform="translate(1018.310547 0)"/>
     <use xlink:href="#DejaVuSans-Bold-20" transform="translate(1086.132812 0)"/>
     <use xlink:href="#DejaVuSans-Bold-41" transform="translate(1120.947266 0)"/>
     <use xlink:href="#DejaVuSans-Bold-50" transform="translate(1198.339844 0)"/>
     <use xlink:href="#DejaVuSans-Bold-49" transform="translate(1271.630859 0)"/>
    </g>
   </g>
   <g id="text_11">
    <!-- Telegram -->
    <g style="fill: #ffffff" transform="translate(109.390765 223.350234) scale(0.075 -0.075)">
     <use xlink:href="#DejaVuSans-Bold-54"/>
     <use xlink:href="#DejaVuSans-Bold-65" transform="translate(54.962891 0)"/>
     <use xlink:href="#DejaVuSans-Bold-6c" transform="translate(122.785156 0)"/>
     <use xlink:href="#DejaVuSans-Bold-65" transform="translate(157.0625 0)"/>
     <use xlink:href="#DejaVuSans-Bold-67" transform="translate(224.884766 0)"/>
     <use xlink:href="#DejaVuSans-Bold-72" transform="translate(296.466797 0)"/>
     <use xlink:href="#DejaVuSans-Bold-61" transform="translate(345.783203 0)"/>
     <use xlink:href="#DejaVuSans-Bold-6d" transform="translate(413.263672 0)"/>
    </g>
   </g>
   <g id="text_12">
    <!-- Discord -->
    <g style="fill: #ffffff" transform="translate(180.526004 223.379531) scale(0.075 -0.075)">
     <defs>
      <path id="DejaVuSans-Bold-44" d="M 1791 3756 
L 1791 909 
L 2222 909 
Q 2959 909 3348 1275 
Q 3738 1641 3738 2338 
Q 3738 3031 3350 3393 
Q 2963 3756 2222 3756 
L 1791 3756 
z
M 588 4666 
L 1856 4666 
Q 2919 4666 3439 4514 
Q 3959 4363 4331 4000 
Q 4659 3684 4818 3271 
Q 4978 2859 4978 2338 
Q 4978 1809 4818 1395 
Q 4659 981 4331 666 
Q 3956 303 3431 151 
Q 2906 0 1856 0 
L 588 0 
L 588 4666 
z
" transform="scale(0.015625)"/>
      <path id="DejaVuSans-Bold-64" d="M 2919 2988 
L 2919 4863 
L 4044 4863 
L 4044 0 
L 2919 0 
L 2919 506 
Q 2688 197 2409 53 
Q 2131 -91 1766 -91 
Q 1119 -91 703 423 
Q 288 938 288 1747 
Q 288 2556 703 3070 
Q 1119 3584 1766 3584 
Q 2128 3584 2408 3439 
Q 2688 3294 2919 2988 
z
M 2181 722 
Q 2541 722 2730 984 
Q 2919 1247 2919 1747 
Q 2919 2247 2730 2509 
Q 2541 2772 2181 2772 
Q 1825 2772 1636 2509 
Q 1447 2247 1447 1747 
Q 1447 1247 1636 984 
Q 1825 722 2181 722 
z
" transform="scale(0.015625)"/>
     </defs>
     <use xlink:href="#DejaVuSans-Bold-44"/>
     <use xlink:href="#DejaVuSans-Bold-69" transform="translate(83.007812 0)"/>
     <use xlink:href="#DejaVuSans-Bold-73" transform="translate(117.285156 0)"/>
     <use xlink:href="#DejaVuSans-Bold-63" transform="translate(176.806641 0)"/>
     <use xlink:href="#DejaVuSans-Bold-6f" transform="translate(236.083984 0)"/>
     <use xlink:href="#DejaVuSans-Bold-72" transform="translate(304.785156 0)"/>
     <use xlink:href="#DejaVuSans-Bold-64" transform="translate(354.101562 0)"/>
    </g>
   </g>
   <g id="text_13">
    <!-- WeChat -->
    <g style="fill: #ffffff" transform="translate(247.893666 223.379531) scale(0.075 -0.075)">
     <use xlink:href="#DejaVuSans-Bold-57"/>
     <use xlink:href="#DejaVuSans-Bold-65" transform="translate(106.677734 0)"/>
     <use xlink:href="#DejaVuSans-Bold-43" transform="translate(174.5 0)"/>
     <use xlink:href="#DejaVuSans-Bold-68" transform="translate(247.888672 0)"/>
     <use xlink:href="#DejaVuSans-Bold-61" transform="translate(319.080078 0)"/>
     <use xlink:href="#DejaVuSans-Bold-74" transform="translate(386.560547 0)"/>
    </g>
   </g>
   <g id="text_14">
    <!-- Feishu -->
    <g style="fill: #ffffff" transform="translate(318.063281 223.379531) scale(0.075 -0.075)">
     <defs>
      <path id="DejaVuSans-Bold-46" d="M 588 4666 
L 3834 4666 
L 3834 3756 
L 1791 3756 
L 1791 2888 
L 3713 2888 
L 3713 1978 
L 1791 1978 
L 1791 0 
L 588 0 
L 588 4666 
z
" transform="scale(0.015625)"/>
     </defs>
     <use xlink:href="#DejaVuSans-Bold-46"/>
     <use xlink:href="#DejaVuSans-Bold-65" transform="translate(64.310547 0)"/>
     <use xlink:href="#DejaVuSans-Bold-69" transform="translate(132.132812 0)"/>
     <use xlink:href="#DejaVuSans-Bold-73" transform="translate(166.410156 0)"/>
     <use xlink:href="#DejaVuSans-Bold-68" transform="translate(225.931641 0)"/>
     <use xlink:href="#DejaVuSans-Bold-75" transform="translate(297.123047 0)"/>
    </g>
   </g>
   <g id="text_15">
    <!-- Slack -->
    <g style="fill: #ffffff" transform="translate(388.334263 223.379531) scale(0.075 -0.075)">
     <use xlink:href="#DejaVuSans-Bold-53"/>
     <use xlink:href="#DejaVuSans-Bold-6c" transform="translate(72.021484 0)"/>
     <use xlink:href="#DejaVuSans-Bold-61" transform="translate(106.298828 0)"/>
     <use xlink:href="#DejaVuSans-Bold-63" transform="translate(173.779297 0)"/>
     <use xlink:href="#DejaVuSans-Bold-6b" transform="translate(233.056641 0)"/>
    </g>
   </g>
   <g id="text_16">
    <!-- WhatsApp (Bridge) -->
    <g style="fill: #ffffff" transform="translate(426.991574 223.350234) scale(0.075 -0.075)">
     <defs>
      <path id="DejaVuSans-Bold-42" d="M 2456 2859 
Q 2741 2859 2887 2984 
Q 3034 3109 3034 3353 
Q 3034 3594 2887 3720 
Q 2741 3847 2456 3847 
L 1791 3847 
L 1791 2859 
L 2456 2859 
z
M 2497 819 
Q 2859 819 3042 972 
Q 3225 1125 3225 1434 
Q 3225 1738 3044 1889 
Q 2863 2041 2497 2041 
L 1791 2041 
L 1791 819 
L 2497 819 
z
M 3616 2497 
Q 4003 2384 4215 2081 
Q 4428 1778 4428 1338 
Q 4428 663 3972 331 
Q 3516 0 2584 0 
L 588 0 
L 588 4666 
L 2394 4666 
Q 3366 4666 3802 4372 
Q 4238 4078 4238 3431 
Q 4238 3091 4078 2852 
Q 3919 2613 3616 2497 
z
" transform="scale(0.015625)"/>
     </defs>
     <use xlink:href="#DejaVuSans-Bold-57"/>
     <use xlink:href="#DejaVuSans-Bold-68" transform="translate(110.302734 0)"/>
     <use xlink:href="#DejaVuSans-Bold-61" transform="translate(181.494141 0)"/>
     <use xlink:href="#DejaVuSans-Bold-74" transform="translate(248.974609 0)"/>
     <use xlink:href="#DejaVuSans-Bold-73" transform="translate(296.777344 0)"/>
     <use xlink:href="#DejaVuSans-Bold-41" transform="translate(356.298828 0)"/>
     <use xlink:href="#DejaVuSans-Bold-70" transform="translate(433.691406 0)"/>
     <use xlink:href="#DejaVuSans-Bold-70" transform="translate(505.273438 0)"/>
     <use xlink:href="#DejaVuSans-Bold-20" transform="translate(576.855469 0)"/>
     <use xlink:href="#DejaVuSans-Bold-28" transform="translate(611.669922 0)"/>
     <use xlink:href="#DejaVuSans-Bold-42" transform="translate(657.373047 0)"/>
     <use xlink:href="#DejaVuSans-Bold-72" transform="translate(733.59375 0)"/>
     <use xlink:href="#DejaVuSans-Bold-69" transform="translate(782.910156 0)"/>
     <use xlink:href="#DejaVuSans-Bold-64" transform="translate(817.1875 0)"/>
     <use xlink:href="#DejaVuSans-Bold-67" transform="translate(888.769531 0)"/>
     <use xlink:href="#DejaVuSans-Bold-65" transform="translate(960.351562 0)"/>
     <use xlink:href="#DejaVuSans-Bold-29" transform="translate(1028.173828 0)"/>
    </g>
   </g>
   <g id="text_17">
    <!-- WebSocket -->
    <g style="fill: #ffffff" transform="translate(511.494392 223.379531) scale(0.075 -0.075)">
     <use xlink:href="#DejaVuSans-Bold-57"/>
     <use xlink:href="#DejaVuSans-Bold-65" transform="translate(106.677734 0)"/>
     <use xlink:href="#DejaVuSans-Bold-62" transform="translate(174.5 0)"/>
     <use xlink:href="#DejaVuSans-Bold-53" transform="translate(246.082031 0)"/>
     <use xlink:href="#DejaVuSans-Bold-6f" transform="translate(318.103516 0)"/>
     <use xlink:href="#DejaVuSans-Bold-63" transform="translate(386.804688 0)"/>
     <use xlink:href="#DejaVuSans-Bold-6b" transform="translate(446.082031 0)"/>
     <use xlink:href="#DejaVuSans-Bold-65" transform="translate(509.960938 0)"/>
     <use xlink:href="#DejaVuSans-Bold-74" transform="translate(577.783203 0)"/>
    </g>
   </g>
   <g id="text_18">
    <!-- QQ -->
    <g style="fill: #ffffff" transform="translate(596.270257 223.379531) scale(0.075 -0.075)">
     <defs>
      <path id="DejaVuSans-Bold-51" d="M 2847 -84 
L 2753 -84 
Q 1600 -84 959 553 
Q 319 1191 319 2328 
Q 319 3463 958 4106 
Q 1597 4750 2719 4750 
Q 3853 4750 4486 4112 
Q 5119 3475 5119 2328 
Q 5119 1541 4783 972 
Q 4447 403 3816 116 
L 4756 -934 
L 3609 -934 
L 2847 -84 
z
M 2719 3878 
Q 2169 3878 1866 3472 
Q 1563 3066 1563 2328 
Q 1563 1578 1859 1179 
Q 2156 781 2719 781 
Q 3272 781 3575 1187 
Q 3878 1594 3878 2328 
Q 3878 3066 3575 3472 
Q 3272 3878 2719 3878 
z
" transform="scale(0.015625)"/>
     </defs>
     <use xlink:href="#DejaVuSans-Bold-51"/>
     <use xlink:href="#DejaVuSans-Bold-51" transform="translate(85.009766 0)"/>
    </g>
   </g>
   <g id="text_19">
    <!-- Email -->
    <g style="fill: #ffffff" transform="translate(658.768192 223.379531) scale(0.075 -0.075)">
     <defs>
      <path id="DejaVuSans-Bold-45" d="M 588 4666 
L 3834 4666 
L 3834 3756 
L 1791 3756 
L 1791 2888 
L 3713 2888 
L 3713 1978 
L 1791 1978 
L 1791 909 
L 3903 909 
L 3903 0 
L 588 0 
L 588 4666 
z
" transform="scale(0.015625)"/>
     </defs>
     <use xlink:href="#DejaVuSans-Bold-45"/>
     <use xlink:href="#DejaVuSans-Bold-6d" transform="translate(68.310547 0)"/>
     <use xlink:href="#DejaVuSans-Bold-61" transform="translate(172.509766 0)"/>
     <use xlink:href="#DejaVuSans-Bold-69" transform="translate(239.990234 0)"/>
     <use xlink:href="#DejaVuSans-Bold-6c" transform="translate(274.267578 0)"/>
    </g>
   </g>
   <g id="text_20">
    <!-- Matrix -->
    <g style="fill: #ffffff" transform="translate(724.423744 223.379531) scale(0.075 -0.075)">
     <defs>
      <path id="DejaVuSans-Bold-4d" d="M 588 4666 
L 2119 4666 
L 3181 2169 
L 4250 4666 
L 5778 4666 
L 5778 0 
L 4641 0 
L 4641 3413 
L 3566 897 
L 2803 897 
L 1728 3413 
L 1728 0 
L 588 0 
L 588 4666 
z
" transform="scale(0.015625)"/>
      <path id="DejaVuSans-Bold-78" d="M 1422 1791 
L 159 3500 
L 1344 3500 
L 2059 2463 
L 2784 3500 
L 3969 3500 
L 2706 1797 
L 4031 0 
L 2847 0 
L 2059 1106 
L 1281 0 
L 97 0 
L 1422 1791 
z
" transform="scale(0.015625)"/>
     </defs>
     <use xlink:href="#DejaVuSans-Bold-4d"/>
     <use xlink:href="#DejaVuSans-Bold-61" transform="translate(99.511719 0)"/>
     <use xlink:href="#DejaVuSans-Bold-74" transform="translate(166.992188 0)"/>
     <use xlink:href="#DejaVuSans-Bold-72" transform="translate(214.794922 0)"/>
     <use xlink:href="#DejaVuSans-Bold-69" transform="translate(264.111328 0)"/>
     <use xlink:href="#DejaVuSans-Bold-78" transform="translate(298.388672 0)"/>
    </g>
   </g>
   <g id="text_21">
    <!-- DingTalk -->
    <g style="fill: #ffffff" transform="translate(787.587305 223.350234) scale(0.075 -0.075)">
     <use xlink:href="#DejaVuSans-Bold-44"/>
     <use xlink:href="#DejaVuSans-Bold-69" transform="translate(83.007812 0)"/>
     <use xlink:href="#DejaVuSans-Bold-6e" transform="translate(117.285156 0)"/>
     <use xlink:href="#DejaVuSans-Bold-67" transform="translate(188.476562 0)"/>
     <use xlink:href="#DejaVuSans-Bold-54" transform="translate(260.058594 0)"/>
     <use xlink:href="#DejaVuSans-Bold-61" transform="translate(315.396484 0)"/>
     <use xlink:href="#DejaVuSans-Bold-6c" transform="translate(382.876953 0)"/>
     <use xlink:href="#DejaVuSans-Bold-6b" transform="translate(417.154297 0)"/>
    </g>
   </g>
   <g id="text_22">
    <!-- MoChat -->
    <g style="fill: #ffffff" transform="translate(857.364927 223.379531) scale(0.075 -0.075)">
     <use xlink:href="#DejaVuSans-Bold-4d"/>
     <use xlink:href="#DejaVuSans-Bold-6f" transform="translate(99.511719 0)"/>
     <use xlink:href="#DejaVuSans-Bold-43" transform="translate(168.212891 0)"/>
     <use xlink:href="#DejaVuSans-Bold-68" transform="translate(241.601562 0)"/>
     <use xlink:href="#DejaVuSans-Bold-61" transform="translate(312.792969 0)"/>
     <use xlink:href="#DejaVuSans-Bold-74" transform="translate(380.273438 0)"/>
    </g>
   </g>
   <g id="text_23">
    <!-- MSTeams -->
    <g style="fill: #ffffff" transform="translate(921.403292 223.379531) scale(0.075 -0.075)">
     <use xlink:href="#DejaVuSans-Bold-4d"/>
     <use xlink:href="#DejaVuSans-Bold-53" transform="translate(99.511719 0)"/>
     <use xlink:href="#DejaVuSans-Bold-54" transform="translate(171.533203 0)"/>
     <use xlink:href="#DejaVuSans-Bold-65" transform="translate(226.496094 0)"/>
     <use xlink:href="#DejaVuSans-Bold-61" transform="translate(294.318359 0)"/>
     <use xlink:href="#DejaVuSans-Bold-6d" transform="translate(361.798828 0)"/>
     <use xlink:href="#DejaVuSans-Bold-73" transform="translate(465.998047 0)"/>
    </g>
   </g>
   <g id="text_24">
    <!-- WeCom -->
    <g style="fill: #ffffff" transform="translate(993.023689 223.379531) scale(0.075 -0.075)">
     <use xlink:href="#DejaVuSans-Bold-57"/>
     <use xlink:href="#DejaVuSans-Bold-65" transform="translate(106.677734 0)"/>
     <use xlink:href="#DejaVuSans-Bold-43" transform="translate(174.5 0)"/>
     <use xlink:href="#DejaVuSans-Bold-6f" transform="translate(247.888672 0)"/>
     <use xlink:href="#DejaVuSans-Bold-6d" transform="translate(316.589844 0)"/>
    </g>
   </g>
   <g id="text_25">
    <!-- AgentLoop -->
    <g style="fill: #ffffff" transform="translate(139.824693 363.720938) scale(0.075 -0.075)">
     <use xlink:href="#DejaVuSans-Bold-41"/>
     <use xlink:href="#DejaVuSans-Bold-67" transform="translate(77.392578 0)"/>
     <use xlink:href="#DejaVuSans-Bold-65" transform="translate(148.974609 0)"/>
     <use xlink:href="#DejaVuSans-Bold-6e" transform="translate(216.796875 0)"/>
     <use xlink:href="#DejaVuSans-Bold-74" transform="translate(287.988281 0)"/>
     <use xlink:href="#DejaVuSans-Bold-4c" transform="translate(335.791016 0)"/>
     <use xlink:href="#DejaVuSans-Bold-6f" transform="translate(399.511719 0)"/>
     <use xlink:href="#DejaVuSans-Bold-6f" transform="translate(468.212891 0)"/>
     <use xlink:href="#DejaVuSans-Bold-70" transform="translate(536.914062 0)"/>
    </g>
   </g>
   <g id="text_26">
    <!-- AgentRunner -->
    <g style="fill: #ffffff" transform="translate(270.147907 363.720938) scale(0.075 -0.075)">
     <use xlink:href="#DejaVuSans-Bold-41"/>
     <use xlink:href="#DejaVuSans-Bold-67" transform="translate(77.392578 0)"/>
     <use xlink:href="#DejaVuSans-Bold-65" transform="translate(148.974609 0)"/>
     <use xlink:href="#DejaVuSans-Bold-6e" transform="translate(216.796875 0)"/>
     <use xlink:href="#DejaVuSans-Bold-74" transform="translate(287.988281 0)"/>
     <use xlink:href="#DejaVuSans-Bold-52" transform="translate(335.791016 0)"/>
     <use xlink:href="#DejaVuSans-Bold-75" transform="translate(412.792969 0)"/>
     <use xlink:href="#DejaVuSans-Bold-6e" transform="translate(483.984375 0)"/>
     <use xlink:href="#DejaVuSans-Bold-6e" transform="translate(555.175781 0)"/>
     <use xlink:href="#DejaVuSans-Bold-65" transform="translate(626.367188 0)"/>
     <use xlink:href="#DejaVuSans-Bold-72" transform="translate(694.189453 0)"/>
    </g>
   </g>
   <g id="text_27">
    <!-- ContextBuilder -->
    <g style="fill: #ffffff" transform="translate(401.693387 363.779531) scale(0.075 -0.075)">
     <use xlink:href="#DejaVuSans-Bold-43"/>
     <use xlink:href="#DejaVuSans-Bold-6f" transform="translate(73.388672 0)"/>
     <use xlink:href="#DejaVuSans-Bold-6e" transform="translate(142.089844 0)"/>
     <use xlink:href="#DejaVuSans-Bold-74" transform="translate(213.28125 0)"/>
     <use xlink:href="#DejaVuSans-Bold-65" transform="translate(261.083984 0)"/>
     <use xlink:href="#DejaVuSans-Bold-78" transform="translate(328.90625 0)"/>
     <use xlink:href="#DejaVuSans-Bold-74" transform="translate(393.408203 0)"/>
     <use xlink:href="#DejaVuSans-Bold-42" transform="translate(441.210938 0)"/>
     <use xlink:href="#DejaVuSans-Bold-75" transform="translate(517.431641 0)"/>
     <use xlink:href="#DejaVuSans-Bold-69" transform="translate(588.623047 0)"/>
     <use xlink:href="#DejaVuSans-Bold-6c" transform="translate(622.900391 0)"/>
     <use xlink:href="#DejaVuSans-Bold-64" transform="translate(657.177734 0)"/>
     <use xlink:href="#DejaVuSans-Bold-65" transform="translate(728.759766 0)"/>
     <use xlink:href="#DejaVuSans-Bold-72" transform="translate(796.582031 0)"/>
    </g>
   </g>
   <g id="text_28">
    <!-- MessageBus -->
    <g style="fill: #ffffff" transform="translate(542.542969 363.720938) scale(0.075 -0.075)">
     <use xlink:href="#DejaVuSans-Bold-4d"/>
     <use xlink:href="#DejaVuSans-Bold-65" transform="translate(99.511719 0)"/>
     <use xlink:href="#DejaVuSans-Bold-73" transform="translate(167.333984 0)"/>
     <use xlink:href="#DejaVuSans-Bold-73" transform="translate(226.855469 0)"/>
     <use xlink:href="#DejaVuSans-Bold-61" transform="translate(286.376953 0)"/>
     <use xlink:href="#DejaVuSans-Bold-67" transform="translate(353.857422 0)"/>
     <use xlink:href="#DejaVuSans-Bold-65" transform="translate(425.439453 0)"/>
     <use xlink:href="#DejaVuSans-Bold-42" transform="translate(493.261719 0)"/>
     <use xlink:href="#DejaVuSans-Bold-75" transform="translate(569.482422 0)"/>
     <use xlink:href="#DejaVuSans-Bold-73" transform="translate(640.673828 0)"/>
    </g>
   </g>
   <g id="text_29">
    <!-- ToolRegistry -->
    <g style="fill: #ffffff" transform="translate(677.967355 363.750234) scale(0.075 -0.075)">
     <use xlink:href="#DejaVuSans-Bold-54"/>
     <use xlink:href="#DejaVuSans-Bold-6f" transform="translate(54.962891 0)"/>
     <use xlink:href="#DejaVuSans-Bold-6f" transform="translate(123.664062 0)"/>
     <use xlink:href="#DejaVuSans-Bold-6c" transform="translate(192.365234 0)"/>
     <use xlink:href="#DejaVuSans-Bold-52" transform="translate(226.642578 0)"/>
     <use xlink:href="#DejaVuSans-Bold-65" transform="translate(303.644531 0)"/>
     <use xlink:href="#DejaVuSans-Bold-67" transform="translate(371.466797 0)"/>
     <use xlink:href="#DejaVuSans-Bold-69" transform="translate(443.048828 0)"/>
     <use xlink:href="#DejaVuSans-Bold-73" transform="translate(477.326172 0)"/>
     <use xlink:href="#DejaVuSans-Bold-74" transform="translate(536.847656 0)"/>
     <use xlink:href="#DejaVuSans-Bold-72" transform="translate(584.650391 0)"/>
     <use xlink:href="#DejaVuSans-Bold-79" transform="translate(633.966797 0)"/>
    </g>
   </g>
   <g id="text_30">
    <!-- AgentHook -->
    <g style="fill: #ffffff" transform="translate(816.194866 363.750234) scale(0.075 -0.075)">
     <defs>
      <path id="DejaVuSans-Bold-48" d="M 588 4666 
L 1791 4666 
L 1791 2888 
L 3566 2888 
L 3566 4666 
L 4769 4666 
L 4769 0 
L 3566 0 
L 3566 1978 
L 1791 1978 
L 1791 0 
L 588 0 
L 588 4666 
z
" transform="scale(0.015625)"/>
     </defs>
     <use xlink:href="#DejaVuSans-Bold-41"/>
     <use xlink:href="#DejaVuSans-Bold-67" transform="translate(77.392578 0)"/>
     <use xlink:href="#DejaVuSans-Bold-65" transform="translate(148.974609 0)"/>
     <use xlink:href="#DejaVuSans-Bold-6e" transform="translate(216.796875 0)"/>
     <use xlink:href="#DejaVuSans-Bold-74" transform="translate(287.988281 0)"/>
     <use xlink:href="#DejaVuSans-Bold-48" transform="translate(335.791016 0)"/>
     <use xlink:href="#DejaVuSans-Bold-6f" transform="translate(419.482422 0)"/>
     <use xlink:href="#DejaVuSans-Bold-6f" transform="translate(488.183594 0)"/>
     <use xlink:href="#DejaVuSans-Bold-6b" transform="translate(556.884766 0)"/>
    </g>
   </g>
   <g id="text_31">
    <!-- SubagentManager -->
    <g style="fill: #ffffff" transform="translate(936.142885 363.750234) scale(0.075 -0.075)">
     <use xlink:href="#DejaVuSans-Bold-53"/>
     <use xlink:href="#DejaVuSans-Bold-75" transform="translate(72.021484 0)"/>
     <use xlink:href="#DejaVuSans-Bold-62" transform="translate(143.212891 0)"/>
     <use xlink:href="#DejaVuSans-Bold-61" transform="translate(214.794922 0)"/>
     <use xlink:href="#DejaVuSans-Bold-67" transform="translate(282.275391 0)"/>
     <use xlink:href="#DejaVuSans-Bold-65" transform="translate(353.857422 0)"/>
     <use xlink:href="#DejaVuSans-Bold-6e" transform="translate(421.679688 0)"/>
     <use xlink:href="#DejaVuSans-Bold-74" transform="translate(492.871094 0)"/>
     <use xlink:href="#DejaVuSans-Bold-4d" transform="translate(540.673828 0)"/>
     <use xlink:href="#DejaVuSans-Bold-61" transform="translate(640.185547 0)"/>
     <use xlink:href="#DejaVuSans-Bold-6e" transform="translate(707.666016 0)"/>
     <use xlink:href="#DejaVuSans-Bold-61" transform="translate(778.857422 0)"/>
     <use xlink:href="#DejaVuSans-Bold-67" transform="translate(846.337891 0)"/>
     <use xlink:href="#DejaVuSans-Bold-65" transform="translate(917.919922 0)"/>
     <use xlink:href="#DejaVuSans-Bold-72" transform="translate(985.742188 0)"/>
    </g>
   </g>
   <g id="text_32">
    <!-- MemoryStore (Dream) -->
    <g style="fill: #ffffff" transform="translate(115.450279 504.146133) scale(0.075 -0.075)">
     <use xlink:href="#DejaVuSans-Bold-4d"/>
     <use xlink:href="#DejaVuSans-Bold-65" transform="translate(99.511719 0)"/>
     <use xlink:href="#DejaVuSans-Bold-6d" transform="translate(167.333984 0)"/>
     <use xlink:href="#DejaVuSans-Bold-6f" transform="translate(271.533203 0)"/>
     <use xlink:href="#DejaVuSans-Bold-72" transform="translate(340.234375 0)"/>
     <use xlink:href="#DejaVuSans-Bold-79" transform="translate(389.550781 0)"/>
     <use xlink:href="#DejaVuSans-Bold-53" transform="translate(454.736328 0)"/>
     <use xlink:href="#DejaVuSans-Bold-74" transform="translate(526.757812 0)"/>
     <use xlink:href="#DejaVuSans-Bold-6f" transform="translate(574.560547 0)"/>
     <use xlink:href="#DejaVuSans-Bold-72" transform="translate(643.261719 0)"/>
     <use xlink:href="#DejaVuSans-Bold-65" transform="translate(692.578125 0)"/>
     <use xlink:href="#DejaVuSans-Bold-20" transform="translate(760.400391 0)"/>
     <use xlink:href="#DejaVuSans-Bold-28" transform="translate(795.214844 0)"/>
     <use xlink:href="#DejaVuSans-Bold-44" transform="translate(840.917969 0)"/>
     <use xlink:href="#DejaVuSans-Bold-72" transform="translate(923.925781 0)"/>
     <use xlink:href="#DejaVuSans-Bold-65" transform="translate(973.242188 0)"/>
     <use xlink:href="#DejaVuSans-Bold-61" transform="translate(1041.064453 0)"/>
     <use xlink:href="#DejaVuSans-Bold-6d" transform="translate(1108.544922 0)"/>
     <use xlink:href="#DejaVuSans-Bold-29" transform="translate(1212.744141 0)"/>
    </g>
   </g>
   <g id="text_33">
    <!-- SkillsLoader -->
    <g style="fill: #ffffff" transform="translate(272.172321 504.179531) scale(0.075 -0.075)">
     <use xlink:href="#DejaVuSans-Bold-53"/>
     <use xlink:href="#DejaVuSans-Bold-6b" transform="translate(72.021484 0)"/>
     <use xlink:href="#DejaVuSans-Bold-69" transform="translate(138.525391 0)"/>
     <use xlink:href="#DejaVuSans-Bold-6c" transform="translate(172.802734 0)"/>
     <use xlink:href="#DejaVuSans-Bold-6c" transform="translate(207.080078 0)"/>
     <use xlink:href="#DejaVuSans-Bold-73" transform="translate(241.357422 0)"/>
     <use xlink:href="#DejaVuSans-Bold-4c" transform="translate(300.878906 0)"/>
     <use xlink:href="#DejaVuSans-Bold-6f" transform="translate(364.599609 0)"/>
     <use xlink:href="#DejaVuSans-Bold-61" transform="translate(433.300781 0)"/>
     <use xlink:href="#DejaVuSans-Bold-64" transform="translate(500.78125 0)"/>
     <use xlink:href="#DejaVuSans-Bold-65" transform="translate(572.363281 0)"/>
     <use xlink:href="#DejaVuSans-Bold-72" transform="translate(640.185547 0)"/>
    </g>
   </g>
   <g id="text_34">
    <!-- SessionManager -->
    <g style="fill: #ffffff" transform="translate(398.635379 504.150234) scale(0.075 -0.075)">
     <use xlink:href="#DejaVuSans-Bold-53"/>
     <use xlink:href="#DejaVuSans-Bold-65" transform="translate(72.021484 0)"/>
     <use xlink:href="#DejaVuSans-Bold-73" transform="translate(139.84375 0)"/>
     <use xlink:href="#DejaVuSans-Bold-73" transform="translate(199.365234 0)"/>
     <use xlink:href="#DejaVuSans-Bold-69" transform="translate(258.886719 0)"/>
     <use xlink:href="#DejaVuSans-Bold-6f" transform="translate(293.164062 0)"/>
     <use xlink:href="#DejaVuSans-Bold-6e" transform="translate(361.865234 0)"/>
     <use xlink:href="#DejaVuSans-Bold-4d" transform="translate(433.056641 0)"/>
     <use xlink:href="#DejaVuSans-Bold-61" transform="translate(532.568359 0)"/>
     <use xlink:href="#DejaVuSans-Bold-6e" transform="translate(600.048828 0)"/>
     <use xlink:href="#DejaVuSans-Bold-61" transform="translate(671.240234 0)"/>
     <use xlink:href="#DejaVuSans-Bold-67" transform="translate(738.720703 0)"/>
     <use xlink:href="#DejaVuSans-Bold-65" transform="translate(810.302734 0)"/>
     <use xlink:href="#DejaVuSans-Bold-72" transform="translate(878.125 0)"/>
    </g>
   </g>
   <g id="text_35">
    <!-- CronService -->
    <g style="fill: #ffffff" transform="translate(543.362695 504.179531) scale(0.075 -0.075)">
     <use xlink:href="#DejaVuSans-Bold-43"/>
     <use xlink:href="#DejaVuSans-Bold-72" transform="translate(73.388672 0)"/>
     <use xlink:href="#DejaVuSans-Bold-6f" transform="translate(122.705078 0)"/>
     <use xlink:href="#DejaVuSans-Bold-6e" transform="translate(191.40625 0)"/>
     <use xlink:href="#DejaVuSans-Bold-53" transform="translate(262.597656 0)"/>
     <use xlink:href="#DejaVuSans-Bold-65" transform="translate(334.619141 0)"/>
     <use xlink:href="#DejaVuSans-Bold-72" transform="translate(402.441406 0)"/>
     <use xlink:href="#DejaVuSans-Bold-76" transform="translate(451.757812 0)"/>
     <use xlink:href="#DejaVuSans-Bold-69" transform="translate(516.943359 0)"/>
     <use xlink:href="#DejaVuSans-Bold-63" transform="translate(551.220703 0)"/>
     <use xlink:href="#DejaVuSans-Bold-65" transform="translate(610.498047 0)"/>
    </g>
   </g>
   <g id="text_36">
    <!-- HeartbeatService -->
    <g style="fill: #ffffff" transform="translate(667.190792 504.179531) scale(0.075 -0.075)">
     <use xlink:href="#DejaVuSans-Bold-48"/>
     <use xlink:href="#DejaVuSans-Bold-65" transform="translate(83.691406 0)"/>
     <use xlink:href="#DejaVuSans-Bold-61" transform="translate(151.513672 0)"/>
     <use xlink:href="#DejaVuSans-Bold-72" transform="translate(218.994141 0)"/>
     <use xlink:href="#DejaVuSans-Bold-74" transform="translate(268.310547 0)"/>
     <use xlink:href="#DejaVuSans-Bold-62" transform="translate(316.113281 0)"/>
     <use xlink:href="#DejaVuSans-Bold-65" transform="translate(387.695312 0)"/>
     <use xlink:href="#DejaVuSans-Bold-61" transform="translate(455.517578 0)"/>
     <use xlink:href="#DejaVuSans-Bold-74" transform="translate(522.998047 0)"/>
     <use xlink:href="#DejaVuSans-Bold-53" transform="translate(570.800781 0)"/>
     <use xlink:href="#DejaVuSans-Bold-65" transform="translate(642.822266 0)"/>
     <use xlink:href="#DejaVuSans-Bold-72" transform="translate(710.644531 0)"/>
     <use xlink:href="#DejaVuSans-Bold-76" transform="translate(759.960938 0)"/>
     <use xlink:href="#DejaVuSans-Bold-69" transform="translate(825.146484 0)"/>
     <use xlink:href="#DejaVuSans-Bold-63" transform="translate(859.423828 0)"/>
     <use xlink:href="#DejaVuSans-Bold-65" transform="translate(918.701172 0)"/>
    </g>
   </g>
   <g id="text_37">
    <!-- AutoCompact -->
    <g style="fill: #ffffff" transform="translate(811.164593 504.179531) scale(0.075 -0.075)">
     <use xlink:href="#DejaVuSans-Bold-41"/>
     <use xlink:href="#DejaVuSans-Bold-75" transform="translate(77.392578 0)"/>
     <use xlink:href="#DejaVuSans-Bold-74" transform="translate(148.583984 0)"/>
     <use xlink:href="#DejaVuSans-Bold-6f" transform="translate(196.386719 0)"/>
     <use xlink:href="#DejaVuSans-Bold-43" transform="translate(265.087891 0)"/>
     <use xlink:href="#DejaVuSans-Bold-6f" transform="translate(338.476562 0)"/>
     <use xlink:href="#DejaVuSans-Bold-6d" transform="translate(407.177734 0)"/>
     <use xlink:href="#DejaVuSans-Bold-70" transform="translate(511.376953 0)"/>
     <use xlink:href="#DejaVuSans-Bold-61" transform="translate(582.958984 0)"/>
     <use xlink:href="#DejaVuSans-Bold-63" transform="translate(650.439453 0)"/>
     <use xlink:href="#DejaVuSans-Bold-74" transform="translate(709.716797 0)"/>
    </g>
   </g>
   <g id="text_38">
    <!-- GitStore -->
    <g style="fill: #ffffff" transform="translate(957.339174 504.179531) scale(0.075 -0.075)">
     <defs>
      <path id="DejaVuSans-Bold-47" d="M 4781 347 
Q 4331 128 3847 18 
Q 3363 -91 2847 -91 
Q 1681 -91 1000 561 
Q 319 1213 319 2328 
Q 319 3456 1012 4103 
Q 1706 4750 2913 4750 
Q 3378 4750 3804 4662 
Q 4231 4575 4609 4403 
L 4609 3438 
Q 4219 3659 3833 3768 
Q 3447 3878 3059 3878 
Q 2341 3878 1952 3476 
Q 1563 3075 1563 2328 
Q 1563 1588 1938 1184 
Q 2313 781 3003 781 
Q 3191 781 3352 804 
Q 3513 828 3641 878 
L 3641 1784 
L 2906 1784 
L 2906 2591 
L 4781 2591 
L 4781 347 
z
" transform="scale(0.015625)"/>
     </defs>
     <use xlink:href="#DejaVuSans-Bold-47"/>
     <use xlink:href="#DejaVuSans-Bold-69" transform="translate(82.080078 0)"/>
     <use xlink:href="#DejaVuSans-Bold-74" transform="translate(116.357422 0)"/>
     <use xlink:href="#DejaVuSans-Bold-53" transform="translate(164.160156 0)"/>
     <use xlink:href="#DejaVuSans-Bold-74" transform="translate(236.181641 0)"/>
     <use xlink:href="#DejaVuSans-Bold-6f" transform="translate(283.984375 0)"/>
     <use xlink:href="#DejaVuSans-Bold-72" transform="translate(352.685547 0)"/>
     <use xlink:href="#DejaVuSans-Bold-65" transform="translate(402.001953 0)"/>
    </g>
   </g>
   <g id="text_39">
    <!-- OpenAI SDK -->
    <g style="fill: #ffffff" transform="translate(157.292578 644.579531) scale(0.075 -0.075)">
     <defs>
      <path id="DejaVuSans-Bold-4b" d="M 588 4666 
L 1791 4666 
L 1791 2963 
L 3525 4666 
L 4922 4666 
L 2675 2456 
L 5153 0 
L 3647 0 
L 1791 1838 
L 1791 0 
L 588 0 
L 588 4666 
z
" transform="scale(0.015625)"/>
     </defs>
     <use xlink:href="#DejaVuSans-Bold-4f"/>
     <use xlink:href="#DejaVuSans-Bold-70" transform="translate(85.009766 0)"/>
     <use xlink:href="#DejaVuSans-Bold-65" transform="translate(156.591797 0)"/>
     <use xlink:href="#DejaVuSans-Bold-6e" transform="translate(224.414062 0)"/>
     <use xlink:href="#DejaVuSans-Bold-41" transform="translate(295.605469 0)"/>
     <use xlink:href="#DejaVuSans-Bold-49" transform="translate(372.998047 0)"/>
     <use xlink:href="#DejaVuSans-Bold-20" transform="translate(410.205078 0)"/>
     <use xlink:href="#DejaVuSans-Bold-53" transform="translate(445.019531 0)"/>
     <use xlink:href="#DejaVuSans-Bold-44" transform="translate(517.041016 0)"/>
     <use xlink:href="#DejaVuSans-Bold-4b" transform="translate(600.048828 0)"/>
    </g>
   </g>
   <g id="text_40">
    <!-- Anthropic SDK -->
    <g style="fill: #ffffff" transform="translate(306.463242 644.579531) scale(0.075 -0.075)">
     <use xlink:href="#DejaVuSans-Bold-41"/>
     <use xlink:href="#DejaVuSans-Bold-6e" transform="translate(77.392578 0)"/>
     <use xlink:href="#DejaVuSans-Bold-74" transform="translate(148.583984 0)"/>
     <use xlink:href="#DejaVuSans-Bold-68" transform="translate(196.386719 0)"/>
     <use xlink:href="#DejaVuSans-Bold-72" transform="translate(267.578125 0)"/>
     <use xlink:href="#DejaVuSans-Bold-6f" transform="translate(316.894531 0)"/>
     <use xlink:href="#DejaVuSans-Bold-70" transform="translate(385.595703 0)"/>
     <use xlink:href="#DejaVuSans-Bold-69" transform="translate(457.177734 0)"/>
     <use xlink:href="#DejaVuSans-Bold-63" transform="translate(491.455078 0)"/>
     <use xlink:href="#DejaVuSans-Bold-20" transform="translate(550.732422 0)"/>
     <use xlink:href="#DejaVuSans-Bold-53" transform="translate(585.546875 0)"/>
     <use xlink:href="#DejaVuSans-Bold-44" transform="translate(657.568359 0)"/>
     <use xlink:href="#DejaVuSans-Bold-4b" transform="translate(740.576172 0)"/>
    </g>
   </g>
   <g id="text_41">
    <!-- Azure OpenAI -->
    <g style="fill: #ffffff" transform="translate(462.744844 644.579531) scale(0.075 -0.075)">
     <defs>
      <path id="DejaVuSans-Bold-7a" d="M 366 3500 
L 3419 3500 
L 3419 2719 
L 1575 800 
L 3419 800 
L 3419 0 
L 288 0 
L 288 781 
L 2131 2700 
L 366 2700 
L 366 3500 
z
" transform="scale(0.015625)"/>
     </defs>
     <use xlink:href="#DejaVuSans-Bold-41"/>
     <use xlink:href="#DejaVuSans-Bold-7a" transform="translate(77.392578 0)"/>
     <use xlink:href="#DejaVuSans-Bold-75" transform="translate(135.595703 0)"/>
     <use xlink:href="#DejaVuSans-Bold-72" transform="translate(206.787109 0)"/>
     <use xlink:href="#DejaVuSans-Bold-65" transform="translate(256.103516 0)"/>
     <use xlink:href="#DejaVuSans-Bold-20" transform="translate(323.925781 0)"/>
     <use xlink:href="#DejaVuSans-Bold-4f" transform="translate(358.740234 0)"/>
     <use xlink:href="#DejaVuSans-Bold-70" transform="translate(443.75 0)"/>
     <use xlink:href="#DejaVuSans-Bold-65" transform="translate(515.332031 0)"/>
     <use xlink:href="#DejaVuSans-Bold-6e" transform="translate(583.154297 0)"/>
     <use xlink:href="#DejaVuSans-Bold-41" transform="translate(654.345703 0)"/>
     <use xlink:href="#DejaVuSans-Bold-49" transform="translate(731.738281 0)"/>
    </g>
   </g>
   <g id="text_42">
    <!-- Baileys (WhatsApp) -->
    <g style="fill: #ffffff" transform="translate(604.475859 644.550234) scale(0.075 -0.075)">
     <use xlink:href="#DejaVuSans-Bold-42"/>
     <use xlink:href="#DejaVuSans-Bold-61" transform="translate(76.220703 0)"/>
     <use xlink:href="#DejaVuSans-Bold-69" transform="translate(143.701172 0)"/>
     <use xlink:href="#DejaVuSans-Bold-6c" transform="translate(177.978516 0)"/>
     <use xlink:href="#DejaVuSans-Bold-65" transform="translate(212.255859 0)"/>
     <use xlink:href="#DejaVuSans-Bold-79" transform="translate(280.078125 0)"/>
     <use xlink:href="#DejaVuSans-Bold-73" transform="translate(345.263672 0)"/>
     <use xlink:href="#DejaVuSans-Bold-20" transform="translate(404.785156 0)"/>
     <use xlink:href="#DejaVuSans-Bold-28" transform="translate(439.599609 0)"/>
     <use xlink:href="#DejaVuSans-Bold-57" transform="translate(485.302734 0)"/>
     <use xlink:href="#DejaVuSans-Bold-68" transform="translate(595.605469 0)"/>
     <use xlink:href="#DejaVuSans-Bold-61" transform="translate(666.796875 0)"/>
     <use xlink:href="#DejaVuSans-Bold-74" transform="translate(734.277344 0)"/>
     <use xlink:href="#DejaVuSans-Bold-73" transform="translate(782.080078 0)"/>
     <use xlink:href="#DejaVuSans-Bold-41" transform="translate(841.601562 0)"/>
     <use xlink:href="#DejaVuSans-Bold-70" transform="translate(918.994141 0)"/>
     <use xlink:href="#DejaVuSans-Bold-70" transform="translate(990.576172 0)"/>
     <use xlink:href="#DejaVuSans-Bold-29" transform="translate(1062.158203 0)"/>
    </g>
   </g>
   <g id="text_43">
    <!-- aiohttp -->
    <g style="fill: #ffffff" transform="translate(785.128945 644.579531) scale(0.075 -0.075)">
     <use xlink:href="#DejaVuSans-Bold-61"/>
     <use xlink:href="#DejaVuSans-Bold-69" transform="translate(67.480469 0)"/>
     <use xlink:href="#DejaVuSans-Bold-6f" transform="translate(101.757812 0)"/>
     <use xlink:href="#DejaVuSans-Bold-68" transform="translate(170.458984 0)"/>
     <use xlink:href="#DejaVuSans-Bold-74" transform="translate(241.650391 0)"/>
     <use xlink:href="#DejaVuSans-Bold-74" transform="translate(289.453125 0)"/>
     <use xlink:href="#DejaVuSans-Bold-70" transform="translate(337.255859 0)"/>
    </g>
   </g>
   <g id="text_44">
    <!-- WebSearch APIs -->
    <g style="fill: #ffffff" transform="translate(920.572266 644.579531) scale(0.075 -0.075)">
     <use xlink:href="#DejaVuSans-Bold-57"/>
     <use xlink:href="#DejaVuSans-Bold-65" transform="translate(106.677734 0)"/>
     <use xlink:href="#DejaVuSans-Bold-62" transform="translate(174.5 0)"/>
     <use xlink:href="#DejaVuSans-Bold-53" transform="translate(246.082031 0)"/>
     <use xlink:href="#DejaVuSans-Bold-65" transform="translate(318.103516 0)"/>
     <use xlink:href="#DejaVuSans-Bold-61" transform="translate(385.925781 0)"/>
     <use xlink:href="#DejaVuSans-Bold-72" transform="translate(453.40625 0)"/>
     <use xlink:href="#DejaVuSans-Bold-63" transform="translate(502.722656 0)"/>
     <use xlink:href="#DejaVuSans-Bold-68" transform="translate(562 0)"/>
     <use xlink:href="#DejaVuSans-Bold-20" transform="translate(633.191406 0)"/>
     <use xlink:href="#DejaVuSans-Bold-41" transform="translate(668.005859 0)"/>
     <use xlink:href="#DejaVuSans-Bold-50" transform="translate(745.398438 0)"/>
     <use xlink:href="#DejaVuSans-Bold-49" transform="translate(818.689453 0)"/>
     <use xlink:href="#DejaVuSans-Bold-73" transform="translate(855.896484 0)"/>
    </g>
   </g>
   <g id="text_45">
    <!-- Python 3.11+ -->
    <g style="fill: #ffffff" transform="translate(133.971763 784.950234) scale(0.075 -0.075)">
     <defs>
      <path id="DejaVuSans-Bold-33" d="M 2981 2516 
Q 3453 2394 3698 2092 
Q 3944 1791 3944 1325 
Q 3944 631 3412 270 
Q 2881 -91 1863 -91 
Q 1503 -91 1142 -33 
Q 781 25 428 141 
L 428 1069 
Q 766 900 1098 814 
Q 1431 728 1753 728 
Q 2231 728 2486 893 
Q 2741 1059 2741 1369 
Q 2741 1688 2480 1852 
Q 2219 2016 1709 2016 
L 1228 2016 
L 1228 2791 
L 1734 2791 
Q 2188 2791 2409 2933 
Q 2631 3075 2631 3366 
Q 2631 3634 2415 3781 
Q 2200 3928 1806 3928 
Q 1516 3928 1219 3862 
Q 922 3797 628 3669 
L 628 4550 
Q 984 4650 1334 4700 
Q 1684 4750 2022 4750 
Q 2931 4750 3382 4451 
Q 3834 4153 3834 3553 
Q 3834 3144 3618 2883 
Q 3403 2622 2981 2516 
z
" transform="scale(0.015625)"/>
      <path id="DejaVuSans-Bold-2e" d="M 653 1209 
L 1778 1209 
L 1778 0 
L 653 0 
L 653 1209 
z
" transform="scale(0.015625)"/>
      <path id="DejaVuSans-Bold-31" d="M 750 831 
L 1813 831 
L 1813 3847 
L 722 3622 
L 722 4441 
L 1806 4666 
L 2950 4666 
L 2950 831 
L 4013 831 
L 4013 0 
L 750 0 
L 750 831 
z
" transform="scale(0.015625)"/>
     </defs>
     <use xlink:href="#DejaVuSans-Bold-50"/>
     <use xlink:href="#DejaVuSans-Bold-79" transform="translate(75.166016 0)"/>
     <use xlink:href="#DejaVuSans-Bold-74" transform="translate(140.351562 0)"/>
     <use xlink:href="#DejaVuSans-Bold-68" transform="translate(188.154297 0)"/>
     <use xlink:href="#DejaVuSans-Bold-6f" transform="translate(259.345703 0)"/>
     <use xlink:href="#DejaVuSans-Bold-6e" transform="translate(328.046875 0)"/>
     <use xlink:href="#DejaVuSans-Bold-20" transform="translate(399.238281 0)"/>
     <use xlink:href="#DejaVuSans-Bold-33" transform="translate(434.052734 0)"/>
     <use xlink:href="#DejaVuSans-Bold-2e" transform="translate(503.632812 0)"/>
     <use xlink:href="#DejaVuSans-Bold-31" transform="translate(541.621094 0)"/>
     <use xlink:href="#DejaVuSans-Bold-31" transform="translate(611.201172 0)"/>
     <use xlink:href="#DejaVuSans-Bold-2b" transform="translate(680.78125 0)"/>
    </g>
   </g>
   <g id="text_46">
    <!-- asyncio -->
    <g style="fill: #ffffff" transform="translate(282.067048 784.950234) scale(0.075 -0.075)">
     <use xlink:href="#DejaVuSans-Bold-61"/>
     <use xlink:href="#DejaVuSans-Bold-73" transform="translate(67.480469 0)"/>
     <use xlink:href="#DejaVuSans-Bold-79" transform="translate(127.001953 0)"/>
     <use xlink:href="#DejaVuSans-Bold-6e" transform="translate(192.1875 0)"/>
     <use xlink:href="#DejaVuSans-Bold-63" transform="translate(263.378906 0)"/>
     <use xlink:href="#DejaVuSans-Bold-69" transform="translate(322.65625 0)"/>
     <use xlink:href="#DejaVuSans-Bold-6f" transform="translate(356.933594 0)"/>
    </g>
   </g>
   <g id="text_47">
    <!-- Pydantic -->
    <g style="fill: #ffffff" transform="translate(414.965458 784.950234) scale(0.075 -0.075)">
     <use xlink:href="#DejaVuSans-Bold-50"/>
     <use xlink:href="#DejaVuSans-Bold-79" transform="translate(75.166016 0)"/>
     <use xlink:href="#DejaVuSans-Bold-64" transform="translate(140.351562 0)"/>
     <use xlink:href="#DejaVuSans-Bold-61" transform="translate(211.933594 0)"/>
     <use xlink:href="#DejaVuSans-Bold-6e" transform="translate(279.414062 0)"/>
     <use xlink:href="#DejaVuSans-Bold-74" transform="translate(350.605469 0)"/>
     <use xlink:href="#DejaVuSans-Bold-69" transform="translate(398.408203 0)"/>
     <use xlink:href="#DejaVuSans-Bold-63" transform="translate(432.685547 0)"/>
    </g>
   </g>
   <g id="text_48">
    <!-- Loguru -->
    <g style="fill: #ffffff" transform="translate(553.961719 784.920938) scale(0.075 -0.075)">
     <use xlink:href="#DejaVuSans-Bold-4c"/>
     <use xlink:href="#DejaVuSans-Bold-6f" transform="translate(63.720703 0)"/>
     <use xlink:href="#DejaVuSans-Bold-67" transform="translate(132.421875 0)"/>
     <use xlink:href="#DejaVuSans-Bold-75" transform="translate(204.003906 0)"/>
     <use xlink:href="#DejaVuSans-Bold-72" transform="translate(275.195312 0)"/>
     <use xlink:href="#DejaVuSans-Bold-75" transform="translate(324.511719 0)"/>
    </g>
   </g>
   <g id="text_49">
    <!-- Node.js 20+ (Bridge) -->
    <g style="fill: #ffffff" transform="translate(659.997238 784.950234) scale(0.075 -0.075)">
     <defs>
      <path id="DejaVuSans-Bold-4e" d="M 588 4666 
L 1931 4666 
L 3628 1466 
L 3628 4666 
L 4769 4666 
L 4769 0 
L 3425 0 
L 1728 3200 
L 1728 0 
L 588 0 
L 588 4666 
z
" transform="scale(0.015625)"/>
      <path id="DejaVuSans-Bold-6a" d="M 538 3500 
L 1656 3500 
L 1656 63 
Q 1656 -641 1318 -1011 
Q 981 -1381 341 -1381 
L -213 -1381 
L -213 -647 
L -19 -647 
Q 300 -647 419 -503 
Q 538 -359 538 63 
L 538 3500 
z
M 538 4863 
L 1656 4863 
L 1656 3950 
L 538 3950 
L 538 4863 
z
" transform="scale(0.015625)"/>
      <path id="DejaVuSans-Bold-32" d="M 1844 884 
L 3897 884 
L 3897 0 
L 506 0 
L 506 884 
L 2209 2388 
Q 2438 2594 2547 2791 
Q 2656 2988 2656 3200 
Q 2656 3528 2436 3728 
Q 2216 3928 1850 3928 
Q 1569 3928 1234 3808 
Q 900 3688 519 3450 
L 519 4475 
Q 925 4609 1322 4679 
Q 1719 4750 2100 4750 
Q 2938 4750 3402 4381 
Q 3866 4013 3866 3353 
Q 3866 2972 3669 2642 
Q 3472 2313 2841 1759 
L 1844 884 
z
" transform="scale(0.015625)"/>
      <path id="DejaVuSans-Bold-30" d="M 2944 2338 
Q 2944 3213 2780 3570 
Q 2616 3928 2228 3928 
Q 1841 3928 1675 3570 
Q 1509 3213 1509 2338 
Q 1509 1453 1675 1090 
Q 1841 728 2228 728 
Q 2613 728 2778 1090 
Q 2944 1453 2944 2338 
z
M 4147 2328 
Q 4147 1169 3647 539 
Q 3147 -91 2228 -91 
Q 1306 -91 806 539 
Q 306 1169 306 2328 
Q 306 3491 806 4120 
Q 1306 4750 2228 4750 
Q 3147 4750 3647 4120 
Q 4147 3491 4147 2328 
z
" transform="scale(0.015625)"/>
     </defs>
     <use xlink:href="#DejaVuSans-Bold-4e"/>
     <use xlink:href="#DejaVuSans-Bold-6f" transform="translate(83.691406 0)"/>
     <use xlink:href="#DejaVuSans-Bold-64" transform="translate(152.392578 0)"/>
     <use xlink:href="#DejaVuSans-Bold-65" transform="translate(223.974609 0)"/>
     <use xlink:href="#DejaVuSans-Bold-2e" transform="translate(291.796875 0)"/>
     <use xlink:href="#DejaVuSans-Bold-6a" transform="translate(329.785156 0)"/>
     <use xlink:href="#DejaVuSans-Bold-73" transform="translate(364.0625 0)"/>
     <use xlink:href="#DejaVuSans-Bold-20" transform="translate(423.583984 0)"/>
     <use xlink:href="#DejaVuSans-Bold-32" transform="translate(458.398438 0)"/>
     <use xlink:href="#DejaVuSans-Bold-30" transform="translate(527.978516 0)"/>
     <use xlink:href="#DejaVuSans-Bold-2b" transform="translate(597.558594 0)"/>
     <use xlink:href="#DejaVuSans-Bold-20" transform="translate(681.347656 0)"/>
     <use xlink:href="#DejaVuSans-Bold-28" transform="translate(716.162109 0)"/>
     <use xlink:href="#DejaVuSans-Bold-42" transform="translate(761.865234 0)"/>
     <use xlink:href="#DejaVuSans-Bold-72" transform="translate(838.085938 0)"/>
     <use xlink:href="#DejaVuSans-Bold-69" transform="translate(887.402344 0)"/>
     <use xlink:href="#DejaVuSans-Bold-64" transform="translate(921.679688 0)"/>
     <use xlink:href="#DejaVuSans-Bold-67" transform="translate(993.261719 0)"/>
     <use xlink:href="#DejaVuSans-Bold-65" transform="translate(1064.84375 0)"/>
     <use xlink:href="#DejaVuSans-Bold-29" transform="translate(1132.666016 0)"/>
    </g>
   </g>
   <g id="text_50">
    <!-- TypeScript -->
    <g style="fill: #ffffff" transform="translate(817.251311 784.950234) scale(0.075 -0.075)">
     <use xlink:href="#DejaVuSans-Bold-54"/>
     <use xlink:href="#DejaVuSans-Bold-79" transform="translate(56.337891 0)"/>
     <use xlink:href="#DejaVuSans-Bold-70" transform="translate(121.523438 0)"/>
     <use xlink:href="#DejaVuSans-Bold-65" transform="translate(193.105469 0)"/>
     <use xlink:href="#DejaVuSans-Bold-53" transform="translate(260.927734 0)"/>
     <use xlink:href="#DejaVuSans-Bold-63" transform="translate(332.949219 0)"/>
     <use xlink:href="#DejaVuSans-Bold-72" transform="translate(392.226562 0)"/>
     <use xlink:href="#DejaVuSans-Bold-69" transform="translate(441.542969 0)"/>
     <use xlink:href="#DejaVuSans-Bold-70" transform="translate(475.820312 0)"/>
     <use xlink:href="#DejaVuSans-Bold-74" transform="translate(547.402344 0)"/>
    </g>
   </g>
   <g id="text_51">
    <!-- Docker -->
    <g style="fill: #ffffff" transform="translate(960.256557 784.979531) scale(0.075 -0.075)">
     <use xlink:href="#DejaVuSans-Bold-44"/>
     <use xlink:href="#DejaVuSans-Bold-6f" transform="translate(83.007812 0)"/>
     <use xlink:href="#DejaVuSans-Bold-63" transform="translate(151.708984 0)"/>
     <use xlink:href="#DejaVuSans-Bold-6b" transform="translate(210.986328 0)"/>
     <use xlink:href="#DejaVuSans-Bold-65" transform="translate(274.865234 0)"/>
     <use xlink:href="#DejaVuSans-Bold-72" transform="translate(342.6875 0)"/>
    </g>
   </g>
  </g>
 </g>
 <defs>
  <clipPath id="p22f3c23422">
   <rect x="7.2" y="7.2" width="1123.2" height="842.4"/>
  </clipPath>
 </defs>
</svg>
